<?xml version="1.0" encoding="UTF-8" standalone="no"?>
<!-- Created with Inkscape (http://www.inkscape.org/) -->

<svg
     xmlns:dc="http://purl.org/dc/elements/1.1/"
     xmlns:cc="http://creativecommons.org/ns#"
     xmlns:rdf="http://www.w3.org/1999/02/22-rdf-syntax-ns#"
     xmlns:svg="http://www.w3.org/2000/svg"
     xmlns="http://www.w3.org/2000/svg"
     xmlns:xlink="http://www.w3.org/1999/xlink"
     xmlns:sodipodi="http://sodipodi.sourceforge.net/DTD/sodipodi-0.dtd"
     xmlns:inkscape="http://www.inkscape.org/namespaces/inkscape"
     width="169"
     height="80.051903"
     id="svg3765"
     version="1.1"
     inkscape:version="0.48.5 r10040"
     sodipodi:docname="New document 1">
    <defs
         id="defs3767">
        <linearGradient
             inkscape:collect="always"
             id="linearGradient5236">
            <stop
                 style="stop-color:#000000;stop-opacity:0.3"
                 offset="0"
                 id="stop5238" />
            <stop
                 style="stop-color:#000000;stop-opacity:0;"
                 offset="1"
                 id="stop5240" />
        </linearGradient>
        <radialGradient
             inkscape:collect="always"
             xlink:href="#linearGradient5236"
             id="radialGradient5242"
             cx="325.66666"
             cy="423.02884"
             fx="325.66666"
             fy="423.02884"
             r="80.666664"
             gradientTransform="matrix(1,0,0,0.21694215,-0.66666663,324.75604)"
             gradientUnits="userSpaceOnUse" />
        <radialGradient
             inkscape:collect="always"
             xlink:href="#linearGradient5236"
             id="radialGradient5376"
             gradientUnits="userSpaceOnUse"
             gradientTransform="matrix(1,0,0,0.21694215,-0.66666663,324.75604)"
             cx="325.66666"
             cy="423.02884"
             fx="325.66666"
             fy="423.02884"
             r="80.666664" />
    </defs>
    <sodipodi:namedview
         id="base"
         pagecolor="#ffffff"
         bordercolor="#666666"
         borderopacity="1.0"
         inkscape:pageopacity="0.0"
         inkscape:pageshadow="2"
         inkscape:zoom="3"
         inkscape:cx="149.03264"
         inkscape:cy="-4.9999797"
         inkscape:document-units="px"
         inkscape:current-layer="layer1"
         showgrid="false"
         fit-margin-top="0"
         fit-margin-left="0"
         fit-margin-right="0"
         fit-margin-bottom="0" />
    <metadata
         id="metadata3770">
        <rdf:RDF>
            <cc:Work
                 rdf:about="">
                <dc:format>image/svg+xml</dc:format>
                <dc:type
                     rdf:resource="http://purl.org/dc/dcmitype/StillImage" />
                <dc:title></dc:title>
            </cc:Work>
        </rdf:RDF>
    </metadata>
    <g
         inkscape:label="Layer 1"
         inkscape:groupmode="layer"
         id="layer1"
         transform="translate(-241.28572,-353.97697)">
        <g
             id="g5244">
            <path
                 inkscape:connector-curvature="0"
                 style="opacity:0.25;fill-rule:evenodd;stroke:none"
                 d="M 263.98552,428.62677 C 263.98552,429.39377 263.23552,430.04377 261.73552,430.57677 260.23552,431.10977 258.41852,431.37677 256.28552,431.37677 254.15252,431.37677 252.31852,431.10977 250.78552,430.57677 249.28552,430.04377 248.53552,429.39377 248.53552,428.62677 248.53552,427.85977 249.28552,427.19377 250.78552,426.62677 252.31852,426.09377 254.15252,425.82677 256.28552,425.82677 258.41852,425.82677 260.23552,426.09377 261.73552,426.62677 263.23552,427.19377 263.98552,427.85977 263.98552,428.62677 z"
                 id="path3607" />
            <path
                 inkscape:connector-curvature="0"
                 style="opacity:0.25;fill-rule:evenodd;stroke:none"
                 d="M 400.48612,428.47737 C 400.48612,429.21037 399.75312,429.82737 398.28612,430.32737 396.81912,430.86037 395.06912,431.12737 393.03612,431.12737 391.00312,431.12737 389.25312,430.86037 387.78612,430.32737 386.35312,429.82737 385.63612,429.21037 385.63612,428.47737 385.63612,427.74437 386.35312,427.12737 387.78612,426.62737 389.21912,426.12737 390.96912,425.87737 393.03612,425.87737 395.10312,425.87737 396.85312,426.12737 398.28612,426.62737 399.75312,427.12737 400.48612,427.74437 400.48612,428.47737 z"
                 id="path3613" />
            <g
                 style="stroke:none"
                 transform="translate(-260,100)"
                 id="g5195">
                <path
                     style="fill:#212121;fill-rule:evenodd;stroke:none"
                     d="M 511.84375,271.46875 508.125,279.4375 C 505.658,285.3715 504.4375,290.008 504.4375,293.375 504.4375,296.742 506.075,300.79725 509.375,305.53125 L 514.34375,311.6875 514.625,315.1875 C 514.625,318.0865 514.12675,320.91875 513.09375,323.71875 511.79375,327.31875 510.958,329.125 510.625,329.125 512.358,329.491 514.19375,329.46525 516.09375,329.03125 519.92675,328.16525 522.342,325.774 523.375,321.875 L 526.1875,311.3125 C 529.8545,311.1795 534.99375,310.875 541.59375,310.375 547.26075,309.908 554.31425,310.63225 562.78125,312.53125 572.14725,314.66525 579.508,315.71875 584.875,315.71875 L 585.25,315.71875 C 590.617,315.71875 597.97775,314.66525 607.34375,312.53125 615.81075,310.63225 622.86425,309.908 628.53125,310.375 635.13125,310.875 640.2705,311.1795 643.9375,311.3125 L 646.75,321.875 C 647.783,325.774 650.19825,328.16525 654.03125,329.03125 655.93125,329.46525 657.767,329.491 659.5,329.125 659.167,329.125 658.33125,327.31875 657.03125,323.71875 655.99825,320.91875 655.5,318.0865 655.5,315.1875 L 655.78125,311.6875 660.75,305.53125 C 664.05,300.79725 665.6875,296.742 665.6875,293.375 665.6875,290.008 664.467,285.3715 662,279.4375 L 658.28125,271.46875 C 609.46875,271.46875 560.65625,271.46875 511.84375,271.46875 z"
                     id="path95"
                     inkscape:connector-curvature="0"
                     sodipodi:nodetypes="ccsccccccccccssccccccccccsccc" />
                <g
                     style="stroke:none"
                     id="g5158"
                     transform="translate(0,-80)">
                    <path
                         style="fill:#1f1f1f;fill-rule:evenodd;stroke:none"
                         d="M 584.43572,353.62697 H 659.38572 C 661.08472,357.22697 662.43572,360.40997 663.43572,363.17697 H 584.43572 V 353.62697 z"
                         id="path97"
                         inkscape:connector-curvature="0" />
                    <path
                         style="fill:#171717;fill-rule:evenodd;stroke:none"
                         d="M 584.43572,353.62697 H 659.38572 C 660.18572,355.25997 661.06872,357.22697 662.03472,359.52597 L 584.43472,360.72597 V 353.62697 z"
                         id="path99"
                         inkscape:connector-curvature="0" />
                    <path
                         inkscape:connector-curvature="0"
                         id="polygon101"
                         d="M 510.75,353.625 509.375,356.5625 584.4375,357.1875 585.6875,357.1875 660.75,356.5625 659.375,353.625 585.6875,353.625 584.4375,353.625 510.75,353.625 z"
                         style="fill-rule:evenodd;stroke:none" />
                    <path
                         inkscape:connector-curvature="0"
                         id="path111"
                         d="M 655.38572,409.22697 C 650.78472,408.72697 647.90272,406.27697 646.73572,401.87697 L 643.93572,391.22697 649.23572,392.07697 649.63572,395.42797 C 650.03472,397.96097 650.58472,399.96097 651.28472,401.42797 652.15272,403.22697 653.51872,405.82697 655.38572,409.22697 z"
                         style="fill-rule:evenodd;stroke:none" />
                    <path
                         inkscape:connector-curvature="0"
                         id="path113"
                         d="M 584.63572,356.57697 646.53572,356.12797 648.63672,361.47797 C 649.50272,363.81097 650.06972,365.44497 650.33572,366.37797 650.93672,368.51097 650.91972,369.62797 650.28572,369.72797 649.31872,369.89497 627.43572,369.89497 584.63572,369.72797 V 356.57697 z"
                         style="fill:#424242;fill-rule:evenodd;stroke:none" />
                    <path
                         inkscape:connector-curvature="0"
                         id="path115"
                         d="M 584.63572,356.52697 646.53572,356.12797 648.63672,361.12797 C 649.50272,363.32697 650.06972,364.86097 650.33572,365.72797 650.93672,367.69497 650.91972,368.72797 650.28572,368.82797 649.31872,368.99497 627.43572,368.99497 584.63572,368.82797 V 356.52697 z"
                         style="fill:#292929;fill-rule:evenodd;stroke:none" />
                    <path
                         inkscape:connector-curvature="0"
                         id="path117"
                         d="M 601.33572,366.87697 C 605.50272,367.00997 609.06872,366.85997 612.03572,366.42697 615.53572,365.89397 619.98572,365.70997 625.38672,365.87697 634.11872,366.07597 638.58572,366.17697 638.78572,366.17697 L 648.63572,366.07697 C 648.70172,366.07697 649.28472,366.01097 650.38572,365.87797 650.88572,367.74397 650.85172,368.72797 650.28472,368.82697 649.31772,368.99397 627.43472,368.99397 584.63472,368.82697 V 365.07697 C 584.93472,365.11097 585.98472,365.30997 587.78472,365.67797 589.01772,365.91097 589.98472,366.06097 590.68472,366.12797 595.78572,366.52697 599.33572,366.77697 601.33572,366.87697 z"
                         style="fill:#212121;fill-rule:evenodd;stroke:none" />
                    <path
                         inkscape:connector-curvature="0"
                         id="path119"
                         d="M 621.58572,387.12697 C 618.41972,387.52597 614.61872,388.19297 610.18672,389.12697 605.25272,390.19297 601.33572,391.24297 598.43672,392.27597 595.86972,393.20997 592.76972,393.74297 589.13672,393.87697 L 584.43672,393.82597 584.63572,371.97697 650.88572,372.17697 651.08472,374.32597 C 651.11772,376.09297 650.91872,377.90997 650.48472,379.77597 649.78472,382.74297 648.88472,385.49297 647.78472,388.02597 644.38572,387.75897 640.73472,387.52597 636.83472,387.32597 629.06872,386.92697 623.98572,386.86097 621.58572,387.12697 z"
                         style="fill:#424242;fill-rule:evenodd;stroke:none" />
                    <path
                         inkscape:connector-curvature="0"
                         id="path121"
                         d="M 621.58572,386.07697 C 618.45272,386.41097 614.65272,387.02697 610.18672,387.92797 605.28672,388.89497 601.36972,389.86197 598.43672,390.82697 595.86972,391.69397 592.76972,392.19397 589.13672,392.32697 L 584.43672,392.27697 584.63572,371.97697 650.88572,372.17697 651.08472,374.12697 C 651.11772,375.79297 650.91872,377.49297 650.48472,379.22697 649.78472,381.99397 648.88472,384.54297 647.78472,386.87697 644.38572,386.64397 640.73472,386.42697 636.83472,386.22697 629.06872,385.86097 623.98572,385.80997 621.58572,386.07697 z"
                         style="fill:#292929;fill-rule:evenodd;stroke:none" />
                    <path
                         inkscape:connector-curvature="0"
                         id="path123"
                         d="M 584.63572,356.52697 646.53572,356.12797 649.18572,362.52697 C 647.38572,361.66097 646.41872,361.19397 646.28572,361.12797 645.38672,360.79397 644.36872,360.67797 643.23572,360.77697 642.06872,360.91097 640.25272,360.92697 637.78572,360.82697 635.25272,360.76097 633.31872,360.77697 631.98572,360.87797 625.51872,361.41097 619.16972,361.69397 612.93572,361.72797 612.23572,361.76097 611.25172,361.71097 609.98572,361.57797 608.61872,361.47797 607.65272,361.42897 607.08572,361.42897 606.55272,361.42897 605.70272,361.47897 604.53572,361.57797 603.43572,361.67897 602.56872,361.71197 601.93572,361.67897 600.30172,361.64597 597.41872,361.71197 593.28572,361.87897 589.61872,362.04497 586.73572,362.06197 584.63572,361.92897 V 356.52697 z"
                         style="fill:#212121;fill-rule:evenodd;stroke:none" />
                    <path
                         inkscape:connector-curvature="0"
                         id="path125"
                         d="M 584.63572,371.97697 650.88572,372.17697 651.03472,373.62697 C 651.10072,374.85997 651.03472,376.14397 650.83472,377.47697 648.86772,377.34297 644.36772,377.30997 637.33472,377.37697 631.73472,377.44297 627.25172,377.17697 623.88572,376.57597 621.21872,376.10997 619.23572,375.80897 617.93572,375.67697 615.83472,375.47697 613.85172,375.49297 611.98572,375.72697 609.61872,376.05997 604.51872,376.52697 596.68572,377.12697 L 591.18572,377.62697 590.83572,377.77697 588.28572,377.87697 C 587.45272,377.94297 586.21972,377.97697 584.58572,377.97697 L 584.63572,371.97697 z"
                         style="fill:#212121;fill-rule:evenodd;stroke:none" />
                    <path
                         style="fill:#212121;fill-rule:evenodd;stroke:none"
                         d="M 601.28572,383.17697 C 602.65272,383.11097 605.86872,382.86097 610.93572,382.42697 614.83472,382.09297 618.03572,381.97697 620.53572,382.07597 622.83572,382.14297 632.38672,382.25997 649.18572,382.42697 L 649.38572,382.82597 C 648.85172,384.42697 648.31872,385.77597 647.78472,386.87697 644.38572,386.64397 640.73472,386.42697 636.83472,386.22697 629.06772,385.86097 623.98472,385.80997 621.58472,386.07697 618.45172,386.41097 614.65172,387.02697 610.18572,387.92797 605.28572,388.89497 601.36872,389.86197 598.43572,390.82697 595.86872,391.69397 592.76872,392.19397 589.13572,392.32697 L 584.43572,392.27697 584.53572,383.07697 C 590.86872,383.37697 596.45272,383.41097 601.28572,383.17697 z"
                         id="path129"
                         inkscape:connector-curvature="0" />
                    <path
                         inkscape:connector-curvature="0"
                         id="path131"
                         d="M 584.63572,356.52697 646.53572,356.12797 647.73572,359.02697 H 647.58572 C 643.38672,358.29397 637.96972,357.97697 631.33572,358.07697 621.76972,358.27697 616.30272,358.34397 614.93672,358.27697 611.33572,358.14397 606.28672,358.12797 599.78672,358.22697 592.72072,358.36097 587.67072,358.39397 584.63672,358.32697 V 356.52697 z"
                         style="fill:#171717;fill-rule:evenodd;stroke:none" />
                    <path
                         inkscape:connector-curvature="0"
                         id="path133"
                         d="M 584.63572,371.97697 650.88572,372.17697 650.98572,372.97697 C 651.05172,373.64397 651.06872,374.34297 651.03572,375.07697 649.86872,375.07697 648.08572,374.97697 645.68572,374.77697 643.31872,374.54397 641.53572,374.42697 640.33472,374.42697 636.90172,374.42697 633.60172,374.20997 630.43572,373.77697 628.53572,373.54397 626.18572,373.42697 623.38572,373.42697 620.18572,373.49297 617.80172,373.52697 616.23572,373.52697 606.60172,373.66097 599.36872,373.72697 594.53572,373.72697 594.20272,373.72697 592.86872,373.79297 590.53572,373.92697 588.13672,374.05997 586.15272,374.14397 584.58572,374.17697 L 584.63572,371.97697 z"
                         style="fill:#171717;fill-rule:evenodd;stroke:none" />
                    <path
                         inkscape:connector-curvature="0"
                         id="path135"
                         d="M 662.63572,364.27697 C 663.33472,364.80997 663.90272,366.00997 664.33472,367.87797 664.76872,369.57697 664.93572,370.92797 664.83472,371.92797 663.70172,371.26097 661.90172,371.12797 659.43572,371.52797 656.33472,371.99497 654.46872,372.19497 653.83472,372.12897 654.10172,371.26197 653.86772,370.09497 653.13572,368.62897 652.40272,367.12897 652.11772,365.91197 652.28472,364.97897 653.21872,365.11297 654.28472,365.12897 655.48472,365.02897 656.21772,364.96297 657.36772,364.81197 658.93472,364.57897 660.70172,364.31197 662.08372,364.37997 663.08372,364.77897 L 662.63572,364.27697 z"
                         style="fill:#313131;fill-rule:evenodd;stroke:none" />
                    <path
                         inkscape:connector-curvature="0"
                         id="path137"
                         d="M 651.28572,401.42697 C 651.98572,403.65997 652.95272,406.27697 654.18572,409.27697 652.38572,406.74397 651.15272,404.42697 650.48572,402.32697 650.05172,401.02697 649.71872,398.80997 649.48572,395.67797 L 649.23572,391.37697 649.88572,395.12697 C 650.41972,397.92697 650.88572,400.02697 651.28572,401.42697 z"
                         style="fill:#292929;fill-rule:evenodd;stroke:none" />
                    <polygon
                         transform="translate(490.23572,300.97697)"
                         style="fill:#1f1f1f;fill-rule:evenodd;stroke:none"
                         points="165.25,95.75 165.3,95.1 165.35,95.7 "
                         id="polygon141" />
                    <path
                         style="fill:#1f1f1f;fill-rule:evenodd;stroke:none"
                         d="M 655.48572,396.72697 C 655.45272,397.32697 655.60172,398.32697 655.93572,399.72697 L 656.18572,400.77697 C 656.35172,401.77697 656.33472,402.61097 656.13572,403.27697 653.96872,403.24397 652.46872,402.12797 651.63572,399.92697 650.90272,397.92697 650.86772,395.84297 651.53472,393.67697 651.90172,393.77697 652.56772,394.39397 653.53472,395.52697 654.36872,396.49397 655.01872,396.89397 655.48572,396.72697 z"
                         id="path143"
                         inkscape:connector-curvature="0" />
                    <path
                         inkscape:connector-curvature="0"
                         id="path5082"
                         d="M 585.68468,353.62697 H 510.73468 C 509.03568,357.22697 507.68468,360.40997 506.68468,363.17697 H 585.68468 V 353.62697 z"
                         style="fill:#1f1f1f;fill-rule:evenodd;stroke:none" />
                    <path
                         inkscape:connector-curvature="0"
                         id="path5084"
                         d="M 585.68468,353.62697 H 510.73468 C 509.93468,355.25997 509.05168,357.22697 508.08568,359.52597 L 585.68568,360.72597 V 353.62697 z"
                         style="fill:#171717;fill-rule:evenodd;stroke:none" />
                    <path
                         style="fill-rule:evenodd;stroke:none"
                         d="M 514.73468,409.22697 C 519.33568,408.72697 522.21768,406.27697 523.38468,401.87697 L 526.18468,391.22697 520.88468,392.07697 520.48468,395.42797 C 520.08568,397.96097 519.53568,399.96097 518.83568,401.42797 517.96768,403.22697 516.60168,405.82697 514.73468,409.22697 z"
                         id="path5088"
                         inkscape:connector-curvature="0" />
                    <path
                         style="fill:#424242;fill-rule:evenodd;stroke:none"
                         d="M 585.48468,356.57697 523.58468,356.12797 521.48368,361.47797 C 520.61768,363.81097 520.05068,365.44497 519.78468,366.37797 519.18368,368.51097 519.20068,369.62797 519.83468,369.72797 520.80168,369.89497 542.68468,369.89497 585.48468,369.72797 V 356.57697 z"
                         id="path5090"
                         inkscape:connector-curvature="0" />
                    <path
                         style="fill:#292929;fill-rule:evenodd;stroke:none"
                         d="M 585.48468,356.52697 523.58468,356.12797 521.48368,361.12797 C 520.61768,363.32697 520.05068,364.86097 519.78468,365.72797 519.18368,367.69497 519.20068,368.72797 519.83468,368.82797 520.80168,368.99497 542.68468,368.99497 585.48468,368.82797 V 356.52697 z"
                         id="path5092"
                         inkscape:connector-curvature="0" />
                    <path
                         style="fill:#212121;fill-rule:evenodd;stroke:none"
                         d="M 568.78468,366.87697 C 564.61768,367.00997 561.05168,366.85997 558.08468,366.42697 554.58468,365.89397 550.13468,365.70997 544.73368,365.87697 536.00168,366.07597 531.53468,366.17697 531.33468,366.17697 L 521.48468,366.07697 C 521.41868,366.07697 520.83568,366.01097 519.73468,365.87797 519.23468,367.74397 519.26868,368.72797 519.83568,368.82697 520.80268,368.99397 542.68568,368.99397 585.48568,368.82697 V 365.07697 C 585.18568,365.11097 584.13568,365.30997 582.33568,365.67797 581.10268,365.91097 580.13568,366.06097 579.43568,366.12797 574.33468,366.52697 570.78468,366.77697 568.78468,366.87697 z"
                         id="path5094"
                         inkscape:connector-curvature="0" />
                    <path
                         style="fill:#424242;fill-rule:evenodd;stroke:none"
                         d="M 548.53468,387.12697 C 551.70068,387.52597 555.50168,388.19297 559.93368,389.12697 564.86768,390.19297 568.78468,391.24297 571.68368,392.27597 574.25068,393.20997 577.35068,393.74297 580.98368,393.87697 L 585.68368,393.82597 585.48468,371.97697 519.23468,372.17697 519.03568,374.32597 C 519.00268,376.09297 519.20168,377.90997 519.63568,379.77597 520.33568,382.74297 521.23568,385.49297 522.33568,388.02597 525.73468,387.75897 529.38568,387.52597 533.28568,387.32597 541.05168,386.92697 546.13468,386.86097 548.53468,387.12697 z"
                         id="path5096"
                         inkscape:connector-curvature="0" />
                    <path
                         style="fill:#292929;fill-rule:evenodd;stroke:none"
                         d="M 548.53468,386.07697 C 551.66768,386.41097 555.46768,387.02697 559.93368,387.92797 564.83368,388.89497 568.75068,389.86197 571.68368,390.82697 574.25068,391.69397 577.35068,392.19397 580.98368,392.32697 L 585.68368,392.27697 585.48468,371.97697 519.23468,372.17697 519.03568,374.12697 C 519.00268,375.79297 519.20168,377.49297 519.63568,379.22697 520.33568,381.99397 521.23568,384.54297 522.33568,386.87697 525.73468,386.64397 529.38568,386.42697 533.28568,386.22697 541.05168,385.86097 546.13468,385.80997 548.53468,386.07697 z"
                         id="path5098"
                         inkscape:connector-curvature="0" />
                    <path
                         style="fill:#212121;fill-rule:evenodd;stroke:none"
                         d="M 585.48468,356.52697 523.58468,356.12797 520.93468,362.52697 C 522.73468,361.66097 523.70168,361.19397 523.83468,361.12797 524.73368,360.79397 525.75168,360.67797 526.88468,360.77697 528.05168,360.91097 529.86768,360.92697 532.33468,360.82697 534.86768,360.76097 536.80168,360.77697 538.13468,360.87797 544.60168,361.41097 550.95068,361.69397 557.18468,361.72797 557.88468,361.76097 558.86868,361.71097 560.13468,361.57797 561.50168,361.47797 562.46768,361.42897 563.03468,361.42897 563.56768,361.42897 564.41768,361.47897 565.58468,361.57797 566.68468,361.67897 567.55168,361.71197 568.18468,361.67897 569.81868,361.64597 572.70168,361.71197 576.83468,361.87897 580.50168,362.04497 583.38468,362.06197 585.48468,361.92897 V 356.52697 z"
                         id="path5100"
                         inkscape:connector-curvature="0" />
                    <path
                         style="fill:#212121;fill-rule:evenodd;stroke:none"
                         d="M 585.48468,371.97697 519.23468,372.17697 519.08568,373.62697 C 519.01968,374.85997 519.08568,376.14397 519.28568,377.47697 521.25268,377.34297 525.75268,377.30997 532.78568,377.37697 538.38568,377.44297 542.86868,377.17697 546.23468,376.57597 548.90168,376.10997 550.88468,375.80897 552.18468,375.67697 554.28568,375.47697 556.26868,375.49297 558.13468,375.72697 560.50168,376.05997 565.60168,376.52697 573.43468,377.12697 L 578.93468,377.62697 579.28468,377.77697 581.83468,377.87697 C 582.66768,377.94297 583.90068,377.97697 585.53468,377.97697 L 585.48468,371.97697 z"
                         id="path5102"
                         inkscape:connector-curvature="0" />
                    <path
                         inkscape:connector-curvature="0"
                         id="path5104"
                         d="M 568.83468,383.17697 C 567.46768,383.11097 564.25168,382.86097 559.18468,382.42697 555.28568,382.09297 552.08468,381.97697 549.58468,382.07597 547.28468,382.14297 537.73368,382.25997 520.93468,382.42697 L 520.73468,382.82597 C 521.26868,384.42697 521.80168,385.77597 522.33568,386.87697 525.73468,386.64397 529.38568,386.42697 533.28568,386.22697 541.05268,385.86097 546.13568,385.80997 548.53568,386.07697 551.66868,386.41097 555.46868,387.02697 559.93468,387.92797 564.83468,388.89497 568.75168,389.86197 571.68468,390.82697 574.25168,391.69397 577.35168,392.19397 580.98468,392.32697 L 585.68468,392.27697 585.58468,383.07697 C 579.25168,383.37697 573.66768,383.41097 568.83468,383.17697 z"
                         style="fill:#212121;fill-rule:evenodd;stroke:none" />
                    <path
                         style="fill:#171717;fill-rule:evenodd;stroke:none"
                         d="M 585.48468,356.52697 523.58468,356.12797 522.38468,359.02697 H 522.53468 C 526.73368,358.29397 532.15068,357.97697 538.78468,358.07697 548.35068,358.27697 553.81768,358.34397 555.18368,358.27697 558.78468,358.14397 563.83368,358.12797 570.33368,358.22697 577.39968,358.36097 582.44968,358.39397 585.48368,358.32697 V 356.52697 z"
                         id="path5106"
                         inkscape:connector-curvature="0" />
                    <path
                         style="fill:#171717;fill-rule:evenodd;stroke:none"
                         d="M 585.48468,371.97697 519.23468,372.17697 519.13468,372.97697 C 519.06868,373.64397 519.05168,374.34297 519.08468,375.07697 520.25168,375.07697 522.03468,374.97697 524.43468,374.77697 526.80168,374.54397 528.58468,374.42697 529.78568,374.42697 533.21868,374.42697 536.51868,374.20997 539.68468,373.77697 541.58468,373.54397 543.93468,373.42697 546.73468,373.42697 549.93468,373.49297 552.31868,373.52697 553.88468,373.52697 563.51868,373.66097 570.75168,373.72697 575.58468,373.72697 575.91768,373.72697 577.25168,373.79297 579.58468,373.92697 581.98368,374.05997 583.96768,374.14397 585.53468,374.17697 L 585.48468,371.97697 z"
                         id="path5108"
                         inkscape:connector-curvature="0" />
                    <path
                         style="fill:#313131;fill-rule:evenodd;stroke:none"
                         d="M 507.48468,364.27697 C 506.78568,364.80997 506.21768,366.00997 505.78568,367.87797 505.35168,369.57697 505.18468,370.92797 505.28568,371.92797 506.41868,371.26097 508.21868,371.12797 510.68468,371.52797 513.78568,371.99497 515.65168,372.19497 516.28568,372.12897 516.01868,371.26197 516.25268,370.09497 516.98468,368.62897 517.71768,367.12897 518.00268,365.91197 517.83568,364.97897 516.90168,365.11297 515.83568,365.12897 514.63568,365.02897 513.90268,364.96297 512.75268,364.81197 511.18568,364.57897 509.41868,364.31197 508.03668,364.37997 507.03668,364.77897 L 507.48468,364.27697 z"
                         id="path5110"
                         inkscape:connector-curvature="0" />
                    <path
                         style="fill:#292929;fill-rule:evenodd;stroke:none"
                         d="M 518.83468,401.42697 C 518.13468,403.65997 517.16768,406.27697 515.93468,409.27697 517.73468,406.74397 518.96768,404.42697 519.63468,402.32697 520.06868,401.02697 520.40168,398.80997 520.63468,395.67797 L 520.88468,391.37697 520.23468,395.12697 C 519.70068,397.92697 519.23468,400.02697 518.83468,401.42697 z"
                         id="path5112"
                         inkscape:connector-curvature="0" />
                    <polygon
                         id="polygon5114"
                         points="165.25,95.75 165.3,95.1 165.35,95.7 "
                         style="fill:#1f1f1f;fill-rule:evenodd;stroke:none"
                         transform="matrix(-1,0,0,1,679.88468,300.97697)" />
                    <path
                         inkscape:connector-curvature="0"
                         id="path5116"
                         d="M 514.63468,396.72697 C 514.66768,397.32697 514.51868,398.32697 514.18468,399.72697 L 513.93468,400.77697 C 513.76868,401.77697 513.78568,402.61097 513.98468,403.27697 516.15168,403.24397 517.65168,402.12797 518.48468,399.92697 519.21768,397.92697 519.25268,395.84297 518.58568,393.67697 518.21868,393.77697 517.55268,394.39397 516.58568,395.52697 515.75168,396.49397 515.10168,396.89397 514.63468,396.72697 z"
                         style="fill:#1f1f1f;fill-rule:evenodd;stroke:none" />
                </g>
            </g>
            <g
                 style="stroke:none"
                 transform="translate(0,-120)"
                 id="g4281">
                <polygon
                     id="polygon31"
                     points="28.45,33.5 158.95,33 180.05,48 11.05,47.5 "
                     style="fill:#454545;fill-rule:evenodd;stroke:none"
                     transform="translate(230.23572,440.97697)" />
                <rect
                     id="rect33"
                     height="6.0000005"
                     width="167.55"
                     style="fill:#1e1e1e;fill-rule:evenodd;stroke:none"
                     transform="matrix(-0.99999996,-2.9722049e-4,2.9722049e-4,-0.99999996,0,0)"
                     y="-494.405"
                     x="-409.58191" />
                <rect
                     id="rect35"
                     height="1.6500001"
                     width="167.55"
                     style="fill:#5e5e5e;fill-rule:evenodd;stroke:none"
                     transform="matrix(-0.99999996,-2.9722049e-4,2.9722049e-4,-0.99999996,0,0)"
                     y="-490.05539"
                     x="-409.58121" />
                <path
                     inkscape:connector-curvature="0"
                     id="path37"
                     d="M 271.33572,476.82697 C 273.10272,476.89297 276.50272,477.37697 281.53572,478.27697 285.76872,479.00997 289.21972,479.27697 291.88572,479.07697 294.88572,478.87697 299.30272,478.40997 305.13572,477.67697 310.96872,476.94397 315.36872,476.45997 318.33572,476.22697 323.43572,475.85997 329.25272,475.94397 335.78572,476.47697 342.68572,477.00997 347.66972,477.20997 350.73572,477.07697 359.46872,476.64297 369.31872,476.47697 380.28572,476.57697 380.98572,476.57697 382.13672,476.57697 383.73572,476.57697 385.10172,476.60997 386.21872,476.79397 387.08572,477.12697 387.35272,477.22697 387.63672,477.64397 387.93672,478.37697 388.26972,479.07697 388.55272,479.47697 388.78672,479.57697 389.58672,479.90997 391.70372,480.69397 395.13772,481.92697 397.50372,483.05997 397.05372,483.85997 393.78672,484.32697 386.08672,485.42697 381.05372,486.07697 378.68672,486.27697 373.11972,486.74397 367.96972,486.69397 363.23672,486.12797 359.26972,485.66097 352.88672,485.39497 344.08672,485.32697 340.45372,485.32697 334.27072,485.51097 325.53672,485.87797 317.67072,486.24397 311.50372,486.36097 307.03672,486.22797 305.43672,486.19497 301.18672,485.91197 294.28672,485.37797 289.05372,485.01097 284.82072,484.92797 281.58672,485.12797 275.18672,485.62797 270.36972,485.97797 267.13672,486.17797 261.43672,486.54397 256.63672,486.67797 252.73672,486.57697 251.10372,486.51097 249.92072,486.32697 249.18672,486.02697 249.58672,485.22697 250.21972,484.60997 251.08672,484.17697 251.58672,483.90997 252.41972,483.54397 253.58672,483.07697 254.01972,482.87697 255.50372,481.72697 258.03672,479.62697 259.78372,478.15597 261.33372,477.38897 262.68672,477.32697 H 259.13572 C 261.46872,476.75997 265.53572,476.59397 271.33572,476.82697 z"
                     style="fill:#4a4a4a;fill-rule:evenodd;stroke:none" />
            </g>
            <g
                 style="stroke:none"
                 id="g4237">
                <path
                     style="fill:#595959;fill-rule:evenodd;stroke:none"
                     d="M 342.08572,381.42697 C 342.08572,380.72697 342.31872,380.12697 342.78572,379.62697 343.25272,379.09297 343.81872,378.82597 344.48572,378.82597 345.11872,378.82597 345.66972,379.09297 346.13572,379.62697 346.60172,380.12697 346.83472,380.72697 346.83472,381.42697 346.83472,382.15997 346.60172,382.77697 346.13572,383.27697 345.66872,383.80997 345.11772,384.07697 344.48572,384.07697 343.81872,384.07697 343.25272,383.80997 342.78572,383.27697 342.31872,382.77697 342.08572,382.16097 342.08572,381.42697 z"
                     id="path153"
                     inkscape:connector-curvature="0" />
                <path
                     style="fill-rule:evenodd;stroke:none"
                     d="M 341.23572,382.02697 C 341.23572,381.09297 341.51872,380.30997 342.08572,379.67697 342.65272,379.04297 343.31872,378.72697 344.08572,378.72697 344.85272,378.72697 345.51972,379.04297 346.08572,379.67697 346.65272,380.30997 346.93672,381.09297 346.93672,382.02697 346.93672,382.92697 346.65372,383.69397 346.08572,384.32697 345.51972,384.96097 344.85272,385.27697 344.08572,385.27697 343.31872,385.27697 342.65272,384.96097 342.08572,384.32697 341.51872,383.69397 341.23572,382.92697 341.23572,382.02697 z"
                     id="path155"
                     inkscape:connector-curvature="0" />
                <path
                     style="fill:#333333;fill-rule:evenodd;stroke:none"
                     d="M 341.53572,381.57697 C 341.53572,380.80997 341.80272,380.14397 342.33572,379.57697 342.86872,379.01097 343.50272,378.72697 344.23572,378.72697 344.96872,378.72697 345.60172,379.00997 346.13572,379.57697 346.66872,380.14397 346.93572,380.80997 346.93572,381.57697 346.93572,382.37797 346.66872,383.05997 346.13572,383.62797 345.60172,384.19397 344.96872,384.47797 344.23572,384.47797 343.50272,384.47797 342.86872,384.19497 342.33572,383.62797 341.80172,383.05997 341.53572,382.37697 341.53572,381.57697 z"
                     id="path157"
                     inkscape:connector-curvature="0" />
                <path
                     style="fill:#878787;fill-rule:evenodd;stroke:none"
                     d="M 341.83572,381.37697 C 341.83572,380.64397 342.08572,380.02597 342.58572,379.52597 343.08572,378.99297 343.68672,378.72597 344.38672,378.72597 345.08572,378.72597 345.68672,378.99297 346.18672,379.52597 346.68672,380.02597 346.93672,380.64297 346.93672,381.37697 346.93672,382.11097 346.68672,382.72697 346.18672,383.22697 345.68672,383.75997 345.08572,384.02697 344.38672,384.02697 343.68672,384.02697 343.08572,383.75997 342.58572,383.22697 342.08572,382.72697 341.83572,382.11097 341.83572,381.37697 z"
                     id="path159"
                     inkscape:connector-curvature="0" />
                <path
                     style="fill:#595959;fill-rule:evenodd;stroke:none"
                     d="M 342.23572,381.17697 C 342.23572,380.50997 342.46872,379.92697 342.93572,379.42697 343.40272,378.95997 343.95272,378.72697 344.58472,378.72697 345.25172,378.72697 345.80172,378.95997 346.23472,379.42697 346.70172,379.92697 346.93472,380.50997 346.93472,381.17697 346.93472,381.84297 346.70172,382.40997 346.23472,382.87697 345.76772,383.34297 345.21772,383.57597 344.58472,383.57597 343.95172,383.57597 343.40172,383.34297 342.93572,382.87697 342.46872,382.41097 342.23572,381.84297 342.23572,381.17697 z"
                     id="path161"
                     inkscape:connector-curvature="0" />
                <path
                     style="fill:#787878;fill-rule:evenodd;stroke:none"
                     d="M 345.93572,381.52697 C 345.83472,380.46097 345.48572,379.92697 344.88572,379.92697 L 342.68572,380.17697 343.28572,379.47697 C 343.78572,379.04297 344.31872,378.94397 344.88672,379.17697 345.48672,379.44397 345.83572,379.90997 345.93672,380.57597 346.00272,380.91097 346.00272,381.22697 345.93572,381.52697 z"
                     id="path163"
                     inkscape:connector-curvature="0" />
                <path
                     style="fill:#595959;fill-rule:evenodd;stroke:none"
                     d="M 359.68572,381.67697 C 359.68572,380.94397 359.91872,380.32597 360.38572,379.82597 360.85172,379.32597 361.41872,379.07597 362.08472,379.07597 362.75172,379.07597 363.30172,379.32597 363.73472,379.82597 364.20172,380.32597 364.43472,380.94297 364.43472,381.67697 364.43472,382.41097 364.20172,383.02697 363.73472,383.52697 363.30072,384.02697 362.75172,384.27697 362.08472,384.27697 361.41872,384.27697 360.85172,384.02697 360.38572,383.52697 359.91972,383.02697 359.68572,382.41097 359.68572,381.67697 z"
                     id="path165"
                     inkscape:connector-curvature="0" />
                <path
                     style="fill-rule:evenodd;stroke:none"
                     d="M 358.83572,382.22697 C 358.83572,381.32697 359.11872,380.55997 359.68672,379.92697 360.25272,379.29297 360.91972,378.97697 361.68672,378.97697 362.45372,378.97697 363.11972,379.29297 363.68672,379.92697 364.25272,380.55997 364.53672,381.32597 364.53672,382.22697 364.53672,383.12797 364.25372,383.89397 363.68672,384.52697 363.11972,385.16097 362.45372,385.47697 361.68672,385.47697 360.91972,385.47697 360.25272,385.16097 359.68672,384.52697 359.11872,383.89397 358.83572,383.12697 358.83572,382.22697 z"
                     id="path167"
                     inkscape:connector-curvature="0" />
                <path
                     style="fill:#333333;fill-rule:evenodd;stroke:none"
                     d="M 359.13572,381.82697 C 359.13572,381.02697 359.40272,380.36097 359.93572,379.82697 360.43572,379.26097 361.06872,378.97697 361.83472,378.97697 362.60072,378.97697 363.23472,379.25997 363.73472,379.82697 364.26772,380.36097 364.53472,381.02697 364.53472,381.82697 364.53472,382.62797 364.26772,383.30997 363.73472,383.87797 363.23472,384.41097 362.60072,384.67797 361.83472,384.67797 361.06872,384.67797 360.43572,384.41097 359.93572,383.87797 359.40272,383.30997 359.13572,382.62697 359.13572,381.82697 z"
                     id="path169"
                     inkscape:connector-curvature="0" />
                <path
                     style="fill:#878787;fill-rule:evenodd;stroke:none"
                     d="M 359.43572,381.57697 C 359.43572,380.84397 359.68572,380.22697 360.18572,379.72697 360.68572,379.22697 361.28572,378.97697 361.98572,378.97697 362.68572,378.97697 363.28572,379.22697 363.78572,379.72697 364.28572,380.22697 364.53572,380.84297 364.53572,381.57697 364.53572,382.31097 364.28572,382.94397 363.78572,383.47697 363.28572,383.97697 362.68572,384.22697 361.98572,384.22697 361.28572,384.22697 360.68572,383.97697 360.18572,383.47697 359.68572,382.94397 359.43572,382.30997 359.43572,381.57697 z"
                     id="path171"
                     inkscape:connector-curvature="0" />
                <path
                     style="fill:#595959;fill-rule:evenodd;stroke:none"
                     d="M 359.83572,381.37697 C 359.83572,380.70997 360.06872,380.14397 360.53572,379.67697 360.96972,379.20997 361.51872,378.97697 362.18572,378.97697 362.85172,378.97697 363.40272,379.20997 363.83472,379.67697 364.30172,380.14397 364.53472,380.70997 364.53472,381.37697 364.53472,382.04297 364.30172,382.60997 363.83472,383.07597 363.40172,383.54297 362.85172,383.77597 362.18572,383.77597 361.51872,383.77597 360.96872,383.54297 360.53572,383.07597 360.06872,382.61097 359.83572,382.04297 359.83572,381.37697 z"
                     id="path173"
                     inkscape:connector-curvature="0" />
                <path
                     style="fill:#787878;fill-rule:evenodd;stroke:none"
                     d="M 363.53572,381.77697 C 363.43572,380.67697 363.08572,380.12797 362.48572,380.12797 362.11872,380.12797 361.63572,380.17797 361.03572,380.27697 L 360.28572,380.42697 360.88672,379.67697 C 361.38672,379.24297 361.91972,379.14397 362.48672,379.37697 363.08672,379.64397 363.43672,380.12697 363.53672,380.82597 363.60172,381.16097 363.60172,381.47697 363.53572,381.77697 z"
                     id="path175"
                     inkscape:connector-curvature="0" />
                <rect
                     x="343.08572"
                     y="380.87695"
                     style="fill:#262626;fill-rule:evenodd;stroke:none"
                     width="3.1500001"
                     height="2.1489999"
                     id="rect177" />
                <rect
                     x="360.23572"
                     y="380.72696"
                     style="fill:#262626;fill-rule:evenodd;stroke:none"
                     width="3.2"
                     height="2.1500001"
                     id="rect179" />
                <path
                     style="fill:#a6a6a6;fill-rule:evenodd;stroke:none"
                     d="M 346.63572,381.32697 C 347.03472,381.46097 347.95172,381.91097 349.38572,382.67797 350.85172,383.37797 352.11772,383.72797 353.18572,383.72797 354.25172,383.72797 355.51872,383.37797 356.98572,382.67797 357.78572,382.31097 358.70272,381.86197 359.73572,381.32697 360.66972,381.05997 361.70272,380.99397 362.83572,381.12797 V 382.52697 C 361.26972,382.25997 360.23572,382.41097 359.73572,382.97697 359.26872,383.50997 358.41972,384.02697 357.18572,384.52697 355.78572,385.09297 354.45272,385.34297 353.18572,385.27697 351.88572,385.24397 350.55172,384.96097 349.18572,384.42697 347.88572,383.95997 347.03572,383.47697 346.63572,382.97697 346.33472,382.61097 345.71872,382.42697 344.78472,382.42697 L 343.48472,382.52697 V 381.12697 L 344.53472,381.07597 C 345.36872,381.07697 346.06872,381.16097 346.63572,381.32697 z"
                     id="path181"
                     inkscape:connector-curvature="0" />
                <path
                     style="fill:#808080;fill-rule:evenodd;stroke:none"
                     d="M 349.48572,383.97697 C 350.58572,384.44397 351.96872,384.67697 353.63572,384.67697 355.23572,384.67697 356.65272,384.30997 357.88572,383.57597 358.55172,383.20997 359.25172,382.75997 359.98572,382.22597 360.58572,382.02597 361.53572,381.85997 362.83572,381.72597 V 382.52597 C 361.26972,382.25897 360.23572,382.40997 359.73572,382.97597 359.26872,383.50897 358.41972,384.02597 357.18572,384.52597 355.78572,385.09197 354.45272,385.34197 353.18572,385.27597 351.88572,385.24297 350.55172,384.95997 349.18572,384.42597 347.88572,383.95897 347.03572,383.47597 346.63572,382.97597 346.33472,382.60997 345.71872,382.42597 344.78472,382.42597 L 343.48472,382.52597 V 381.12697 L 344.78472,381.57597 C 345.78472,381.94297 346.58472,382.30897 347.18472,382.67697 348.68572,383.54297 349.45272,383.97697 349.48572,383.97697 z"
                     id="path183"
                     inkscape:connector-curvature="0" />
                <path
                     style="fill:#c8d6d3;fill-rule:evenodd;stroke:none"
                     d="M 346.93572,381.87697 350.68572,383.17697 C 351.48572,383.61097 352.31872,383.82597 353.18572,383.82597 354.21872,383.82597 355.06872,383.72597 355.73572,383.52597 356.33572,383.35997 357.03572,383.02597 357.83572,382.52597 358.90272,381.85997 359.76972,381.57597 360.43672,381.67597 358.76972,382.27597 357.60272,382.80897 356.93672,383.27597 355.96972,383.94297 354.56972,384.22597 352.73672,384.12697 351.36972,384.09297 350.33672,383.85997 349.63672,383.42697 L 346.93572,381.87697 z"
                     id="path185"
                     inkscape:connector-curvature="0" />
                <path
                     style="fill:#6d6d6d;fill-rule:evenodd;stroke:none"
                     d="M 343.83572,381.97697 344.58572,381.87697 C 345.15272,381.80997 345.61872,381.82597 345.98572,381.92697 346.48572,382.05997 346.91972,382.59297 347.28572,383.52697 L 346.63572,382.97697 C 346.33472,382.61097 345.71872,382.42697 344.78472,382.42697 L 343.48472,382.52697 V 381.52697 L 343.83572,381.97697 z"
                     id="path187"
                     inkscape:connector-curvature="0" />
                <path
                     style="fill:#6d6d6d;fill-rule:evenodd;stroke:none"
                     d="M 359.53572,382.72697 C 359.83572,382.22697 360.13672,381.87697 360.43572,381.67697 360.73572,381.50997 361.05172,381.54297 361.38572,381.77697 361.68572,381.97697 361.86772,382.04397 361.93572,381.97697 362.03572,381.91097 362.33472,381.91097 362.83472,381.97697 V 382.52697 C 361.26872,382.25997 360.23472,382.41097 359.73472,382.97697 L 359.15972,383.45197 C 359.21572,383.38597 359.34072,383.14497 359.53572,382.72697 z"
                     id="path189"
                     inkscape:connector-curvature="0" />
                <path
                     style="fill:#6d6d6d;fill-rule:evenodd;stroke:none"
                     d="M 347.18572,381.82697 347.78572,382.32697 C 348.38672,382.72697 349.08572,383.05997 349.88672,383.32697 351.18672,383.76097 352.21972,384.05997 352.98672,384.22697 351.38672,384.25997 350.13672,384.04297 349.23672,383.57697 348.67072,383.27697 348.11972,382.89397 347.58672,382.42797 L 346.93572,381.87697 347.18572,381.82697 z"
                     id="path191"
                     inkscape:connector-curvature="0" />
            </g>
            <g
                 style="stroke:none"
                 id="g4259">
                <path
                     style="fill:#595959;fill-rule:evenodd;stroke:none"
                     d="M 342.08572,396.62697 C 342.08572,395.89397 342.31872,395.27597 342.78572,394.77597 343.25272,394.27597 343.81872,394.02597 344.48572,394.02597 345.15272,394.02597 345.70272,394.27597 346.13572,394.77597 346.60172,395.27597 346.83472,395.89297 346.83472,396.62697 346.83472,397.36097 346.60172,397.97697 346.13572,398.47697 345.70172,398.97697 345.15272,399.22697 344.48572,399.22697 343.81872,399.22697 343.25272,398.97697 342.78572,398.47697 342.31872,397.97697 342.08572,397.36097 342.08572,396.62697 z"
                     id="path195"
                     inkscape:connector-curvature="0" />
                <path
                     style="fill-rule:evenodd;stroke:none"
                     d="M 341.23572,397.17697 C 341.23572,396.27697 341.51872,395.50997 342.08572,394.87697 342.65272,394.24297 343.31872,393.92697 344.08572,393.92697 344.85272,393.92697 345.51972,394.24297 346.08572,394.87697 346.65272,395.50997 346.93672,396.27597 346.93672,397.17697 346.93672,398.07597 346.65372,398.86097 346.08572,399.52697 345.51972,400.16097 344.85272,400.47697 344.08572,400.47697 343.31872,400.47697 342.65272,400.16097 342.08572,399.52697 341.51872,398.86097 341.23572,398.07697 341.23572,397.17697 z"
                     id="path197"
                     inkscape:connector-curvature="0" />
                <path
                     style="fill:#333333;fill-rule:evenodd;stroke:none"
                     d="M 341.53572,396.77697 C 341.53572,396.00997 341.80272,395.34297 342.33572,394.77697 342.86872,394.21097 343.50272,393.92697 344.23572,393.92697 344.96872,393.92697 345.60172,394.20997 346.13572,394.77697 346.66872,395.34297 346.93572,396.00997 346.93572,396.77697 346.93572,397.57697 346.66872,398.25997 346.13572,398.82697 345.60172,399.39397 344.96872,399.67797 344.23572,399.67797 343.50272,399.67797 342.86872,399.39497 342.33572,398.82697 341.80172,398.25997 341.53572,397.57697 341.53572,396.77697 z"
                     id="path199"
                     inkscape:connector-curvature="0" />
                <path
                     style="fill:#878787;fill-rule:evenodd;stroke:none"
                     d="M 341.83572,396.57697 C 341.83572,395.84397 342.08572,395.22697 342.58572,394.72697 343.08572,394.19397 343.68672,393.92697 344.38672,393.92697 345.08572,393.92697 345.68672,394.19397 346.18672,394.72697 346.68672,395.22697 346.93672,395.84297 346.93672,396.57697 346.93672,397.31097 346.68672,397.92797 346.18672,398.42797 345.68672,398.96097 345.08572,399.22797 344.38672,399.22797 343.68672,399.22797 343.08572,398.96097 342.58572,398.42797 342.08572,397.92697 341.83572,397.30997 341.83572,396.57697 z"
                     id="path201"
                     inkscape:connector-curvature="0" />
                <path
                     style="fill:#595959;fill-rule:evenodd;stroke:none"
                     d="M 342.23572,396.32697 C 342.23572,395.66097 342.46872,395.09397 342.93572,394.62797 343.40272,394.16097 343.95272,393.92797 344.58472,393.92797 345.21872,393.92797 345.76872,394.16097 346.23472,394.62797 346.70172,395.09397 346.93472,395.66097 346.93472,396.32697 346.93472,396.99397 346.70172,397.57697 346.23472,398.07697 345.80072,398.54397 345.25172,398.77697 344.58472,398.77697 343.95172,398.77697 343.40172,398.54397 342.93572,398.07697 342.46872,397.57697 342.23572,396.99397 342.23572,396.32697 z"
                     id="path203"
                     inkscape:connector-curvature="0" />
                <path
                     style="fill:#787878;fill-rule:evenodd;stroke:none"
                     d="M 345.93572,396.72697 C 345.83472,395.62697 345.48572,395.07697 344.88572,395.07697 L 342.68572,395.37797 343.28572,394.62797 C 343.78572,394.19397 344.31872,394.09397 344.88672,394.32697 345.48672,394.59397 345.83572,395.07697 345.93672,395.77697 346.00272,396.11097 346.00272,396.42697 345.93572,396.72697 z"
                     id="path205"
                     inkscape:connector-curvature="0" />
                <path
                     style="fill:#595959;fill-rule:evenodd;stroke:none"
                     d="M 359.68572,396.87697 C 359.68572,396.14397 359.91872,395.52597 360.38572,395.02597 360.85172,394.49297 361.41872,394.22597 362.08472,394.22597 362.71872,394.22597 363.26872,394.49297 363.73472,395.02597 364.20172,395.52597 364.43472,396.14297 364.43472,396.87697 364.43472,397.57597 364.20172,398.19297 363.73472,398.72697 363.26772,399.22697 362.71772,399.47697 362.08472,399.47697 361.41872,399.47697 360.85172,399.22697 360.38572,398.72697 359.91972,398.19397 359.68572,397.57697 359.68572,396.87697 z"
                     id="path207"
                     inkscape:connector-curvature="0" />
                <path
                     style="fill-rule:evenodd;stroke:none"
                     d="M 358.83572,397.42697 C 358.83572,396.52697 359.11872,395.75997 359.68672,395.12697 360.25272,394.45997 360.91972,394.12697 361.68672,394.12697 362.45372,394.12697 363.11972,394.45997 363.68672,395.12697 364.25272,395.75997 364.53672,396.52597 364.53672,397.42697 364.53672,398.32597 364.25372,399.09297 363.68672,399.72697 363.11972,400.36097 362.45372,400.67697 361.68672,400.67697 360.91972,400.67697 360.25272,400.36097 359.68672,399.72697 359.11872,399.09297 358.83572,398.32697 358.83572,397.42697 z"
                     id="path209"
                     inkscape:connector-curvature="0" />
                <path
                     style="fill:#333333;fill-rule:evenodd;stroke:none"
                     d="M 359.13572,397.02697 C 359.13572,396.22697 359.40272,395.54397 359.93572,394.97697 360.46872,394.40997 361.10172,394.12697 361.83472,394.12697 362.56772,394.12697 363.20172,394.40997 363.73472,394.97697 364.26772,395.54397 364.53472,396.22697 364.53472,397.02697 364.53472,397.79397 364.26772,398.46097 363.73472,399.02697 363.20172,399.59297 362.56772,399.87797 361.83472,399.87797 361.10172,399.87797 360.46872,399.59397 359.93572,399.02697 359.40272,398.45997 359.13572,397.79297 359.13572,397.02697 z"
                     id="path211"
                     inkscape:connector-curvature="0" />
                <path
                     style="fill:#878787;fill-rule:evenodd;stroke:none"
                     d="M 359.43572,396.77697 C 359.43572,396.04397 359.68572,395.42697 360.18572,394.92697 360.68572,394.39397 361.28572,394.12697 361.98572,394.12697 362.68572,394.12697 363.28572,394.39397 363.78572,394.92697 364.28572,395.42697 364.53572,396.04297 364.53572,396.77697 364.53572,397.51097 364.28572,398.12797 363.78572,398.62797 363.28572,399.16097 362.68572,399.42797 361.98572,399.42797 361.28572,399.42797 360.68572,399.16097 360.18572,398.62797 359.68572,398.12697 359.43572,397.50997 359.43572,396.77697 z"
                     id="path213"
                     inkscape:connector-curvature="0" />
                <path
                     style="fill:#595959;fill-rule:evenodd;stroke:none"
                     d="M 359.83572,396.57697 C 359.83572,395.91097 360.06872,395.32697 360.53572,394.82697 361.00272,394.36097 361.55272,394.12797 362.18572,394.12797 362.85172,394.12797 363.40272,394.36097 363.83472,394.82697 364.30172,395.32697 364.53472,395.91097 364.53472,396.57697 364.53472,397.24397 364.30172,397.80997 363.83472,398.27697 363.36772,398.74397 362.81772,398.97697 362.18572,398.97697 361.55172,398.97697 361.00172,398.74397 360.53572,398.27697 360.06972,397.80997 359.83572,397.24397 359.83572,396.57697 z"
                     id="path215"
                     inkscape:connector-curvature="0" />
                <path
                     style="fill:#787878;fill-rule:evenodd;stroke:none"
                     d="M 363.53572,396.92697 C 363.43572,395.86097 363.08572,395.32597 362.48572,395.32597 362.11872,395.32597 361.63572,395.37697 361.03572,395.47597 L 360.28572,395.62597 360.88672,394.87597 C 361.38672,394.44197 361.91972,394.34197 362.48672,394.57497 363.08672,394.84197 363.43672,395.30797 363.53672,395.97497 363.60172,396.30997 363.60172,396.62697 363.53572,396.92697 z"
                     id="path217"
                     inkscape:connector-curvature="0" />
                <rect
                     x="343.08572"
                     y="396.07697"
                     style="fill:#262626;fill-rule:evenodd;stroke:none"
                     width="3.1500001"
                     height="2.1500001"
                     id="rect219" />
                <rect
                     x="360.23572"
                     y="395.92697"
                     style="fill:#262626;fill-rule:evenodd;stroke:none"
                     width="3.2"
                     height="2.1489999"
                     id="rect221" />
                <path
                     style="fill:#a6a6a6;fill-rule:evenodd;stroke:none"
                     d="M 346.63572,396.52697 C 347.03472,396.66097 347.95172,397.11097 349.38572,397.87797 350.85172,398.57697 352.11772,398.92797 353.18572,398.92797 354.25172,398.92797 355.51872,398.57697 356.98572,397.87797 357.78572,397.51097 358.70272,397.06097 359.73572,396.52697 360.66972,396.22697 361.70272,396.16097 362.83572,396.32697 V 397.72697 C 362.43672,397.66097 362.01972,397.62697 361.58572,397.62697 360.65272,397.62697 360.03572,397.80997 359.73572,398.17697 359.26872,398.70997 358.41972,399.22697 357.18572,399.72697 355.78572,400.25997 354.45272,400.50997 353.18572,400.47697 351.88572,400.41097 350.55172,400.12697 349.18572,399.62697 347.88572,399.12697 347.03572,398.64397 346.63572,398.17697 346.33472,397.80997 345.71872,397.62697 344.78472,397.62697 L 343.48472,397.72697 V 396.32697 L 344.53472,396.27697 C 345.36872,396.24397 346.06872,396.32697 346.63572,396.52697 z"
                     id="path223"
                     inkscape:connector-curvature="0" />
                <path
                     style="fill:#808080;fill-rule:evenodd;stroke:none"
                     d="M 349.48572,399.17697 C 350.58572,399.64397 351.96872,399.87697 353.63572,399.87697 355.23572,399.87697 356.65272,399.50997 357.88572,398.77597 358.55172,398.40997 359.25172,397.94297 359.98572,397.37697 360.78572,397.14397 361.73572,396.97697 362.83572,396.87697 V 397.72697 C 362.43672,397.66097 362.01972,397.62697 361.58572,397.62697 360.65272,397.62697 360.03572,397.80997 359.73572,398.17697 359.26872,398.70997 358.41972,399.22697 357.18572,399.72697 355.78572,400.25997 354.45272,400.50997 353.18572,400.47697 351.88572,400.41097 350.55172,400.12697 349.18572,399.62697 347.88572,399.12697 347.03572,398.64397 346.63572,398.17697 346.33472,397.80997 345.71872,397.62697 344.78472,397.62697 L 343.48472,397.72697 V 396.32697 L 344.78472,396.77697 C 345.78472,397.14397 346.58472,397.49397 347.18472,397.82697 348.55172,398.66097 349.31872,399.11097 349.48572,399.17697 z"
                     id="path225"
                     inkscape:connector-curvature="0" />
                <path
                     style="fill:#c8d6d3;fill-rule:evenodd;stroke:none"
                     d="M 346.93572,397.07697 350.68572,398.37797 C 351.48572,398.81097 352.31872,399.02697 353.18572,399.02697 354.21872,399.02697 355.06872,398.92697 355.73572,398.72697 356.33572,398.55997 357.03572,398.20997 357.83572,397.67697 358.90272,397.04297 359.76972,396.77697 360.43672,396.87697 358.76972,397.47697 357.60272,397.99297 356.93672,398.42697 355.96972,399.12697 354.56972,399.42697 352.73672,399.32597 351.33672,399.29297 350.30272,399.04297 349.63672,398.57597 L 346.93572,397.07697 z"
                     id="path227"
                     inkscape:connector-curvature="0" />
                <path
                     style="fill:#6d6d6d;fill-rule:evenodd;stroke:none"
                     d="M 343.83572,397.17697 344.58572,397.07597 C 345.15272,397.00997 345.61872,397.00997 345.98572,397.07597 346.38572,397.17697 346.81872,397.70997 347.28572,398.67697 347.08572,398.57597 346.86872,398.40997 346.63672,398.17697 346.33572,397.80997 345.71972,397.62697 344.78572,397.62697 L 343.48572,397.72697 V 396.72697 L 343.83572,397.17697 z"
                     id="path229"
                     inkscape:connector-curvature="0" />
                <path
                     style="fill:#6d6d6d;fill-rule:evenodd;stroke:none"
                     d="M 362.83572,397.17697 V 397.72697 C 362.43672,397.66097 362.01972,397.62697 361.58572,397.62697 360.65272,397.62697 360.03572,397.80997 359.73572,398.17697 L 359.16072,398.65197 C 359.21672,398.58697 359.34172,398.34497 359.53572,397.92697 359.83572,397.42697 360.13672,397.07597 360.43572,396.87697 360.73572,396.70997 361.05172,396.72697 361.38572,396.92697 361.71872,397.12697 361.90272,397.20997 361.93572,397.17697 362.06872,397.04297 362.36872,397.04297 362.83572,397.17697 z"
                     id="path231"
                     inkscape:connector-curvature="0" />
                <path
                     style="fill:#6d6d6d;fill-rule:evenodd;stroke:none"
                     d="M 347.18572,397.02697 347.78572,397.52697 C 348.38672,397.89397 349.08572,398.22697 349.88672,398.52697 351.18672,398.96097 352.21972,399.25997 352.98672,399.42697 351.38672,399.45997 350.13672,399.22697 349.23672,398.72697 348.67072,398.42697 348.11972,398.05997 347.58672,397.62697 L 346.93572,397.07697 347.18572,397.02697 z"
                     id="path233"
                     inkscape:connector-curvature="0" />
            </g>
            <g
                 style="stroke:none"
                 id="g4193">
                <path
                     style="fill:#595959;fill-rule:evenodd;stroke:none"
                     d="M 304.63572,381.42697 C 304.63572,382.15997 304.40272,382.77697 303.93572,383.27697 303.46872,383.80997 302.91872,384.07697 302.28572,384.07697 301.61872,384.07697 301.05272,383.80997 300.58572,383.27697 300.11872,382.77697 299.88572,382.16097 299.88572,381.42697 299.88572,380.72697 300.11872,380.12697 300.58572,379.62697 301.08572,379.09297 301.65172,378.82597 302.28572,378.82597 302.91972,378.82597 303.46972,379.09297 303.93572,379.62697 304.40272,380.12697 304.63572,380.72697 304.63572,381.42697 z"
                     id="path237"
                     inkscape:connector-curvature="0" />
                <path
                     style="fill-rule:evenodd;stroke:none"
                     d="M 305.48572,382.02697 C 305.48572,382.92697 305.21872,383.69397 304.68572,384.32697 304.11872,384.96097 303.45272,385.27697 302.68572,385.27697 301.88572,385.27697 301.21872,384.96097 300.68572,384.32697 300.11872,383.69397 299.83572,382.92797 299.83572,382.02697 299.83572,381.09297 300.11872,380.30997 300.68572,379.67697 301.21872,379.04297 301.88572,378.72697 302.68572,378.72697 303.45272,378.72697 304.11872,379.04297 304.68572,379.67697 305.21872,380.30997 305.48572,381.09297 305.48572,382.02697 z"
                     id="path239"
                     inkscape:connector-curvature="0" />
                <path
                     style="fill:#333333;fill-rule:evenodd;stroke:none"
                     d="M 305.18572,381.57697 C 305.18572,382.37797 304.91872,383.05997 304.38572,383.62797 303.85272,384.19397 303.21872,384.47797 302.48572,384.47797 301.75272,384.47797 301.13572,384.19497 300.63572,383.62797 300.10272,383.06097 299.83572,382.37797 299.83572,381.57697 299.83572,380.80997 300.10272,380.14397 300.63572,379.57697 301.13572,379.01097 301.75272,378.72697 302.48572,378.72697 303.21872,378.72697 303.85272,379.00997 304.38572,379.57697 304.91972,380.14397 305.18572,380.80997 305.18572,381.57697 z"
                     id="path241"
                     inkscape:connector-curvature="0" />
                <path
                     style="fill:#878787;fill-rule:evenodd;stroke:none"
                     d="M 304.88572,381.37697 C 304.88572,382.10997 304.65272,382.72697 304.18572,383.22697 303.68572,383.75997 303.08572,384.02697 302.38572,384.02697 301.65272,384.02697 301.05272,383.75997 300.58572,383.22697 300.08572,382.72697 299.83572,382.11097 299.83572,381.37697 299.83572,380.64297 300.08572,380.02597 300.58572,379.52597 301.05172,378.99297 301.65172,378.72597 302.38572,378.72597 303.08572,378.72597 303.68572,378.99297 304.18572,379.52597 304.65272,380.02697 304.88572,380.64397 304.88572,381.37697 z"
                     id="path243"
                     inkscape:connector-curvature="0" />
                <path
                     style="fill:#595959;fill-rule:evenodd;stroke:none"
                     d="M 304.53572,381.17697 C 304.53572,381.84297 304.30272,382.40997 303.83572,382.87697 303.36872,383.34297 302.81872,383.57597 302.18572,383.57597 301.55172,383.57597 301.00172,383.34297 300.53572,382.87697 300.06972,382.40997 299.83572,381.84297 299.83572,381.17697 299.83572,380.50997 300.06872,379.92697 300.53572,379.42697 301.00272,378.95997 301.55272,378.72697 302.18572,378.72697 302.85272,378.72697 303.40172,378.95997 303.83572,379.42697 304.30172,379.92697 304.53572,380.50997 304.53572,381.17697 z"
                     id="path245"
                     inkscape:connector-curvature="0" />
                <path
                     style="fill:#787878;fill-rule:evenodd;stroke:none"
                     d="M 300.83572,381.52697 C 300.76872,381.22697 300.76872,380.91097 300.83572,380.57697 300.93572,379.91097 301.26872,379.44397 301.83572,379.17797 302.43572,378.94497 302.98572,379.04397 303.48572,379.47797 303.71872,379.67797 303.90272,379.91197 304.03572,380.17797 303.16972,380.01097 302.43572,379.92797 301.83572,379.92797 301.46872,379.92797 301.18572,380.19497 300.98572,380.72797 300.91972,380.99397 300.86872,381.25997 300.83572,381.52697 z"
                     id="path247"
                     inkscape:connector-curvature="0" />
                <path
                     style="fill:#595959;fill-rule:evenodd;stroke:none"
                     d="M 287.03572,381.67697 C 287.03572,382.40997 286.80272,383.02697 286.33572,383.52697 285.90172,384.02697 285.35272,384.27697 284.68572,384.27697 284.01872,384.27697 283.45272,384.02697 282.98572,383.52697 282.51872,383.02697 282.28572,382.41097 282.28572,381.67697 282.28572,380.94297 282.51872,380.32597 282.98572,379.82597 283.45272,379.32597 284.01872,379.07597 284.68572,379.07597 285.35272,379.07597 285.90172,379.32597 286.33572,379.82597 286.80172,380.32697 287.03572,380.94397 287.03572,381.67697 z"
                     id="path249"
                     inkscape:connector-curvature="0" />
                <path
                     style="fill-rule:evenodd;stroke:none"
                     d="M 287.88572,382.22697 C 287.88572,383.12697 287.61872,383.89397 287.08572,384.52697 286.51872,385.16097 285.85272,385.47697 285.08572,385.47697 284.28572,385.47697 283.61872,385.16097 283.08572,384.52697 282.51872,383.89397 282.23572,383.12697 282.23572,382.22697 282.23572,381.32697 282.51872,380.55997 283.08572,379.92697 283.61872,379.29297 284.28572,378.97697 285.08572,378.97697 285.85272,378.97697 286.51872,379.29297 287.08572,379.92697 287.61872,380.55997 287.88572,381.32697 287.88572,382.22697 z"
                     id="path251"
                     inkscape:connector-curvature="0" />
                <path
                     style="fill:#333333;fill-rule:evenodd;stroke:none"
                     d="M 287.58572,381.82697 C 287.58572,382.62797 287.31872,383.30997 286.78572,383.87797 286.28572,384.41097 285.66972,384.67797 284.93572,384.67797 284.16872,384.67797 283.53572,384.41097 283.03572,383.87797 282.50272,383.31097 282.23572,382.62797 282.23572,381.82697 282.23572,381.02697 282.50272,380.36097 283.03572,379.82697 283.53572,379.26097 284.16972,378.97697 284.93572,378.97697 285.66872,378.97697 286.28572,379.25997 286.78572,379.82697 287.31872,380.36097 287.58572,381.02697 287.58572,381.82697 z"
                     id="path253"
                     inkscape:connector-curvature="0" />
                <path
                     style="fill:#878787;fill-rule:evenodd;stroke:none"
                     d="M 287.28572,381.57697 C 287.28572,382.30997 287.05272,382.94397 286.58572,383.47697 286.08572,383.97697 285.48572,384.22697 284.78572,384.22697 284.08572,384.22697 283.48572,383.97697 282.98572,383.47697 282.48572,382.94397 282.23572,382.30997 282.23572,381.57697 282.23572,380.84397 282.48572,380.22697 282.98572,379.72697 283.48572,379.22697 284.08572,378.97697 284.78572,378.97697 285.48572,378.97697 286.08572,379.22697 286.58572,379.72697 287.05172,380.22697 287.28572,380.84297 287.28572,381.57697 z"
                     id="path255"
                     inkscape:connector-curvature="0" />
                <path
                     style="fill:#595959;fill-rule:evenodd;stroke:none"
                     d="M 286.93572,381.37697 C 286.93572,382.04297 286.70272,382.60997 286.23572,383.07597 285.80172,383.54297 285.25272,383.77597 284.58572,383.77597 283.91872,383.77597 283.36872,383.54297 282.93572,383.07597 282.46872,382.61097 282.23572,382.04297 282.23572,381.37697 282.23572,380.70997 282.46872,380.14397 282.93572,379.67697 283.36872,379.20997 283.91872,378.97697 284.58572,378.97697 285.25272,378.97697 285.80172,379.20997 286.23572,379.67697 286.70272,380.14397 286.93572,380.70997 286.93572,381.37697 z"
                     id="path257"
                     inkscape:connector-curvature="0" />
                <path
                     style="fill:#787878;fill-rule:evenodd;stroke:none"
                     d="M 283.23572,381.77697 C 283.16972,381.47697 283.16972,381.16097 283.23572,380.82697 283.33572,380.12797 283.66972,379.64397 284.23572,379.37797 284.83572,379.14497 285.38572,379.24397 285.88572,379.67797 286.11872,379.91097 286.30272,380.16097 286.43572,380.42797 285.56872,380.22797 284.83572,380.12797 284.23572,380.12797 283.86872,380.12797 283.58572,380.41097 283.38572,380.97797 283.31872,381.24397 283.26872,381.50997 283.23572,381.77697 z"
                     id="path259"
                     inkscape:connector-curvature="0" />
                <rect
                     x="300.48572"
                     y="380.87695"
                     style="fill:#262626;fill-rule:evenodd;stroke:none"
                     width="3.2"
                     height="2.1489999"
                     id="rect261" />
                <rect
                     x="283.28571"
                     y="380.72696"
                     style="fill:#262626;fill-rule:evenodd;stroke:none"
                     width="3.2"
                     height="2.1500001"
                     id="rect263" />
                <path
                     style="fill:#a6a6a6;fill-rule:evenodd;stroke:none"
                     d="M 300.08572,381.32697 C 301.05172,381.05997 302.10272,380.99397 303.23572,381.12797 V 382.52697 C 301.66972,382.25997 300.61872,382.41097 300.08572,382.97697 299.68572,383.47697 298.85272,383.95997 297.58572,384.42697 296.21872,384.95997 294.86872,385.24297 293.53572,385.27697 292.26872,385.34297 290.93572,385.09297 289.53572,384.52697 288.30272,384.02697 287.46972,383.50997 287.03572,382.97697 286.70272,382.61097 286.08572,382.42697 285.18572,382.42697 L 283.88572,382.52697 V 381.12697 L 284.93572,381.07697 C 285.73572,381.07697 286.43572,381.16097 287.03572,381.32697 287.43572,381.46097 288.33572,381.91097 289.73572,382.67797 291.20272,383.37797 292.46872,383.72797 293.53572,383.72797 294.63572,383.72797 295.91972,383.37797 297.38572,382.67797 298.15272,382.30997 299.05172,381.86097 300.08572,381.32697 z"
                     id="path265"
                     inkscape:connector-curvature="0" />
                <path
                     style="fill:#808080;fill-rule:evenodd;stroke:none"
                     d="M 293.08572,384.67697 C 294.75272,384.67697 296.13572,384.44397 297.23572,383.97697 297.90272,383.70997 298.68572,383.27697 299.58572,382.67697 300.51872,382.11097 301.73572,381.59297 303.23572,381.12697 V 382.52597 C 301.66972,382.25897 300.61872,382.40997 300.08572,382.97597 299.68572,383.47597 298.85272,383.95897 297.58572,384.42597 296.21872,384.95897 294.86872,385.24197 293.53572,385.27597 292.26872,385.34197 290.93572,385.09197 289.53572,384.52597 288.30272,384.02597 287.46972,383.50897 287.03572,382.97597 286.70272,382.60997 286.08572,382.42597 285.18572,382.42597 L 283.88572,382.52597 V 381.72597 C 285.18572,381.82597 286.13572,381.99297 286.73572,382.22597 287.10272,382.35997 287.80172,382.80897 288.83572,383.57597 290.06872,384.30997 291.48572,384.67697 293.08572,384.67697 z"
                     id="path267"
                     inkscape:connector-curvature="0" />
                <path
                     style="fill:#c8d6d3;fill-rule:evenodd;stroke:none"
                     d="M 293.98572,384.12697 C 292.21872,384.22697 290.81872,383.94297 289.78572,383.27597 289.38572,382.97597 288.68572,382.62697 287.68572,382.22597 L 286.28572,381.67597 286.98572,381.72597 C 287.61872,381.85997 288.25272,382.12597 288.88572,382.52597 289.68572,383.02597 290.38572,383.35997 290.98572,383.52597 291.68572,383.72597 292.53572,383.82597 293.53572,383.82597 294.20272,383.82597 294.75272,383.75997 295.18572,383.62697 295.25172,383.59297 295.55172,383.44297 296.08572,383.17697 296.48572,382.97697 297.73572,382.54297 299.83572,381.87697 298.46872,382.60997 297.56872,383.12697 297.13572,383.42697 296.43572,383.86097 295.38572,384.09297 293.98572,384.12697 z"
                     id="path269"
                     inkscape:connector-curvature="0" />
                <path
                     style="fill:#6d6d6d;fill-rule:evenodd;stroke:none"
                     d="M 302.88572,381.97697 303.23572,381.52697 V 382.52697 C 301.66972,382.25997 300.61872,382.41097 300.08572,382.97697 L 299.48572,383.52697 C 299.51872,383.29397 299.63572,383.02697 299.83572,382.72697 300.10272,382.29297 300.40172,382.02697 300.73572,381.92697 301.30172,381.75997 302.01872,381.77697 302.88572,381.97697 z"
                     id="path271"
                     inkscape:connector-curvature="0" />
                <path
                     style="fill:#6d6d6d;fill-rule:evenodd;stroke:none"
                     d="M 286.28572,381.67697 C 286.81972,381.97697 287.25272,382.57597 287.58572,383.47697 L 287.03572,382.97697 C 286.70272,382.61097 286.08572,382.42697 285.18572,382.42697 L 283.88572,382.52697 V 381.97697 C 284.38572,381.91097 284.68572,381.91097 284.78572,381.97697 284.85272,382.04297 285.03572,381.97697 285.33572,381.77697 285.66972,381.54297 285.98572,381.50997 286.28572,381.67697 z"
                     id="path273"
                     inkscape:connector-curvature="0" />
                <path
                     style="fill:#6d6d6d;fill-rule:evenodd;stroke:none"
                     d="M 299.58572,381.82697 299.83572,381.87697 C 299.20272,382.50997 298.41872,383.07597 297.48572,383.57597 296.91972,383.87697 296.11872,384.07597 295.08572,384.17697 L 293.73572,384.22697 296.83572,383.32697 C 298.13572,382.89397 299.05172,382.39397 299.58572,381.82697 z"
                     id="path275"
                     inkscape:connector-curvature="0" />
            </g>
            <g
                 style="stroke:none"
                 id="g4215">
                <path
                     style="fill:#595959;fill-rule:evenodd;stroke:none"
                     d="M 304.63572,396.62697 C 304.63572,397.35997 304.40272,397.97697 303.93572,398.47697 303.50172,398.97697 302.95272,399.22697 302.28572,399.22697 301.61872,399.22697 301.05272,398.97697 300.58572,398.47697 300.11872,397.97697 299.88572,397.36097 299.88572,396.62697 299.88572,395.89297 300.11872,395.27597 300.58572,394.77597 301.05172,394.27597 301.61872,394.02597 302.28572,394.02597 302.95272,394.02597 303.50272,394.27597 303.93572,394.77597 304.40272,395.27697 304.63572,395.89397 304.63572,396.62697 z"
                     id="path279"
                     inkscape:connector-curvature="0" />
                <path
                     style="fill-rule:evenodd;stroke:none"
                     d="M 305.48572,397.17697 C 305.48572,398.07597 305.21872,398.86097 304.68572,399.52697 304.11872,400.16097 303.45272,400.47697 302.68572,400.47697 301.88572,400.47697 301.21872,400.16097 300.68572,399.52697 300.11872,398.86097 299.83572,398.07697 299.83572,397.17697 299.83572,396.27697 300.11872,395.50997 300.68572,394.87697 301.21872,394.24297 301.88572,393.92697 302.68572,393.92697 303.45272,393.92697 304.11872,394.24297 304.68572,394.87697 305.21872,395.50997 305.48572,396.27697 305.48572,397.17697 z"
                     id="path281"
                     inkscape:connector-curvature="0" />
                <path
                     style="fill:#333333;fill-rule:evenodd;stroke:none"
                     d="M 305.18572,396.77697 C 305.18572,397.57697 304.91872,398.25997 304.38572,398.82697 303.85272,399.39397 303.21872,399.67797 302.48572,399.67797 301.75272,399.67797 301.13572,399.39497 300.63572,398.82697 300.10272,398.26097 299.83572,397.57697 299.83572,396.77697 299.83572,396.00997 300.10272,395.34297 300.63572,394.77697 301.13572,394.21097 301.75272,393.92697 302.48572,393.92697 303.21872,393.92697 303.85272,394.20997 304.38572,394.77697 304.91972,395.34297 305.18572,396.00997 305.18572,396.77697 z"
                     id="path283"
                     inkscape:connector-curvature="0" />
                <path
                     style="fill:#878787;fill-rule:evenodd;stroke:none"
                     d="M 304.88572,396.57697 C 304.88572,397.30997 304.65272,397.92797 304.18572,398.42797 303.68572,398.96097 303.08572,399.22797 302.38572,399.22797 301.65272,399.22797 301.05272,398.96097 300.58572,398.42797 300.08572,397.92797 299.83572,397.31097 299.83572,396.57697 299.83572,395.84297 300.08572,395.22697 300.58572,394.72697 301.05172,394.19397 301.65172,393.92697 302.38572,393.92697 303.08572,393.92697 303.68572,394.19397 304.18572,394.72697 304.65272,395.22697 304.88572,395.84297 304.88572,396.57697 z"
                     id="path285"
                     inkscape:connector-curvature="0" />
                <path
                     style="fill:#595959;fill-rule:evenodd;stroke:none"
                     d="M 304.53572,396.32697 C 304.53572,396.99397 304.30272,397.57697 303.83572,398.07697 303.40172,398.54397 302.85272,398.77697 302.18572,398.77697 301.55172,398.77697 301.00172,398.54397 300.53572,398.07697 300.06972,397.57697 299.83572,396.99397 299.83572,396.32697 299.83572,395.66097 300.06872,395.09397 300.53572,394.62797 301.00272,394.16097 301.55272,393.92797 302.18572,393.92797 302.81872,393.92797 303.36872,394.16097 303.83572,394.62797 304.30172,395.09297 304.53572,395.66097 304.53572,396.32697 z"
                     id="path287"
                     inkscape:connector-curvature="0" />
                <path
                     style="fill:#787878;fill-rule:evenodd;stroke:none"
                     d="M 300.83572,396.72697 C 300.76872,396.42697 300.76872,396.11097 300.83572,395.77697 300.93572,395.07697 301.26872,394.59297 301.83572,394.32697 302.43572,394.09397 302.98572,394.19397 303.48572,394.62797 303.71872,394.86097 303.90272,395.11097 304.03572,395.37797 303.16972,395.17797 302.43572,395.07697 301.83572,395.07697 301.46872,395.07697 301.18572,395.36097 300.98572,395.92797 300.91972,396.19397 300.86872,396.45997 300.83572,396.72697 z"
                     id="path289"
                     inkscape:connector-curvature="0" />
                <path
                     style="fill:#595959;fill-rule:evenodd;stroke:none"
                     d="M 287.03572,396.87697 C 287.03572,397.57597 286.80272,398.19297 286.33572,398.72697 285.86872,399.22697 285.31872,399.47697 284.68572,399.47697 284.05172,399.47697 283.48572,399.22697 282.98572,398.72697 282.51872,398.19397 282.28572,397.57697 282.28572,396.87697 282.28572,396.14397 282.51872,395.52597 282.98572,395.02597 283.45272,394.49297 284.01872,394.22597 284.68572,394.22597 285.31872,394.22597 285.86872,394.49297 286.33572,395.02597 286.80172,395.52697 287.03572,396.14397 287.03572,396.87697 z"
                     id="path291"
                     inkscape:connector-curvature="0" />
                <path
                     style="fill-rule:evenodd;stroke:none"
                     d="M 287.88572,397.42697 C 287.88572,398.32597 287.61872,399.09297 287.08572,399.72697 286.51872,400.36097 285.85272,400.67697 285.08572,400.67697 284.28572,400.67697 283.61872,400.36097 283.08572,399.72697 282.51872,399.09297 282.23572,398.32697 282.23572,397.42697 282.23572,396.52697 282.51872,395.75997 283.08572,395.12697 283.61872,394.45997 284.28572,394.12697 285.08572,394.12697 285.85272,394.12697 286.51872,394.45997 287.08572,395.12697 287.61872,395.75997 287.88572,396.52697 287.88572,397.42697 z"
                     id="path293"
                     inkscape:connector-curvature="0" />
                <path
                     style="fill:#333333;fill-rule:evenodd;stroke:none"
                     d="M 287.58572,397.02697 C 287.58572,397.79397 287.31872,398.46097 286.78572,399.02697 286.28572,399.59297 285.66972,399.87797 284.93572,399.87797 284.20172,399.87797 283.56872,399.59397 283.03572,399.02697 282.50272,398.46097 282.23572,397.79397 282.23572,397.02697 282.23572,396.22697 282.50272,395.54397 283.03572,394.97697 283.56972,394.41097 284.20272,394.12697 284.93572,394.12697 285.66872,394.12697 286.28572,394.40997 286.78572,394.97697 287.31872,395.54297 287.58572,396.22697 287.58572,397.02697 z"
                     id="path295"
                     inkscape:connector-curvature="0" />
                <path
                     style="fill:#878787;fill-rule:evenodd;stroke:none"
                     d="M 287.28572,396.77697 C 287.28572,397.50997 287.05272,398.12797 286.58572,398.62797 286.08572,399.16097 285.48572,399.42797 284.78572,399.42797 284.08572,399.42797 283.48572,399.16097 282.98572,398.62797 282.48572,398.12697 282.23572,397.50997 282.23572,396.77697 282.23572,396.04397 282.48572,395.42697 282.98572,394.92697 283.48572,394.39397 284.08572,394.12697 284.78572,394.12697 285.48572,394.12697 286.08572,394.39397 286.58572,394.92697 287.05172,395.42697 287.28572,396.04297 287.28572,396.77697 z"
                     id="path297"
                     inkscape:connector-curvature="0" />
                <path
                     style="fill:#595959;fill-rule:evenodd;stroke:none"
                     d="M 286.93572,396.57697 C 286.93572,397.24397 286.70272,397.80997 286.23572,398.27697 285.76872,398.74397 285.21872,398.97697 284.58572,398.97697 283.95272,398.97697 283.40172,398.74397 282.93572,398.27697 282.46872,397.80997 282.23572,397.24397 282.23572,396.57697 282.23572,395.91097 282.46872,395.32697 282.93572,394.82697 283.40172,394.36097 283.95272,394.12797 284.58572,394.12797 285.25272,394.12797 285.80172,394.36097 286.23572,394.82697 286.70272,395.32697 286.93572,395.91097 286.93572,396.57697 z"
                     id="path299"
                     inkscape:connector-curvature="0" />
                <path
                     style="fill:#787878;fill-rule:evenodd;stroke:none"
                     d="M 283.23572,396.92697 C 283.16972,396.62697 283.16972,396.30997 283.23572,395.97697 283.33572,395.30997 283.66972,394.84297 284.23572,394.57697 284.83572,394.34397 285.38572,394.44397 285.88572,394.87797 286.11872,395.11097 286.30272,395.36097 286.43572,395.62797 285.56872,395.42797 284.83572,395.32697 284.23572,395.32697 283.86872,395.32697 283.58572,395.59397 283.38572,396.12797 283.31872,396.39397 283.26872,396.66097 283.23572,396.92697 z"
                     id="path301"
                     inkscape:connector-curvature="0" />
                <rect
                     x="300.48572"
                     y="396.07697"
                     style="fill:#262626;fill-rule:evenodd;stroke:none"
                     width="3.2"
                     height="2.1500001"
                     id="rect303" />
                <rect
                     x="283.28571"
                     y="395.92697"
                     style="fill:#262626;fill-rule:evenodd;stroke:none"
                     width="3.2"
                     height="2.1489999"
                     id="rect305" />
                <path
                     style="fill:#a6a6a6;fill-rule:evenodd;stroke:none"
                     d="M 284.93572,396.27697 C 285.73572,396.24397 286.43572,396.32697 287.03572,396.52697 287.43572,396.66097 288.33572,397.11097 289.73572,397.87797 291.20272,398.57697 292.46872,398.92797 293.53572,398.92797 294.63572,398.92797 295.91972,398.57697 297.38572,397.87797 298.15272,397.51097 299.05272,397.06097 300.08572,396.52697 301.05172,396.22697 302.10272,396.16097 303.23572,396.32697 V 397.72697 C 302.83572,397.66097 302.41972,397.62697 301.98572,397.62697 301.05172,397.62697 300.41972,397.80997 300.08572,398.17697 299.68572,398.67697 298.85272,399.15997 297.58572,399.62697 296.21872,400.12697 294.86872,400.40997 293.53572,400.47697 292.26872,400.50997 290.93572,400.25997 289.53572,399.72697 288.30272,399.22697 287.46972,398.70997 287.03572,398.17697 286.70272,397.80997 286.08572,397.62697 285.18572,397.62697 L 283.88572,397.72697 V 396.32697 L 284.93572,396.27697 z"
                     id="path307"
                     inkscape:connector-curvature="0" />
                <path
                     style="fill:#808080;fill-rule:evenodd;stroke:none"
                     d="M 286.73572,397.37697 C 287.10272,397.50997 287.80172,397.97697 288.83572,398.77597 290.06872,399.50897 291.48572,399.87697 293.08572,399.87697 294.75272,399.87697 296.13572,399.64397 297.23572,399.17697 297.33572,399.14397 298.11872,398.69397 299.58572,397.82597 300.51872,397.29297 301.73572,396.79297 303.23572,396.32597 V 397.72597 C 302.83572,397.65997 302.41972,397.62597 301.98572,397.62597 301.05172,397.62597 300.41972,397.80897 300.08572,398.17597 299.68572,398.67597 298.85272,399.15897 297.58572,399.62597 296.21872,400.12597 294.86872,400.40897 293.53572,400.47597 292.26872,400.50897 290.93572,400.25897 289.53572,399.72597 288.30272,399.22597 287.46972,398.70897 287.03572,398.17597 286.70272,397.80897 286.08572,397.62597 285.18572,397.62597 L 283.88572,397.72597 V 396.87697 C 285.01872,396.97697 285.96872,397.14397 286.73572,397.37697 z"
                     id="path309"
                     inkscape:connector-curvature="0" />
                <path
                     style="fill:#c8d6d3;fill-rule:evenodd;stroke:none"
                     d="M 286.28572,396.87697 286.98572,396.92697 C 287.61872,397.02697 288.25272,397.27697 288.88572,397.67697 289.68572,398.17697 290.38572,398.52697 290.98572,398.72697 291.65272,398.92697 292.50272,399.02697 293.53572,399.02697 294.20272,399.02697 294.75272,398.96097 295.18572,398.82697 295.25172,398.79397 295.55172,398.64397 296.08572,398.37797 296.48572,398.17797 297.73572,397.74397 299.83572,397.07697 298.46872,397.77697 297.56872,398.27697 297.13572,398.57697 296.46872,399.04397 295.41972,399.29397 293.98572,399.32697 292.18572,399.42797 290.78572,399.12797 289.78572,398.42797 289.38572,398.16097 288.68572,397.82697 287.68572,397.42797 L 286.28572,396.87697 z"
                     id="path311"
                     inkscape:connector-curvature="0" />
                <path
                     style="fill:#6d6d6d;fill-rule:evenodd;stroke:none"
                     d="M 302.88572,397.17697 303.23572,396.72697 V 397.72697 C 302.83572,397.66097 302.41972,397.62697 301.98572,397.62697 301.05172,397.62697 300.41972,397.80997 300.08572,398.17697 299.98572,398.34297 299.78572,398.50997 299.48572,398.67697 299.55172,398.44397 299.66972,398.17697 299.83572,397.87697 300.10272,397.44297 300.40172,397.17697 300.73572,397.07597 301.30172,396.94397 302.01872,396.97697 302.88572,397.17697 z"
                     id="path313"
                     inkscape:connector-curvature="0" />
                <path
                     style="fill:#6d6d6d;fill-rule:evenodd;stroke:none"
                     d="M 286.28572,396.87697 C 286.81972,397.17697 287.25272,397.77597 287.58572,398.67697 L 287.03572,398.17697 C 286.70272,397.80997 286.08572,397.62697 285.18572,397.62697 L 283.88572,397.72697 V 397.17697 C 284.35272,397.04297 284.65272,397.04297 284.78572,397.17697 284.85272,397.20997 285.03572,397.12697 285.33572,396.92697 285.66972,396.72697 285.98572,396.70997 286.28572,396.87697 z"
                     id="path315"
                     inkscape:connector-curvature="0" />
                <path
                     style="fill:#6d6d6d;fill-rule:evenodd;stroke:none"
                     d="M 299.58572,397.02697 299.83572,397.07697 C 299.20272,397.67797 298.41872,398.22697 297.48572,398.72697 296.91972,399.02697 296.11872,399.24397 295.08572,399.37697 L 293.73572,399.42697 296.83572,398.52697 C 298.13572,398.05997 299.05172,397.55997 299.58572,397.02697 z"
                     id="path317"
                     inkscape:connector-curvature="0" />
            </g>
            <rect
                 y="399.02887"
                 x="244.33334"
                 height="35"
                 width="161.33333"
                 id="rect5234"
                 style="color:#000000;fill:url(#radialGradient5376);fill-opacity:1;fill-rule:evenodd;stroke:none;stroke-width:0.2;marker:none;visibility:visible;display:inline;overflow:visible;enable-background:accumulate" />
        </g>
    </g>
</svg>
