<?xml version="1.0" encoding="UTF-8" standalone="no"?>
<!-- Created with Inkscape (http://www.inkscape.org/) -->

<svg
     xmlns:dc="http://purl.org/dc/elements/1.1/"
     xmlns:cc="http://creativecommons.org/ns#"
     xmlns:rdf="http://www.w3.org/1999/02/22-rdf-syntax-ns#"
     xmlns:svg="http://www.w3.org/2000/svg"
     xmlns="http://www.w3.org/2000/svg"
     xmlns:xlink="http://www.w3.org/1999/xlink"
     xmlns:sodipodi="http://sodipodi.sourceforge.net/DTD/sodipodi-0.dtd"
     xmlns:inkscape="http://www.inkscape.org/namespaces/inkscape"
     width="99.599998"
     height="109.43331"
     id="svg3569"
     version="1.1"
     inkscape:version="0.48.5 r10040"
     sodipodi:docname="New document 1">
    <defs
         id="defs3571">
        <linearGradient
             inkscape:collect="always"
             id="linearGradient4701">
            <stop
                 style="stop-color:#000000;stop-opacity:0.4"
                 offset="0"
                 id="stop4703" />
            <stop
                 style="stop-color:#000000;stop-opacity:0;"
                 offset="1"
                 id="stop4705" />
        </linearGradient>
        <radialGradient
             inkscape:collect="always"
             xlink:href="#linearGradient4701"
             id="radialGradient4709"
             cx="463.83386"
             cy="552.14429"
             fx="463.83386"
             fy="552.14429"
             r="40.5"
             gradientTransform="matrix(1.1745062,-0.01910809,0.0035316,0.20741084,-83.183794,470.50441)"
             gradientUnits="userSpaceOnUse" />
        <radialGradient
             inkscape:collect="always"
             xlink:href="#linearGradient4701"
             id="radialGradient4803"
             gradientUnits="userSpaceOnUse"
             gradientTransform="matrix(1.1745062,-0.01910809,0.0035316,0.20741084,-83.183794,470.50441)"
             cx="463.83386"
             cy="552.14429"
             fx="463.83386"
             fy="552.14429"
             r="40.5" />
    </defs>
    <sodipodi:namedview
         id="base"
         pagecolor="#ffffff"
         bordercolor="#666666"
         borderopacity="1.0"
         inkscape:pageopacity="0.0"
         inkscape:pageshadow="2"
         inkscape:zoom="5"
         inkscape:cx="-17.479992"
         inkscape:cy="53.799975"
         inkscape:document-units="px"
         inkscape:current-layer="layer1"
         showgrid="false"
         showguides="true"
         inkscape:guide-bbox="true"
         fit-margin-top="0"
         fit-margin-left="0"
         fit-margin-right="0"
         fit-margin-bottom="0" />
    <metadata
         id="metadata3574">
        <rdf:RDF>
            <cc:Work
                 rdf:about="">
                <dc:format>image/svg+xml</dc:format>
                <dc:type
                     rdf:resource="http://purl.org/dc/dcmitype/StillImage" />
                <dc:title></dc:title>
            </cc:Work>
        </rdf:RDF>
    </metadata>
    <g
         inkscape:label="Layer 1"
         inkscape:groupmode="layer"
         id="layer1"
         transform="translate(-413.92499,-476.72885)">
        <g
             id="g4713">
            <polygon
                 transform="translate(412.225,476.72885)"
                 style="fill:#262626;fill-rule:evenodd"
                 points="96.6,5 89.8,97.85 13.35,97.8 6.1,5 "
                 id="polygon11" />
            <g
                 transform="translate(0,60)"
                 id="g3848">
                <path
                     inkscape:connector-curvature="0"
                     id="path13"
                     d="M 419.125,430.42885 418.32499,421.72885 H 508.82499 L 507.975,430.12885 C 505.20799,429.62885 501.27499,429.12885 496.175,428.62885 485.942,427.66185 474.975,427.22885 463.27499,427.32885 451.57499,427.46185 440.709,428.01185 430.675,428.97885 L 419.125,430.42885 z"
                     style="fill:#1e1e1e;fill-rule:evenodd" />
                <path
                     inkscape:connector-curvature="0"
                     id="path15"
                     d="M 418.57499,425.92885 418.32499,421.72885 H 508.82499 L 508.52499,425.67885 C 507.125,425.31185 504.35899,424.94585 500.225,424.57885 491.95799,423.87885 481.00799,423.57885 467.375,423.67885 453.74199,423.81185 441.52499,424.22885 430.725,424.92885 L 418.57499,425.92885 z"
                     style="fill:#121212;fill-rule:evenodd" />
                <rect
                     y="416.72885"
                     id="rect181"
                     height="5.4000001"
                     width="99.5"
                     style="fill:#2b2b2b;fill-rule:evenodd"
                     x="413.92499" />
                <rect
                     id="rect183"
                     height="1.45"
                     width="90.050003"
                     style="fill:#121212;fill-rule:evenodd"
                     y="424.42886"
                     x="418.67499" />
                <polygon
                     id="polygon185"
                     points="96.95,8.3 6.8,8.3 1.7,5.4 101.2,5.4 "
                     style="fill-rule:evenodd"
                     transform="translate(412.225,416.72885)" />
                <path
                     inkscape:connector-curvature="0"
                     id="path187"
                     d="M 413.925,420.67885 V 416.72885 H 513.425 L 513.52499,421.07885 C 501.65899,421.44585 484.39199,421.69585 461.725,421.82885 447.59199,421.92885 435.375,421.76185 425.07499,421.32885 L 413.925,420.67885 z"
                     style="fill:#1e1e1e;fill-rule:evenodd" />
                <rect
                     id="rect189"
                     height="0.80000001"
                     width="99.400002"
                     style="fill:#383838;fill-rule:evenodd"
                     y="421.12885"
                     x="414.12497" />
            </g>
            <g
                 transform="translate(220,0)"
                 id="g3857">
                <polygon
                     style="fill:#0a0a0a;fill-rule:evenodd"
                     points="51.6,8.75 51.7,93.55 13.1,93.55 8.25,8.75 "
                     id="polygon19"
                     transform="translate(192.225,476.72885)" />
                <polygon
                     style="fill:#212121;fill-rule:evenodd"
                     points="50.55,10.05 50.55,90.95 13.65,91.35 9.1,10.05 "
                     id="polygon21"
                     transform="translate(192.225,476.72885)" />
                <polygon
                     style="fill:#2e2e2e;fill-rule:evenodd"
                     points="49.6,11.25 49.6,89.9 14.6,90.35 10.85,11.25 "
                     id="polygon23"
                     transform="translate(192.225,476.72885)" />
                <path
                     style="fill:#2b2b2b;fill-rule:evenodd"
                     d="M 238.275,503.82885 239.57499,524.07885 C 239.675,525.91185 238.95799,528.07885 237.425,530.57885 L 237.57499,503.82885 H 238.275 z"
                     id="path25"
                     inkscape:connector-curvature="0" />
                <polygon
                     style="fill:#3b3b3b;fill-rule:evenodd"
                     points="10.85,11.25 9.1,10.05 50.55,10.05 49.6,11.25 "
                     id="polygon27"
                     transform="translate(192.225,476.72885)" />
                <polygon
                     style="fill:#141414;fill-rule:evenodd"
                     points="49.25,90.2 50.95,91.6 13.1,91.6 14.6,90.25 "
                     id="polygon29"
                     transform="translate(192.225,476.72885)" />
                <rect
                     x="202.925"
                     y="487.87885"
                     style="fill:#5e5a5b;fill-rule:evenodd"
                     width="38.450001"
                     height="0.60000002"
                     id="rect31" />
                <polygon
                     id="polygon35"
                     points="19.1,86.15 15.15,13.35 45.15,13.35 45.15,86.15 "
                     style="fill:#1c1c1c;fill-rule:evenodd"
                     transform="translate(192.225,476.72885)" />
                <polygon
                     id="polygon37"
                     points="19.1,86.15 15.6,13.35 45.15,13.35 45.15,86.15 42.9,84.5 20.25,84.5 "
                     style="fill:#121212;fill-rule:evenodd"
                     transform="translate(192.225,476.72885)" />
                <polygon
                     id="polygon39"
                     points="20.3,84.5 16.85,15 43.7,15 43.7,84.5 "
                     style="fill:#262626;fill-rule:evenodd"
                     transform="translate(192.225,476.72885)" />
                <polygon
                     id="polygon41"
                     points="16.85,15 15.6,13.65 45.15,13.35 43.4,15 "
                     style="fill-rule:evenodd"
                     transform="translate(192.225,476.72885)" />
                <rect
                     id="rect43"
                     height="0.64999998"
                     width="26.6"
                     style="fill:#404040;fill-rule:evenodd"
                     y="562.72882"
                     x="210.97499" />
                <rect
                     id="rect47"
                     height="3.6500001"
                     width="4.3000002"
                     style="fill-rule:evenodd"
                     y="532.07886"
                     x="237.27498" />
                <rect
                     id="rect49"
                     height="3.9000001"
                     width="4.0500002"
                     style="fill:#5e5e5e;fill-rule:evenodd"
                     y="531.22882"
                     x="237.12498" />
                <rect
                     id="rect51"
                     height="3.2"
                     width="3.7"
                     style="fill:#2b2b2b;fill-rule:evenodd"
                     y="531.37885"
                     x="236.925" />
                <rect
                     id="rect53"
                     height="3.95"
                     width="4.0999999"
                     style="fill:#ababab;fill-rule:evenodd"
                     y="529.97882"
                     x="236.27498" />
                <path
                     inkscape:connector-curvature="0"
                     id="path55"
                     d="M 240.57499,529.87885 C 239.108,530.84585 238.108,531.36185 237.57499,531.42885 237.20799,531.49485 236.89099,531.72885 236.625,532.12885 L 236.32499,532.72885 236.275,529.97885 240.57499,529.87885 z"
                     style="fill:#ccdbd8;fill-rule:evenodd" />
                <path
                     inkscape:connector-curvature="0"
                     id="path57"
                     d="M 240.375,533.92885 H 236.275 L 237.175,533.27885 C 237.84199,532.81285 238.375,532.57885 238.775,532.57885 239.40899,532.57885 239.942,532.17885 240.375,531.37885 V 533.92885 z"
                     style="fill:#858585;fill-rule:evenodd" />
                <polygon
                     id="polygon59"
                     points="46,54.7 48.35,53.15 48.35,54.15 "
                     style="fill:#727272;fill-rule:evenodd"
                     transform="translate(192.225,476.72885)" />
                <path
                     inkscape:connector-curvature="0"
                     id="path61"
                     d="M 240.375,533.92885 236.72499,534.12885 237.47499,533.62885 C 238.108,533.29585 238.65899,533.14585 239.125,533.17885 239.925,533.21185 240.34199,533.46185 240.375,533.92885 z"
                     style="fill:#727272;fill-rule:evenodd" />
                <path
                     inkscape:connector-curvature="0"
                     id="path63"
                     d="M 236.32499,531.32885 236.275,529.97885 239.47499,529.87885 C 238.57499,530.34585 237.89199,530.57885 237.425,530.57885 237.125,530.57885 236.858,530.71185 236.625,530.97885 L 236.32499,531.32885 z"
                     style="fill:#f0fcfa;fill-rule:evenodd" />
                <path
                     style="fill:#262626;fill-rule:evenodd"
                     d="M 207.025,549.77885 207.57499,554.52885 C 207.97499,557.76185 208.275,559.56185 208.47499,559.92885 208.775,560.52885 209.24199,560.54485 209.875,559.97885 210.175,559.71185 210.442,559.37885 210.675,558.97885 L 210.97499,563.37885 C 211.24199,563.64585 211.192,563.82785 210.82499,563.92885 210.858,564.02885 212.14099,564.36285 214.675,564.92885 217.508,565.49485 221.442,565.56185 226.47499,565.12885 226.90899,565.09485 229.05799,564.97885 232.925,564.77785 235.358,564.64485 236.775,564.42785 237.175,564.12885 237.90799,563.62885 238.042,561.91185 237.57499,558.97885 L 238.32499,560.47885 C 238.925,561.34485 239.45799,561.49585 239.925,560.92885 240.65799,560.02885 241.20799,553.07785 241.574,540.07885 L 241.47399,566.92885 206.82499,566.97885 207.025,549.77885 z"
                     id="path65"
                     inkscape:connector-curvature="0" />
                <path
                     style="fill:#262626;fill-rule:evenodd"
                     d="M 202.925,488.47885 210.32499,488.52885 C 209.758,488.86185 209.14099,489.27885 208.47499,489.77885 207.14199,490.81285 206.292,491.81285 205.925,492.77885 205.55799,493.74585 205.425,494.84585 205.525,496.07885 205.59199,496.74585 205.72499,497.59585 205.925,498.62885 206.05799,499.42885 206.008,501.11185 205.775,503.67885 205.675,504.51185 205.24199,506.96185 204.47499,511.02885 L 202.925,488.47885 z"
                     id="path67"
                     inkscape:connector-curvature="0" />
                <path
                     style="fill:#262626;fill-rule:evenodd"
                     d="M 241.175,505.57885 C 241.175,505.27885 240.925,503.97885 240.425,501.67885 239.89099,499.34585 239.542,497.99485 239.375,497.62885 239.275,497.42885 239.20799,496.24585 239.175,494.07885 239.14099,491.94585 239.025,490.66185 238.82499,490.22885 238.59199,489.76185 237.40799,489.29585 235.275,488.82885 L 232.125,488.32885 241.375,488.47885 241.925,511.42885 241.175,505.57885 z"
                     id="path69"
                     inkscape:connector-curvature="0" />
                <path
                     style="fill:#262626;fill-rule:evenodd"
                     d="M 209.025,522.72885 210.47499,544.37885 208.125,531.97885 C 207.82499,530.51185 207.875,528.52885 208.275,526.02885 L 209.025,522.72885 z"
                     id="path71"
                     inkscape:connector-curvature="0" />
                <path
                     style="fill:#262626;fill-rule:evenodd"
                     d="M 237.275,535.72885 H 241.57499 L 241.32499,537.22885 C 240.92599,538.19585 240.15899,538.67885 239.025,538.67885 238.49199,538.67885 238.05899,540.62885 237.72499,544.52885 237.55799,546.46285 237.442,548.39585 237.375,550.32885 L 237.275,535.72885 z"
                     id="path73"
                     inkscape:connector-curvature="0" />
                <path
                     style="fill:#232323;fill-rule:evenodd"
                     d="M 229.375,538.67885 C 230.24199,538.07885 231.49199,536.52885 233.125,534.02885 234.625,531.69585 235.55899,530.47885 235.925,530.37885 V 561.22885 H 212.525 L 210.82499,531.17885 C 210.89099,531.24485 211.858,532.49485 213.72499,534.92885 215.32499,537.09585 216.82499,538.42885 218.22499,538.92885 219.792,539.49485 221.89199,539.72885 224.525,539.62885 226.99199,539.49585 228.608,539.17885 229.375,538.67885 z"
                     id="path75"
                     inkscape:connector-curvature="0" />
                <path
                     style="fill:#1f1f1f;fill-rule:evenodd"
                     d="M 211.22499,543.42885 212.32499,545.82785 C 213.192,547.56085 213.97499,548.74485 214.675,549.37885 214.942,549.64585 215.82499,551.52785 217.32499,555.02785 218.55799,557.96185 219.675,559.34385 220.675,559.17785 221.442,559.04385 222.508,559.12785 223.875,559.42785 225.07499,559.66085 226.125,559.64485 227.025,559.37785 228.792,558.81085 230.72499,555.67785 232.82499,549.97785 233.125,549.17785 233.775,547.11185 234.775,543.77785 L 236.125,539.07785 235.925,561.22885 H 212.525 L 211.22499,543.42885 z"
                     id="path77"
                     inkscape:connector-curvature="0" />
                <path
                     style="fill:#232323;fill-rule:evenodd"
                     d="M 209.925,500.92885 209.07499,491.72885 H 235.625 L 235.925,500.37885 C 235.292,499.57885 234.525,498.74585 233.625,497.87885 231.792,496.17885 230.192,495.26185 228.82499,495.12885 225.39099,494.69585 221.692,494.62885 217.72499,494.92885 215.45799,495.06185 213.47499,496.11185 211.775,498.07885 L 209.925,500.92885 z"
                     id="path79"
                     inkscape:connector-curvature="0" />
                <path
                     style="fill:#1f1f1f;fill-rule:evenodd"
                     d="M 220.925,556.72885 C 221.025,558.22885 221.042,559.21185 220.97499,559.67885 221.375,559.07785 221.65899,558.62885 221.82499,558.32785 222.35099,558.85385 222.734,559.61185 222.97499,560.60285 222.90899,560.53385 222.80899,560.45785 222.675,560.37785 222.57499,560.31685 222.49099,560.25885 222.425,560.20185 222.637,560.71285 222.76999,561.31985 222.82499,562.02685 221.758,562.05985 220.64099,561.89385 219.47499,561.52685 218.14199,560.99385 217.07499,560.59285 216.275,560.32685 L 216.82499,560.02685 C 216.792,557.39385 216.82499,554.77685 216.925,552.17685 217.09199,548.24285 217.40799,545.70985 217.875,544.57585 217.97499,545.24285 218.175,547.77585 218.47499,552.17685 218.70799,555.97685 219.008,558.47685 219.375,559.67685 219.542,558.50985 219.692,557.50985 219.82499,556.67685 220.09199,555.11085 220.34199,554.17685 220.57499,553.87685 220.675,554.37885 220.792,555.32885 220.925,556.72885 z"
                     id="path81"
                     inkscape:connector-curvature="0" />
                <path
                     style="fill:#1f1f1f;fill-rule:evenodd"
                     d="M 209.47499,499.40385 209.07499,491.72885 236.175,491.87885 V 497.12885 L 234.025,493.37885 231.82499,496.57885 232.375,493.37885 C 233.47499,493.37885 231.74199,493.27885 227.175,493.07885 225.442,492.97885 223.425,492.99585 221.125,493.12885 218.39199,493.26185 215.95799,493.52885 213.82499,493.92885 211.925,494.29585 210.625,495.32885 209.925,497.02885 209.602,497.86885 209.45199,498.65985 209.47499,499.40385 z"
                     id="path83"
                     inkscape:connector-curvature="0" />
                <path
                     style="fill:#232323;fill-rule:evenodd"
                     d="M 211.675,494.22885 C 212.20799,493.59585 213.47499,493.01185 215.47499,492.47885 216.775,492.14585 218.175,491.97885 219.675,491.97885 L 223.925,492.17885 C 227.49099,492.41185 230.30799,492.99485 232.375,493.92885 235.74199,495.39485 236.49199,497.61185 234.625,500.57885 234.15899,499.87885 233.875,499.42885 233.775,499.22885 233.80899,499.76185 233.775,500.59585 233.675,501.72885 233.24099,499.86185 232.34199,498.57885 230.97499,497.87885 230.108,497.44585 228.64199,497.12885 226.57499,496.92885 225.375,496.62885 224.72499,496.47885 224.625,496.47885 224.49199,496.74585 223.99199,497.26185 223.125,498.02885 223.025,497.89585 223.07499,497.71285 223.275,497.47885 223.442,497.24585 223.47499,497.04585 223.375,496.87885 222.97499,497.47885 222.74199,497.91185 222.675,498.17885 222.64099,497.71185 222.425,497.57885 222.025,497.77885 221.858,498.51185 221.55899,499.09585 221.125,499.52885 221.025,499.19585 220.84199,499.06285 220.57499,499.12885 220.20799,499.92885 219.875,500.91185 219.57499,502.07885 219.175,500.77885 218.925,499.41185 218.82499,497.97885 218.45799,499.01185 218.05799,501.07885 217.625,504.17885 217.22499,506.91185 216.692,508.86185 216.025,510.02885 215.89199,509.69585 215.47499,507.89585 214.775,504.62885 214.275,502.16185 213.65899,500.66185 212.925,500.12885 212.792,500.32885 212.57499,500.56285 212.275,500.82885 211.942,501.12885 211.72499,501.36185 211.625,501.52885 211.49199,500.06285 211.692,498.89585 212.22499,498.02885 V 497.72885 C 212.15899,497.29585 211.875,496.64585 211.375,495.77885 211.108,495.34585 211.20799,494.82885 211.675,494.22885 z"
                     id="path85"
                     inkscape:connector-curvature="0" />
                <path
                     style="fill:#232323;fill-rule:evenodd"
                     d="M 233.175,531.02885 C 235.47499,533.36185 235.74099,536.06285 233.97499,539.12885 232.70699,541.31685 231.12399,542.68285 229.22499,543.22885 229.21799,543.14185 229.102,543.04185 228.875,542.92885 228.14199,542.56185 226.858,542.22885 225.025,541.92885 223.05899,541.59485 221.775,541.51185 221.175,541.67885 220.478,541.91085 221.12,542.50285 223.09999,543.45285 222.608,543.23985 222.13399,543.23185 221.675,543.42885 221.14099,543.66185 220.625,543.71185 220.125,543.57785 218.258,543.04485 216.84199,542.36185 215.875,541.52785 214.47499,540.29485 214.15899,538.84485 214.925,537.17785 H 214.675 C 214.64099,535.97785 214.625,535.07785 214.625,534.47785 214.625,533.37785 214.74199,532.51085 214.97499,531.87785 215.875,532.77785 216.258,534.04485 216.125,535.67785 216.792,535.07785 217.39199,534.96085 217.925,535.32785 218.39099,535.62785 218.692,536.24485 218.82499,537.17785 219.425,536.67785 220.05799,535.81085 220.72499,534.57785 221.358,535.07785 221.858,535.97785 222.22499,537.27785 222.55799,538.47785 223.125,539.31185 223.925,539.77785 224.258,539.47785 224.692,539.29485 225.22499,539.22785 225.525,539.16085 226.025,539.07785 226.72499,538.97785 227.09199,540.24485 227.15899,539.94485 226.925,538.07785 227.125,537.34485 227.192,536.29485 227.125,534.92785 227.025,533.12785 226.97499,532.07785 226.97499,531.77785 227.042,531.97785 227.358,532.27785 227.925,532.67785 228.45799,533.07785 228.758,533.39385 228.82499,533.62785 228.89099,533.39485 229.07499,531.69485 229.375,528.52785 229.608,526.42785 230.07499,524.77785 230.775,523.57785 230.608,527.17785 230.959,530.41085 231.82499,533.27785 231.925,533.01085 232.15799,532.62785 232.525,532.12785 232.858,531.62885 233.07499,531.26185 233.175,531.02885 z"
                     id="path87"
                     inkscape:connector-curvature="0" />
                <path
                     style="fill:#1f1f1f;fill-rule:evenodd"
                     d="M 231.32499,552.02885 C 231.792,556.29585 232.125,558.84485 232.32499,559.67885 231.792,559.87885 231.14099,559.99485 230.375,560.02885 229.47499,560.06185 228.792,560.07885 228.32499,560.07885 227.55799,560.77885 227.175,560.96285 227.175,560.62985 L 226.925,560.32885 C 226.925,560.09585 227.15799,558.82885 227.625,556.52885 228.125,554.16285 228.375,552.71285 228.375,552.17885 228.47499,552.67885 228.792,553.46185 229.32499,554.52885 229.65799,553.22885 229.875,549.84485 229.97499,544.37985 230.40899,545.57885 230.858,548.12885 231.32499,552.02885 z"
                     id="path89"
                     inkscape:connector-curvature="0" />
                <path
                     style="fill:#1f1f1f;fill-rule:evenodd"
                     d="M 225.72499,557.37885 C 226.15899,559.01185 226.525,559.99485 226.82499,560.32785 H 223.44999 L 224.775,554.27785 C 224.97499,554.57885 225.292,555.61285 225.72499,557.37885 z M 223.44999,560.32885 223.375,560.62885 223.125,560.32885 H 223.44999 z"
                     id="path91"
                     inkscape:connector-curvature="0" />
            </g>
            <g
                 transform="translate(140,0)"
                 id="g3894">
                <polygon
                     style="fill:#0a0a0a;fill-rule:evenodd"
                     points="89.85,93.55 51.25,93.55 51.35,8.75 94.7,8.75 "
                     id="polygon95"
                     transform="translate(272.225,476.72885)" />
                <polygon
                     style="fill:#212121;fill-rule:evenodd"
                     points="89.3,91.35 52.4,90.95 52.4,10.05 93.85,10.05 "
                     id="polygon97"
                     transform="translate(272.225,476.72885)" />
                <polygon
                     style="fill:#2e2e2e;fill-rule:evenodd"
                     points="88.35,90.35 53.35,89.9 53.35,11.25 92.1,11.25 "
                     id="polygon99"
                     transform="translate(272.225,476.72885)" />
                <path
                     style="fill:#2b2b2b;fill-rule:evenodd"
                     d="M 329.125,503.82885 H 329.82499 L 329.975,530.57885 C 329.609,529.94585 329.225,529.21185 328.82499,528.37885 328.093,526.64585 327.759,525.21185 327.82499,524.07885 L 329.125,503.82885 z"
                     id="path101"
                     inkscape:connector-curvature="0" />
                <polygon
                     style="fill:#3b3b3b;fill-rule:evenodd"
                     points="93.85,10.05 92.1,11.25 53.35,11.25 52.4,10.05 "
                     id="polygon103"
                     transform="translate(272.225,476.72885)" />
                <polygon
                     style="fill:#141414;fill-rule:evenodd"
                     points="89.85,91.6 52,91.6 53.7,90.2 88.35,90.25 "
                     id="polygon105"
                     transform="translate(272.225,476.72885)" />
                <rect
                     x="326.02499"
                     y="487.87885"
                     style="fill:#5e5a5b;fill-rule:evenodd"
                     width="38.450001"
                     height="0.60000002"
                     id="rect107" />
                <polygon
                     id="polygon111"
                     points="57.8,13.35 87.8,13.35 83.85,86.15 57.8,86.15 "
                     style="fill:#1c1c1c;fill-rule:evenodd"
                     transform="translate(272.225,476.72885)" />
                <polygon
                     id="polygon113"
                     points="60.05,84.5 57.8,86.15 57.8,13.35 87.35,13.35 83.85,86.15 82.7,84.5 "
                     style="fill:#121212;fill-rule:evenodd"
                     transform="translate(272.225,476.72885)" />
                <polygon
                     id="polygon115"
                     points="59.25,15 86.1,15 82.65,84.5 59.25,84.5 "
                     style="fill:#262626;fill-rule:evenodd"
                     transform="translate(272.225,476.72885)" />
                <polygon
                     id="polygon117"
                     points="57.8,13.35 87.35,13.65 86.1,15 59.5,15 "
                     style="fill-rule:evenodd"
                     transform="translate(272.225,476.72885)" />
                <rect
                     id="rect119"
                     height="0.64999998"
                     width="26.601"
                     style="fill:#404040;fill-rule:evenodd"
                     y="562.72882"
                     x="329.82498" />
                <rect
                     id="rect123"
                     height="3.6500001"
                     width="4.3010001"
                     style="fill-rule:evenodd"
                     y="532.07886"
                     x="325.82501" />
                <rect
                     id="rect125"
                     height="3.9000001"
                     width="4.0500002"
                     style="fill:#5e5e5e;fill-rule:evenodd"
                     y="531.22882"
                     x="326.22501" />
                <rect
                     id="rect127"
                     height="3.2"
                     width="3.75"
                     style="fill:#2b2b2b;fill-rule:evenodd"
                     y="531.37885"
                     x="326.72501" />
                <rect
                     id="rect129"
                     height="3.95"
                     width="4.1009998"
                     style="fill:#ababab;fill-rule:evenodd"
                     y="529.97882"
                     x="327.02499" />
                <path
                     inkscape:connector-curvature="0"
                     id="path131"
                     d="M 326.82499,529.87885 331.12599,529.97885 331.07499,532.72885 C 330.80799,531.96185 330.39199,531.52885 329.82499,531.42885 329.49199,531.39485 328.89199,531.12885 328.02499,530.62885 L 326.82499,529.87885 z"
                     style="fill:#ccdbd8;fill-rule:evenodd" />
                <path
                     inkscape:connector-curvature="0"
                     id="path133"
                     d="M 327.02499,533.92885 V 531.37885 L 327.475,531.97885 C 327.84199,532.37885 328.225,532.57885 328.625,532.57885 329.258,532.57885 330.09199,533.02885 331.125,533.92885 H 327.02499 z"
                     style="fill:#858585;fill-rule:evenodd" />
                <polygon
                     id="polygon135"
                     points="54.6,53.15 56.95,54.7 54.6,54.15 "
                     style="fill:#727272;fill-rule:evenodd"
                     transform="translate(272.225,476.72885)" />
                <path
                     inkscape:connector-curvature="0"
                     id="path137"
                     d="M 327.02499,533.92885 327.175,533.57885 C 327.408,533.34585 327.75799,533.21185 328.225,533.17885 329.02499,533.14485 329.84199,533.46185 330.675,534.12885 L 327.02499,533.92885 z"
                     style="fill:#727272;fill-rule:evenodd" />
                <path
                     inkscape:connector-curvature="0"
                     id="path139"
                     d="M 331.07499,531.32885 C 330.80799,530.82885 330.442,530.57885 329.975,530.57885 329.675,530.57885 329.24199,530.46185 328.675,530.22885 L 327.925,529.87885 331.125,529.97885 331.07499,531.32885 z"
                     style="fill:#f0fcfa;fill-rule:evenodd" />
                <path
                     style="fill:#262626;fill-rule:evenodd"
                     d="M 326.225,549.97885 C 326.59199,556.71185 327.00799,560.36285 327.475,560.92885 327.942,561.49485 328.475,561.34485 329.07499,560.47885 329.37599,560.04485 329.62599,559.54485 329.82499,558.97885 L 329.62599,561.27885 C 329.55799,562.87885 329.758,563.82885 330.225,564.12885 330.625,564.42885 332.49199,564.64585 335.82499,564.77785 340.359,564.94485 342.959,565.06085 343.62599,565.12885 347.42599,565.46185 350.459,565.39585 352.72599,564.92885 354.55899,564.52885 355.792,564.01185 356.42599,563.37885 L 356.72599,558.97885 357.526,559.97885 C 358.15999,560.54485 358.627,560.52885 358.92599,559.92885 359.22599,559.36285 359.709,555.97885 360.37599,549.77885 L 360.57499,566.97885 325.925,566.92885 325.82499,540.07885 326.225,549.97885 z"
                     id="path141"
                     inkscape:connector-curvature="0" />
                <path
                     style="fill:#262626;fill-rule:evenodd"
                     d="M 357.07499,488.52885 364.475,488.47885 362.925,511.02885 C 362.158,506.96285 361.725,504.51185 361.625,503.67885 361.39199,501.11185 361.34199,499.42885 361.475,498.62885 361.675,497.59585 361.80799,496.74585 361.875,496.07885 361.975,494.84585 361.84199,493.74585 361.475,492.77885 361.109,491.81285 360.258,490.81285 358.925,489.77885 L 357.07499,488.52885 z"
                     id="path143"
                     inkscape:connector-curvature="0" />
                <path
                     style="fill:#262626;fill-rule:evenodd"
                     d="M 326.225,505.57885 C 326.225,505.97885 325.975,507.92885 325.475,511.42885 L 326.02499,488.47885 335.27499,488.32885 C 334.24199,488.46185 333.192,488.62885 332.12599,488.82885 329.99199,489.29585 328.80899,489.76185 328.57499,490.22885 328.37599,490.66185 328.259,491.94585 328.225,494.07885 328.192,496.24585 328.125,497.42885 328.02499,497.62885 327.85899,497.99585 327.50799,499.34585 326.975,501.67885 326.475,503.97885 326.225,505.27885 326.225,505.57885 z"
                     id="path145"
                     inkscape:connector-curvature="0" />
                <path
                     style="fill:#262626;fill-rule:evenodd"
                     d="M 358.375,522.72885 359.125,526.02885 C 359.524,528.52885 359.57399,530.51185 359.274,531.97885 L 356.92399,544.37885 358.375,522.72885 z"
                     id="path147"
                     inkscape:connector-curvature="0" />
                <path
                     style="fill:#262626;fill-rule:evenodd"
                     d="M 330.125,535.72885 330.02499,550.32885 C 329.792,542.56185 329.24199,538.67985 328.37599,538.67985 327.242,538.67985 326.47599,538.19685 326.07499,537.22985 L 325.82499,535.72885 H 330.125 z"
                     id="path149"
                     inkscape:connector-curvature="0" />
                <path
                     style="fill:#232323;fill-rule:evenodd"
                     d="M 339.125,538.67885 C 339.89199,539.21185 341.32399,539.52885 343.425,539.62885 345.692,539.72885 347.609,539.49585 349.175,538.92885 350.57399,538.42885 352.07399,537.09585 353.675,534.92885 355.508,532.49485 356.475,531.24485 356.57399,531.17885 L 354.875,561.22885 H 331.475 V 530.37885 C 331.875,530.47885 332.99199,531.69585 334.82499,534.02885 336.859,536.56185 338.29099,538.11185 339.125,538.67885 z"
                     id="path151"
                     inkscape:connector-curvature="0" />
                <path
                     style="fill:#1f1f1f;fill-rule:evenodd"
                     d="M 356.175,543.42885 354.875,561.22885 H 331.475 L 331.27499,539.07885 332.62599,543.77885 C 333.62599,547.11285 334.27499,549.17885 334.57499,549.97885 336.67599,555.67885 338.609,558.81185 340.37599,559.37885 341.27499,559.64585 342.34299,559.66185 343.57499,559.42885 344.90899,559.12885 345.959,559.04485 346.725,559.17885 347.725,559.34485 348.84199,557.96185 350.07499,555.02885 351.542,551.56185 352.42599,549.67885 352.725,549.37985 353.82499,548.34485 354.975,546.36285 356.175,543.42885 z"
                     id="path153"
                     inkscape:connector-curvature="0" />
                <path
                     style="fill:#232323;fill-rule:evenodd"
                     d="M 334.32499,497.87885 331.475,500.37885 331.725,491.72885 H 358.32499 L 357.475,500.92885 C 357.07499,499.99485 356.442,499.04585 355.57499,498.07885 353.87599,496.11185 351.89199,495.06185 349.62599,494.92885 347.12599,494.76185 345.192,494.69585 343.82499,494.72885 342.99199,494.76185 341.609,494.89585 339.67599,495.12885 338.30799,495.26185 336.52499,496.17885 334.32499,497.87885 z"
                     id="path155"
                     inkscape:connector-curvature="0" />
                <path
                     style="fill:#1f1f1f;fill-rule:evenodd"
                     d="M 346.475,556.72885 C 346.609,555.32885 346.725,554.37885 346.82499,553.87885 347.225,554.34485 347.62599,556.27785 348.02499,559.67885 348.39199,558.47885 348.692,555.97885 348.925,552.17885 349.225,547.77885 349.425,545.24485 349.52499,544.57785 350.359,546.61185 350.709,551.76185 350.57499,560.02785 L 351.12599,560.32785 C 347.59299,561.52785 344.859,562.09485 342.92599,562.02785 343.12599,560.92785 343.30899,560.21185 343.47599,559.87885 343.643,560.11185 343.94299,560.42885 344.37599,560.82785 344.542,559.79485 344.942,558.96185 345.57499,558.32785 345.74199,558.62885 346.02499,559.07785 346.42599,559.67885 346.359,559.21185 346.375,558.22885 346.475,556.72885 z"
                     id="path157"
                     inkscape:connector-curvature="0" />
                <path
                     style="fill:#1f1f1f;fill-rule:evenodd"
                     d="M 335.57499,496.57885 333.37599,493.37885 331.225,497.12885 V 491.87885 L 358.32499,491.72885 357.925,499.40385 C 357.947,498.65985 357.798,497.86885 357.475,497.02885 356.80799,495.32885 355.508,494.29585 353.57499,493.92885 349.609,493.19585 346.05799,492.91185 342.92599,493.07885 L 335.026,493.37885 335.57499,496.57885 z"
                     id="path159"
                     inkscape:connector-curvature="0" />
                <path
                     style="fill:#232323;fill-rule:evenodd"
                     d="M 341.82499,492.17885 C 344.65899,492.04585 346.359,491.97885 346.92599,491.97885 348.959,491.97885 350.62599,492.14585 351.92599,492.47885 353.959,493.01185 355.22599,493.59585 355.72599,494.22885 356.19299,494.82885 356.30899,495.34585 356.076,495.77885 355.543,496.64585 355.24299,497.29585 355.177,497.72885 V 498.02885 C 355.71,498.89585 355.90999,500.06285 355.77699,501.52885 355.144,500.96285 354.711,500.49585 354.47699,500.12885 353.744,500.66185 353.127,502.16185 352.627,504.62885 351.927,507.89585 351.50999,509.69585 351.377,510.02885 350.71,508.86185 350.177,506.91185 349.776,504.17885 349.34299,501.07885 348.94299,499.01185 348.576,497.97885 348.47599,499.41185 348.22599,500.77885 347.826,502.07885 347.526,500.91185 347.19299,499.92885 346.826,499.12885 346.55899,499.06285 346.377,499.19585 346.276,499.52885 345.776,499.02885 345.47599,498.44585 345.377,497.77885 344.97699,497.57885 344.75999,497.71285 344.72699,498.17885 344.661,497.91185 344.427,497.47885 344.02699,496.87885 343.927,497.04585 343.711,497.24585 343.37799,497.47885 343.01099,497.71185 342.77699,497.89585 342.67799,498.02885 342.072,497.47785 341.73,497.06985 341.653,496.80385 341.44899,496.85485 341.17399,496.89585 340.82799,496.92885 338.762,497.12885 337.29499,497.44585 336.42899,497.87885 335.062,498.57885 334.162,499.86185 333.72899,501.72885 333.629,500.59585 333.596,499.76185 333.629,499.22885 333.129,499.99585 332.846,500.44585 332.778,500.57885 330.912,497.61185 331.39499,495.39485 334.228,493.92885 335.99199,492.96185 338.52499,492.37885 341.82499,492.17885 z"
                     id="path161"
                     inkscape:connector-curvature="0" />
                <path
                     style="fill:#232323;fill-rule:evenodd"
                     d="M 334.225,531.02885 C 334.32499,531.26185 334.55799,531.62885 334.925,532.12885 335.258,532.62885 335.475,533.01185 335.57399,533.27885 336.24099,531.24585 336.72399,529.66185 337.024,528.52885 337.557,526.56285 337.79099,524.91185 337.72399,523.57885 338.42399,524.77885 338.874,526.42885 339.07399,528.52885 339.408,531.82885 339.59199,533.52885 339.625,533.62885 340.024,532.79585 340.29099,532.17885 340.425,531.77885 340.45799,532.07885 340.425,533.12885 340.32399,534.92885 340.22399,536.29585 340.274,537.34585 340.47399,538.07885 340.995,538.69985 341.45299,539.14985 341.84899,539.42885 341.98799,539.35385 342.22899,539.29585 342.57399,539.25385 343.16399,538.75885 343.764,538.10085 344.375,537.27885 345.34199,535.94585 346.108,535.04585 346.675,534.57885 347.375,535.87885 348.008,536.74585 348.57399,537.17885 348.70799,536.24485 349.008,535.62885 349.47399,535.32885 350.007,534.96185 350.608,535.07885 351.274,535.67885 351.14099,534.04585 351.524,532.77885 352.42399,531.87885 352.691,532.51185 352.82299,533.37885 352.82299,534.47885 352.82299,535.07885 352.78999,535.97885 352.72299,537.17885 H 352.47299 C 353.24,538.84585 352.923,540.29585 351.523,541.52885 350.556,542.36285 349.13999,543.04585 347.273,543.57885 346.806,543.71285 346.023,543.66285 344.923,543.42985 343.90499,543.23285 343.148,543.24885 342.648,543.47985 344.62999,542.51185 345.489,541.91285 345.22299,541.67985 345.023,541.47985 344.25599,541.56285 342.923,541.92985 341.62299,542.26285 340.84,542.59585 340.572,542.92985 340.49799,543.01985 340.48099,543.09485 340.52199,543.15485 338.47299,542.59285 336.556,541.25185 334.77199,539.12985 332.14199,536.02885 331.95799,533.32885 334.225,531.02885 z"
                     id="path163"
                     inkscape:connector-curvature="0" />
                <path
                     style="fill:#1f1f1f;fill-rule:evenodd"
                     d="M 336.625,552.02885 C 337.39199,548.19585 338.008,545.64585 338.475,544.37985 338.57499,549.67985 338.80799,553.06285 339.175,554.52885 339.70799,553.46285 340.02499,552.67885 340.125,552.17885 340.158,553.21185 340.274,555.92885 340.475,560.32785 L 340.175,560.62885 V 560.07885 C 339.07399,560.07885 338.20799,560.06185 337.57399,560.02885 336.441,559.99585 335.608,559.87985 335.07399,559.67885 335.20799,559.21185 335.725,556.66285 336.625,552.02885 z"
                     id="path165"
                     inkscape:connector-curvature="0" />
                <path
                     style="fill:#1f1f1f;fill-rule:evenodd"
                     d="M 344.375,557.37885 C 343.941,559.01185 343.57399,559.99485 343.274,560.32785 H 342.625 L 342.375,560.62885 C 342.34199,560.49485 342.858,559.51185 343.925,557.67885 344.21399,557.17385 344.456,556.72385 344.64999,556.32785 344.56899,556.64185 344.47699,556.99185 344.375,557.37885 z"
                     id="path167"
                     inkscape:connector-curvature="0" />
            </g>
            <g
                 transform="translate(0,-100)"
                 id="g3841">
                <rect
                     x="423.02499"
                     y="671.97882"
                     style="fill:#262626;fill-rule:evenodd"
                     width="81.600998"
                     height="3.95"
                     id="rect171" />
                <polygon
                     style="fill:#383838;fill-rule:evenodd"
                     points="92.4,95.4 10.8,95.4 13.15,94.45 90.2,94.55 "
                     id="polygon173"
                     transform="translate(412.225,576.72885)" />
                <rect
                     x="423.02499"
                     y="671.97882"
                     style="fill:#5e5a5b;fill-rule:evenodd"
                     width="81.449997"
                     height="0.5"
                     id="rect175" />
                <path
                     style="fill:#1e1e1e;fill-rule:evenodd"
                     d="M 473.175,675.02885 C 482.375,675.02885 488.475,675.09485 491.475,675.22885 496.30799,675.42885 500.692,675.14585 504.625,674.37885 V 675.92885 H 423.175 V 674.37885 L 424.875,674.67885 C 426.30899,674.84485 427.80899,674.92885 429.375,674.92885 L 456.52499,675.07885 C 458.225,675.07885 463.77499,675.06185 473.175,675.02885 z"
                     id="path177"
                     inkscape:connector-curvature="0" />
                <polygon
                     style="fill:#121212;fill-rule:evenodd"
                     points="92.3,100.6 10.8,100.6 10.8,99.25 92.45,99.05 "
                     id="polygon179"
                     transform="translate(412.225,576.72885)" />
            </g>
            <rect
                 ry="0"
                 y="574.96216"
                 x="418.80002"
                 height="11.2"
                 width="89"
                 id="rect3931"
                 style="color:#000000;fill:url(#radialGradient4803);fill-opacity:1;fill-rule:evenodd;stroke:none;stroke-width:1;marker:none;visibility:visible;display:inline;overflow:visible;enable-background:accumulate" />
        </g>
    </g>
</svg>
