<?xml version="1.0" encoding="UTF-8" standalone="no"?>
<!-- Created with Inkscape (http://www.inkscape.org/) -->

<svg
     xmlns:dc="http://purl.org/dc/elements/1.1/"
     xmlns:cc="http://creativecommons.org/ns#"
     xmlns:rdf="http://www.w3.org/1999/02/22-rdf-syntax-ns#"
     xmlns:svg="http://www.w3.org/2000/svg"
     xmlns="http://www.w3.org/2000/svg"
     xmlns:xlink="http://www.w3.org/1999/xlink"
     xmlns:sodipodi="http://sodipodi.sourceforge.net/DTD/sodipodi-0.dtd"
     xmlns:inkscape="http://www.inkscape.org/namespaces/inkscape"
     width="169"
     height="198.01733"
     id="svg3880"
     version="1.1"
     inkscape:version="0.48.5 r10040"
     sodipodi:docname="GlitchSimplifiedBlackOnyxCabinet.svg">
    <defs
         id="defs3882">
        <linearGradient
             inkscape:collect="always"
             id="linearGradient5414">
            <stop
                 style="stop-color:#0b0b0b;stop-opacity:0.4"
                 offset="0"
                 id="stop5416" />
            <stop
                 style="stop-color:#0b0b0b;stop-opacity:0;"
                 offset="1"
                 id="stop5418" />
        </linearGradient>
        <linearGradient
             id="SVGID_1_"
             gradientUnits="userSpaceOnUse"
             x1="16.209999"
             y1="69.730003"
             x2="18.639999"
             y2="69.730003"
             gradientTransform="matrix(0.9974,-0.072,0.072,0.9974,0,0)">
            <stop
                 offset="0.0118"
                 style="stop-color:#808080"
                 id="stop158" />
            <stop
                 offset="0.2824"
                 style="stop-color:#A3A3A3"
                 id="stop160" />
            <stop
                 offset="1"
                 style="stop-color:#404040"
                 id="stop162" />
        </linearGradient>
        <linearGradient
             id="SVGID_2_"
             gradientUnits="userSpaceOnUse"
             x1="16.43"
             y1="141"
             x2="18.860001"
             y2="141"
             gradientTransform="matrix(0.9974,-0.072,0.072,0.9974,0,0)">
            <stop
                 offset="0.0118"
                 style="stop-color:#808080"
                 id="stop167" />
            <stop
                 offset="0.2824"
                 style="stop-color:#A3A3A3"
                 id="stop169" />
            <stop
                 offset="1"
                 style="stop-color:#404040"
                 id="stop171" />
        </linearGradient>
        <linearGradient
             id="SVGID_3_"
             gradientUnits="userSpaceOnUse"
             x1="146.89999"
             y1="68.389999"
             x2="144.39999"
             y2="68.209999">
            <stop
                 offset="0.0118"
                 style="stop-color:#808080"
                 id="stop252" />
            <stop
                 offset="0.2824"
                 style="stop-color:#A3A3A3"
                 id="stop254" />
            <stop
                 offset="1"
                 style="stop-color:#404040"
                 id="stop256" />
        </linearGradient>
        <linearGradient
             id="SVGID_4_"
             gradientUnits="userSpaceOnUse"
             x1="141.5"
             y1="139.5"
             x2="139"
             y2="139.3">
            <stop
                 offset="0.0118"
                 style="stop-color:#808080"
                 id="stop261" />
            <stop
                 offset="0.2824"
                 style="stop-color:#A3A3A3"
                 id="stop263" />
            <stop
                 offset="1"
                 style="stop-color:#404040"
                 id="stop265" />
        </linearGradient>
        <linearGradient
             inkscape:collect="always"
             xlink:href="#SVGID_3_"
             id="linearGradient4495"
             gradientUnits="userSpaceOnUse"
             gradientTransform="matrix(2,0,0,2,596.1,284.55503)"
             x1="146.89999"
             y1="68.389999"
             x2="144.39999"
             y2="68.209999" />
        <linearGradient
             inkscape:collect="always"
             xlink:href="#SVGID_4_"
             id="linearGradient4497"
             gradientUnits="userSpaceOnUse"
             gradientTransform="matrix(2,0,0,2,596.1,284.55503)"
             x1="141.5"
             y1="139.5"
             x2="139"
             y2="139.3" />
        <linearGradient
             inkscape:collect="always"
             xlink:href="#SVGID_1_"
             id="linearGradient4499"
             gradientUnits="userSpaceOnUse"
             gradientTransform="matrix(1.9948,-0.144,0.144,1.9948,476.1,284.55503)"
             x1="16.209999"
             y1="69.730003"
             x2="18.639999"
             y2="69.730003" />
        <linearGradient
             inkscape:collect="always"
             xlink:href="#SVGID_2_"
             id="linearGradient4501"
             gradientUnits="userSpaceOnUse"
             gradientTransform="matrix(1.9948,-0.144,0.144,1.9948,476.1,284.55503)"
             x1="16.43"
             y1="141"
             x2="18.860001"
             y2="141" />
        <radialGradient
             inkscape:collect="always"
             xlink:href="#linearGradient5414"
             id="radialGradient5420"
             cx="213.11476"
             cy="691.45453"
             fx="213.11476"
             fy="691.45453"
             r="142.62296"
             gradientTransform="matrix(1,0,0,0.25287355,8.9180328,516.69797)"
             gradientUnits="userSpaceOnUse" />
        <radialGradient
             inkscape:collect="always"
             xlink:href="#linearGradient5414"
             id="radialGradient5573"
             gradientUnits="userSpaceOnUse"
             gradientTransform="matrix(1,0,0,0.25287355,8.9180328,516.69797)"
             cx="213.11476"
             cy="691.45453"
             fx="213.11476"
             fy="691.45453"
             r="142.62296" />
        <linearGradient
             inkscape:collect="always"
             xlink:href="#SVGID_1_"
             id="linearGradient5575"
             gradientUnits="userSpaceOnUse"
             gradientTransform="matrix(1.9948,-0.144,0.144,1.9948,476.1,284.55503)"
             x1="16.209999"
             y1="69.730003"
             x2="18.639999"
             y2="69.730003" />
        <linearGradient
             inkscape:collect="always"
             xlink:href="#SVGID_2_"
             id="linearGradient5577"
             gradientUnits="userSpaceOnUse"
             gradientTransform="matrix(1.9948,-0.144,0.144,1.9948,476.1,284.55503)"
             x1="16.43"
             y1="141"
             x2="18.860001"
             y2="141" />
        <linearGradient
             inkscape:collect="always"
             xlink:href="#SVGID_3_"
             id="linearGradient5579"
             gradientUnits="userSpaceOnUse"
             gradientTransform="matrix(2,0,0,2,596.1,284.55503)"
             x1="146.89999"
             y1="68.389999"
             x2="144.39999"
             y2="68.209999" />
        <linearGradient
             inkscape:collect="always"
             xlink:href="#SVGID_4_"
             id="linearGradient5581"
             gradientUnits="userSpaceOnUse"
             gradientTransform="matrix(2,0,0,2,596.1,284.55503)"
             x1="141.5"
             y1="139.5"
             x2="139"
             y2="139.3" />
    </defs>
    <sodipodi:namedview
         id="base"
         pagecolor="#ffffff"
         bordercolor="#666666"
         borderopacity="1.0"
         inkscape:pageopacity="0.0"
         inkscape:pageshadow="2"
         inkscape:zoom="1.22"
         inkscape:cx="167.59836"
         inkscape:cy="117.54102"
         inkscape:document-units="px"
         inkscape:current-layer="layer1"
         showgrid="false"
         fit-margin-top="0"
         fit-margin-left="0"
         fit-margin-right="0"
         fit-margin-bottom="0" />
    <metadata
         id="metadata3885">
        <rdf:RDF>
            <cc:Work
                 rdf:about="">
                <dc:format>image/svg+xml</dc:format>
                <dc:type
                     rdf:resource="http://purl.org/dc/dcmitype/StillImage" />
                <dc:title />
            </cc:Work>
        </rdf:RDF>
    </metadata>
    <g
         inkscape:label="Layer 1"
         inkscape:groupmode="layer"
         id="layer1"
         transform="translate(-36.499996,-528.93503)">
        <g
             id="g5422"
             transform="matrix(0.50118622,0,0,0.50118622,18.206701,362.61386)">
            <rect
                 y="654.82123"
                 x="63.016396"
                 height="72.131142"
                 width="285.24591"
                 id="rect4644"
                 style="color:#000000;fill:url(#radialGradient5573);fill-opacity:1;fill-rule:evenodd;stroke:none;stroke-width:0.2;marker:none;visibility:visible;display:inline;overflow:visible;enable-background:accumulate" />
            <g
                 transform="translate(0,-192)"
                 id="g4595">
                <path
                     id="path3703"
                     d="M 74.4,907.15503 88.1,898.05503 C 115.034,895.32103 131.134,894.48903 136.4,895.55503 139.666,896.28903 139.6,898.28903 136.2,901.55503 L 130.1,906.35503 74.4,907.15503 z"
                     style="opacity:0.25;fill-rule:evenodd"
                     inkscape:connector-curvature="0" />
                <path
                     id="path3697"
                     d="M 336.7,906.35503 281,905.55503 C 278.666,904.02103 276.634,902.42103 274.9,900.75503 271.5,897.42103 271.434,895.42103 274.7,894.75503 279.966,893.62103 296.034,894.45503 322.9,897.25503 L 336.7,906.35503 z"
                     style="opacity:0.25;fill-rule:evenodd"
                     inkscape:connector-curvature="0" />
            </g>
            <polygon
                 transform="matrix(2,0,0,2,36.10001,284.55504)"
                 style="fill:#262626;fill-rule:evenodd"
                 points="31.35,202.7 17.8,44.3 149.8,44.3 136.2,202.7 "
                 id="polygon27" />
            <g
                 transform="translate(0,-182)"
                 id="g4563">
                <rect
                     id="rect35"
                     height="16.299999"
                     width="233.60001"
                     style="fill:#2b2b2b;fill-rule:evenodd"
                     y="854.55505"
                     x="87.600006" />
                <rect
                     id="rect37"
                     height="11.6"
                     width="259.20001"
                     style="fill:#2b2b2b;fill-rule:evenodd"
                     y="867.15503"
                     x="74.899994" />
                <path
                     inkscape:connector-curvature="0"
                     id="path41"
                     d="M 157.6,876.55503 C 154.2,876.95503 150.3,877.55503 145.9,878.55503 137.1,880.35503 130.24,882.55503 125.3,884.95503 120.36,887.15503 117.16,889.55503 115.7,891.95503 L 115.1,894.55503 H 82.9 L 84.6,876.35503 H 157.6 z"
                     style="fill:#2b2b2b;fill-rule:evenodd" />
                <path
                     inkscape:connector-curvature="0"
                     id="path43"
                     d="M 132.1,877.15503 122.6,881.35503 C 121.26,881.95503 119.94,883.35503 118.6,885.35503 L 117,888.35503 C 111.74,886.55503 106.44,885.55503 101.1,885.55503 97.84,885.55503 94.06,885.75503 89.8,885.95503 L 84.4,886.35503 84.6,876.55503 132.1,877.15503 z"
                     style="fill:#1e1e1e;fill-rule:evenodd" />
                <polygon
                     id="polygon45"
                     points="40.85,209.1 23.8,209.1 23.8,207 47.25,206.7 "
                     style="fill:#121212;fill-rule:evenodd"
                     transform="matrix(2,0,0,2,36.10001,464.55504)" />
                <polygon
                     id="polygon47"
                     points="136.8,193.6 142.6,195.2 25.75,195.4 30.8,193.6 "
                     style="fill:#383838;fill-rule:evenodd"
                     transform="matrix(2,0,0,2,36.10001,464.55504)" />
                <polygon
                     id="polygon49"
                     points="141.1,199.4 149,201.3 19.4,201.3 25.75,199.4 "
                     style="fill:#383838;fill-rule:evenodd"
                     transform="matrix(2,0,0,2,36.10001,464.55504)" />
                <path
                     inkscape:connector-curvature="0"
                     id="path51"
                     d="M 293.9,861.15503 C 300.5,861.15503 307.1,860.15503 313.7,858.35503 316.9,857.35503 319.5,856.35503 321.5,855.55503 V 863.35503 H 87.6 V 855.55503 L 89.3,857.95503 C 91.1,859.55503 93.54,860.75503 96.6,861.15503 100.2,861.55503 113.34,861.55503 136,861.35503 158.14,860.95503 172.56,860.55503 179.3,860.15503 184.36,859.75503 203.06,859.75503 235.4,860.35503 252.1,860.55503 271.5,860.75503 293.9,861.15503 z"
                     style="fill:#1e1e1e;fill-rule:evenodd" />
                <rect
                     id="rect53"
                     height="1.298"
                     width="233.60001"
                     style="fill:#5e5a5b;fill-rule:evenodd"
                     y="853.95502"
                     x="87.600006" />
                <rect
                     id="rect55"
                     height="1.3"
                     width="260.20001"
                     style="fill:#5e5a5b;fill-rule:evenodd"
                     y="866.95502"
                     x="73.800018" />
                <path
                     inkscape:connector-curvature="0"
                     id="path57"
                     d="M 227.5,875.15503 C 233.5,874.55503 250.1,874.15503 277.5,874.15503 305.1,873.95503 319.9,873.95503 322.1,873.75503 325.7,873.35503 328.9,872.15503 331.5,870.15503 332.7,869.15503 333.5,868.15503 334.1,867.15503 V 878.75503 H 73.8 V 868.35503 L 76.6,870.35503 C 78.66,871.95503 80.24,873.15503 81.3,874.35503 82.36,875.55503 85.54,875.95503 90.8,875.55503 93.86,875.55503 99.16,875.15503 106.7,874.35503 111.1,874.15503 119.76,874.15503 132.7,874.55503 148.5,874.95503 156.8,875.15503 157.6,875.15503 160.8,875.15503 171.66,875.15503 190.2,875.55503 208.54,875.75503 220.96,875.75503 227.5,875.15503 z"
                     style="fill:#1e1e1e;fill-rule:evenodd" />
                <path
                     inkscape:connector-curvature="0"
                     id="path67"
                     d="M 126.1,878.95503 C 128.24,878.15503 130.24,877.55503 132.1,877.15503 L 143.3,877.95503 C 139.44,878.35503 136.34,879.55503 134,881.35503 132.54,882.55503 131.3,883.95503 130.3,885.35503 L 129.3,886.95503 115.1,894.75503 C 115.16,893.75503 115.34,892.75503 115.6,891.75503 116.06,889.35503 116.76,887.15503 117.7,885.55503 119.1,882.95503 121.9,880.75503 126.1,878.95503 z"
                     style="fill-rule:evenodd" />
                <path
                     inkscape:connector-curvature="0"
                     id="path69"
                     d="M 118.4,883.95503 C 120.34,881.75503 123.66,879.95503 128.4,878.35503 124.34,879.95503 121.26,881.95503 119.2,884.35503 118.34,885.35503 117.4,887.35503 116.4,890.35503 115.86,891.95503 115.44,893.35503 115.1,894.55503 115.16,893.35503 115.34,892.15503 115.6,890.55503 116.2,887.55503 117.14,885.35503 118.4,883.95503 z"
                     style="fill:#5e5a5b;fill-rule:evenodd" />
                <path
                     inkscape:connector-curvature="0"
                     id="path71"
                     d="M 251.5,876.55503 H 324.5 L 326.1,894.55503 H 293.9 C 294.1,893.95503 293.9,892.95503 293.1,891.95503 291.7,889.55503 288.7,887.15503 283.7,884.95503 278.7,882.55503 271.9,880.35503 263.1,878.55503 L 251.5,876.55503 z"
                     style="fill:#2b2b2b;fill-rule:evenodd" />
                <path
                     inkscape:connector-curvature="0"
                     id="path73"
                     d="M 324.5,886.35503 C 318.7,885.75503 313.1,885.55503 307.7,885.55503 304.5,885.55503 300.9,885.95503 296.9,886.95503 L 291.9,888.35503 C 290.3,884.55503 288.5,882.35503 286.3,881.35503 L 276.7,877.15503 324.3,876.35503 324.5,886.35503 z"
                     style="fill:#1e1e1e;fill-rule:evenodd" />
                <polygon
                     id="polygon75"
                     points="126.7,209.1 120.3,206.7 143.8,207 143.8,209.1 "
                     style="fill:#121212;fill-rule:evenodd"
                     transform="matrix(2,0,0,2,36.10001,464.55504)" />
                <path
                     inkscape:connector-curvature="0"
                     id="path77"
                     d="M 282.7,878.95503 C 287.1,880.75503 289.9,882.95503 291.3,885.55503 292.7,888.15503 293.5,891.35503 293.9,894.75503 L 279.7,886.95503 C 278.9,885.15503 277.3,883.15503 275.1,881.35503 273.5,880.15503 271.5,879.35503 269.1,878.55503 L 265.7,877.95503 276.7,877.15503 282.7,878.95503 z"
                     style="fill-rule:evenodd" />
                <path
                     inkscape:connector-curvature="0"
                     id="path79"
                     d="M 284.5,879.95503 C 287.3,881.15503 289.5,882.55503 290.5,883.75503 292.7,886.15503 293.7,889.75503 293.9,894.55503 292.5,889.35503 291.1,885.95503 289.7,884.35503 288.5,882.95503 286.5,881.55503 284.1,879.95503 L 280.5,878.35503 284.5,879.95503 z"
                     style="fill:#5e5a5b;fill-rule:evenodd" />
            </g>
            <g
                 transform="translate(0,-120)"
                 id="g4503">
                <rect
                     x="88.399994"
                     y="735.35504"
                     style="fill:#262626;fill-rule:evenodd"
                     width="232.2"
                     height="8.6000004"
                     id="rect273" />
                <polygon
                     style="fill:#383838;fill-rule:evenodd"
                     points="29.55,164.2 139.1,164.3 142.2,165.6 26.15,165.6 "
                     id="polygon275"
                     transform="matrix(2,0,0,2,36.10001,404.55504)" />
                <rect
                     x="88.399994"
                     y="735.35504"
                     style="fill:#5e5a5b;fill-rule:evenodd"
                     width="231.8"
                     height="1.398"
                     id="rect277" />
                <path
                     style="fill:#1e1e1e;fill-rule:evenodd"
                     d="M 285.1,741.95503 C 294.1,742.15503 302.5,741.95503 310.9,740.95503 314.9,740.55503 318.1,739.95503 320.7,739.55503 V 743.95503 H 88.8 V 739.55503 L 93.7,740.15503 C 97.9,740.75503 102.3,740.95503 106.9,740.95503 L 183.2,741.35503 C 188.14,741.35503 204.34,741.35503 231.8,741.35503 258.5,741.35503 276.5,741.55503 285.1,741.95503 z"
                     id="path279"
                     inkscape:connector-curvature="0" />
                <polygon
                     style="fill:#121212;fill-rule:evenodd"
                     points="140.1,171.8 28.95,171.8 28.75,169.5 140.2,169.5 "
                     id="polygon281"
                     transform="matrix(2,0,0,2,36.10001,404.55504)" />
            </g>
            <g
                 id="g4482">
                <path
                     inkscape:connector-curvature="0"
                     id="path29"
                     d="M 333.3,397.75503 C 325.3,396.29503 313.7,394.81503 298.9,393.35503 269.1,390.49503 237.1,389.21503 202.9,389.55503 168.76,389.89503 137.06,391.49503 107.8,394.35503 L 74.1,398.55503 71.7,373.15503 H 335.7 L 333.3,397.75503 z"
                     style="fill:#1e1e1e;fill-rule:evenodd" />
                <rect
                     id="rect33"
                     height="19.700001"
                     width="335.60001"
                     style="fill:#2b2b2b;fill-rule:evenodd"
                     y="348.45505"
                     x="36.700008" />
                <polygon
                     id="polygon39"
                     points="149.8,44.3 17.8,44.3 1.1,41 168.8,41 "
                     style="fill-rule:evenodd"
                     transform="matrix(2,0,0,2,36.10001,284.55504)" />
                <path
                     inkscape:connector-curvature="0"
                     id="path61"
                     d="M 335.7,373.15503 334.9,384.65503 C 330.7,383.59503 322.7,382.51503 310.7,381.45503 286.5,379.39503 254.5,378.51503 214.8,378.85503 175.06,379.19503 139.44,380.39503 107.9,382.45503 L 72.5,385.45503 71.7,373.15503 H 335.7 z"
                     style="fill:#121212;fill-rule:evenodd" />
                <path
                     inkscape:connector-curvature="0"
                     id="path63"
                     d="M 369.5,353.65503 C 371.1,351.85503 371.9,350.11503 372.1,348.45503 V 366.55503 H 36.7 V 348.45503 L 40.1,353.55503 C 42.766,356.95503 45.1,358.81503 47.1,359.15503 49.9,359.61503 60.44,360.11503 78.7,360.65503 98.16,361.19503 112.26,361.25503 121,360.85503 127.54,360.51503 152.46,360.65503 195.8,361.25503 239.3,361.79503 264.3,361.91503 270.5,361.65503 274.7,361.45503 289.3,361.29503 314.5,361.15503 336.1,361.01503 349.7,360.61503 355.5,359.95503 361.7,359.29503 366.5,357.19503 369.5,353.65503 z"
                     style="fill:#1e1e1e;fill-rule:evenodd" />
                <rect
                     id="rect65"
                     height="1.5"
                     width="334.79999"
                     style="fill:#5e5a5b;fill-rule:evenodd"
                     y="348.95505"
                     x="36.499996" />
                <rect
                     id="rect283"
                     height="10.3"
                     width="290.20001"
                     style="fill:#2b2b2b;fill-rule:evenodd"
                     y="369.45505"
                     x="58.999996" />
                <rect
                     id="rect285"
                     height="4.1999998"
                     width="262.60001"
                     style="fill:#121212;fill-rule:evenodd"
                     y="381.05502"
                     x="72.800018" />
                <polygon
                     id="polygon287"
                     points="150.3,49.1 18.85,49.1 11.45,47.6 156.6,47.6 "
                     style="fill-rule:evenodd"
                     transform="matrix(2,0,0,2,36.10001,284.55504)" />
                <path
                     inkscape:connector-curvature="0"
                     id="path289"
                     d="M 349.3,369.45503 349.5,376.65503 C 340.7,375.99503 327.9,375.35503 311.1,374.75503 277.3,373.55503 239.7,373.09503 198.4,373.35503 157.14,373.55503 121.5,373.99503 91.5,374.65503 L 59,375.55503 V 369.45503 H 349.3 z"
                     style="fill:#1e1e1e;fill-rule:evenodd" />
                <rect
                     id="rect291"
                     height="2.5"
                     width="289.79999"
                     style="fill:#383838;fill-rule:evenodd"
                     y="376.75504"
                     x="59.499996" />
            </g>
            <g
                 transform="translate(-440,0)"
                 id="g4386">
                <polygon
                     style="fill:#0a0a0a;fill-rule:evenodd"
                     points="84.2,49.8 84.35,162.8 29.45,162.8 21,49.8 "
                     id="polygon83"
                     transform="matrix(2,0,0,2,476.1,284.55504)" />
                <polygon
                     style="fill:#212121;fill-rule:evenodd"
                     points="82.65,51.7 82.65,159.1 30.35,159.7 22.2,51.7 "
                     id="polygon85"
                     transform="matrix(2,0,0,2,476.1,284.55504)" />
                <polygon
                     style="fill:#2e2e2e;fill-rule:evenodd"
                     points="81.25,53.4 81.25,157.6 31.7,158.2 24.8,53.4 "
                     id="polygon87"
                     transform="matrix(2,0,0,2,476.1,284.55504)" />
                <path
                     style="fill:#2b2b2b;fill-rule:evenodd"
                     d="M 628.3,437.95503 630,452.95503 C 631.14,463.55503 631.8,470.51503 632,473.85503 632.26,477.11503 631.3,481.29503 629.1,486.35503 628.04,488.95503 626.94,491.15503 625.8,492.95503 L 626.2,437.95503 H 628.3 z"
                     id="path89"
                     inkscape:connector-curvature="0" />
                <polygon
                     style="fill:#3b3b3b;fill-rule:evenodd"
                     points="81.25,53.4 24.8,53.4 22.2,51.7 82.65,51.7 "
                     id="polygon91"
                     transform="matrix(2,0,0,2,476.1,284.55504)" />
                <polygon
                     style="fill:#141414;fill-rule:evenodd"
                     points="31.7,158 80.75,158 83.25,160.1 29.5,160.1 "
                     id="polygon93"
                     transform="matrix(2,0,0,2,476.1,284.55504)" />
                <rect
                     x="525.20001"
                     y="391.15503"
                     style="fill:#5e5a5b;fill-rule:evenodd"
                     width="112.1"
                     height="1.7"
                     id="rect95" />
                <polygon
                     id="polygon99"
                     points="36.8,152.1 31,56.55 74.8,56.55 74.8,152.1 "
                     style="fill:#1c1c1c;fill-rule:evenodd"
                     transform="matrix(2,0,0,2,476.1,284.55504)" />
                <polygon
                     id="polygon101"
                     points="36.8,152.1 31.75,56.55 74.8,56.55 74.8,152.1 71.45,149.6 38.5,149.6 "
                     style="fill:#121212;fill-rule:evenodd"
                     transform="matrix(2,0,0,2,476.1,284.55504)" />
                <polygon
                     id="polygon103"
                     points="38.55,149.6 33.55,58.95 72.65,58.95 72.65,149.6 "
                     style="fill:#262626;fill-rule:evenodd"
                     transform="matrix(2,0,0,2,476.1,284.55504)" />
                <polygon
                     id="polygon105"
                     points="31.75,56.95 74.8,56.55 72.25,58.95 33.55,58.95 "
                     style="fill-rule:evenodd"
                     transform="matrix(2,0,0,2,476.1,284.55504)" />
                <rect
                     id="rect107"
                     height="1.9"
                     width="77.5"
                     style="fill:#404040;fill-rule:evenodd"
                     y="588.15503"
                     x="548.70001" />
                <rect
                     id="rect111"
                     height="10.702"
                     width="12.5"
                     style="fill-rule:evenodd"
                     y="497.15506"
                     x="625.39996" />
                <rect
                     id="rect113"
                     height="11.6"
                     width="11.9"
                     style="fill:#5e5e5e;fill-rule:evenodd"
                     y="494.75504"
                     x="624.89996" />
                <rect
                     id="rect115"
                     height="9.3000002"
                     width="10.8"
                     style="fill:#2b2b2b;fill-rule:evenodd"
                     y="495.15506"
                     x="624.39996" />
                <rect
                     id="rect117"
                     height="11.5"
                     width="11.9"
                     style="fill:#ababab;fill-rule:evenodd"
                     y="491.15506"
                     x="622.5" />
                <path
                     inkscape:connector-curvature="0"
                     id="path119"
                     d="M 634.9,490.95503 C 630.7,493.55503 627.8,495.15503 626.2,495.35503 625.2,495.55503 624.3,496.15503 623.5,497.35503 L 622.6,498.95503 622.5,491.15503 634.9,490.95503 z"
                     style="fill:#ccdbd8;fill-rule:evenodd" />
                <path
                     inkscape:connector-curvature="0"
                     id="path121"
                     d="M 634.4,502.55503 H 622.5 L 625.1,500.55503 C 627.1,499.35503 628.66,498.55503 629.8,498.55503 631.66,498.55503 633.2,497.55503 634.4,495.15503 V 502.55503 z"
                     style="fill:#858585;fill-rule:evenodd" />
                <polygon
                     id="polygon123"
                     points="79.4,104.6 76.05,105.4 79.4,103.2 "
                     style="fill:#727272;fill-rule:evenodd"
                     transform="matrix(2,0,0,2,476.1,284.55504)" />
                <path
                     inkscape:connector-curvature="0"
                     id="path125"
                     d="M 634.4,502.55503 623.8,503.15503 626,501.95503 C 627.8,500.95503 629.4,500.35503 630.8,500.55503 632.26,500.55503 633.3,500.95503 633.9,501.75503 634.24,501.95503 634.4,502.35503 634.4,502.55503 z"
                     style="fill:#727272;fill-rule:evenodd" />
                <path
                     inkscape:connector-curvature="0"
                     id="path127"
                     d="M 622.6,494.95503 622.5,491.15503 631.8,490.95503 C 629.14,492.15503 627.14,492.95503 625.8,492.95503 625,492.95503 624.24,493.35503 623.5,493.95503 L 622.6,494.95503 z"
                     style="fill:#f0fcfa;fill-rule:evenodd" />
                <path
                     style="fill:#262626;fill-rule:evenodd"
                     d="M 537.2,550.75503 538.8,560.35503 C 540,566.95503 540.86,570.75503 541.4,571.75503 542.26,573.35503 543.6,573.55503 545.4,571.95503 546.26,571.15503 547.06,570.15503 547.8,568.95503 L 548.7,590.15503 551.1,591.75503 C 553.36,592.95503 556.14,593.75503 559.4,594.55503 563.26,595.35503 568.56,595.75503 575.3,595.95503 581.56,595.95503 587.76,595.75503 593.9,595.15503 595.5,594.95503 601.76,594.75503 612.7,594.15503 619.76,593.75503 623.9,593.15503 625.1,592.35503 626.44,591.35503 627.04,587.15503 626.9,579.75503 L 626.2,568.95503 628.5,573.35503 C 630.24,575.95503 631.76,576.35503 633.1,574.75503 634.44,572.95503 635.64,563.95503 636.7,547.55503 L 637.9,523.35503 637.6,600.55503 H 539.5 L 537.2,550.75503 z"
                     id="path129"
                     inkscape:connector-curvature="0" />
                <path
                     style="fill:#262626;fill-rule:evenodd"
                     d="M 525.2,392.85503 546.7,392.95503 C 545.04,393.89503 543.24,395.11503 541.3,396.65503 537.5,399.71503 535.06,402.65503 534,405.45503 532.86,408.31503 532.46,411.51503 532.8,415.05503 533,417.05503 533.4,419.55503 534,422.55503 534.34,425.41503 534.16,430.35503 533.5,437.35503 533.24,439.89503 531.96,447.11503 529.7,459.05503 L 525.2,392.85503 z"
                     id="path131"
                     inkscape:connector-curvature="0" />
                <path
                     style="fill:#262626;fill-rule:evenodd"
                     d="M 630.9,409.35503 C 630.84,403.01503 630.5,399.25503 629.9,398.05503 629.24,396.65503 625.76,395.29503 619.5,393.95503 L 610.3,392.35503 637.3,392.85503 638.9,460.15503 636.8,443.05503 C 636.8,442.11503 636.06,438.29503 634.6,431.55503 633.06,424.69503 632.04,420.75503 631.5,419.75503 631.16,419.09503 630.96,415.61503 630.9,409.35503 z"
                     id="path133"
                     inkscape:connector-curvature="0" />
                <path
                     style="fill:#262626;fill-rule:evenodd"
                     d="M 540.9,479.55503 543,469.85503 547.2,541.15503 C 544.06,518.55503 541.76,503.75503 540.3,496.95503 539.44,492.55503 539.64,486.75503 540.9,479.55503 z"
                     id="path135"
                     inkscape:connector-curvature="0" />
                <path
                     style="fill:#262626;fill-rule:evenodd"
                     d="M 625.4,507.95503 H 637.9 L 637.2,512.15503 C 636,515.15503 633.74,516.55503 630.4,516.55503 628.86,516.55503 627.64,522.55503 626.7,534.55503 626.24,540.55503 625.9,546.35503 625.7,552.35503 L 625.4,507.95503 z"
                     id="path137"
                     inkscape:connector-curvature="0" />
                <path
                     style="fill:#232323;fill-rule:evenodd"
                     d="M 553.2,583.75503 548.3,494.55503 C 548.5,494.75503 551.26,498.35503 556.6,505.55503 561.34,511.95503 565.74,515.95503 569.8,517.35503 578.54,520.55503 584.66,522.15503 588.2,522.15503 592.26,522.15503 597,520.35503 602.4,516.55503 604.94,514.75503 608.56,510.15503 613.3,502.95503 617.64,496.15503 620.34,492.55503 621.4,492.15503 V 583.75503 H 553.2 z"
                     id="path139"
                     inkscape:connector-curvature="0" />
                <path
                     style="fill:#1f1f1f;fill-rule:evenodd"
                     d="M 549.4,524.55503 552.6,535.35503 C 555.2,542.95503 557.46,547.75503 559.4,549.55503 559.74,549.75503 562.34,553.95503 567.2,561.75503 570.74,567.35503 573.96,569.95503 576.9,569.55503 579.1,569.15503 582.2,569.35503 586.2,570.15503 589.74,570.95503 592.84,570.95503 595.5,569.95503 598.9,568.95503 602.36,566.35503 605.9,561.95503 608.96,558.15503 611.14,554.55503 612.4,551.15503 613.26,548.75503 615.14,542.95503 618,533.75503 L 622,520.55503 621.4,583.75503 H 553.2 L 549.4,524.55503 z"
                     id="path141"
                     inkscape:connector-curvature="0" />
                <path
                     style="fill:#232323;fill-rule:evenodd"
                     d="M 620.6,402.45503 621.4,427.65503 C 619.54,425.31503 617.3,422.91503 614.7,420.45503 609.36,415.51503 604.74,412.81503 600.8,412.35503 595.34,411.69503 590.74,411.29503 587,411.15503 581.94,411.01503 575.74,411.21503 568.4,411.75503 561.8,412.21503 556,415.29503 551,420.95503 L 545.6,429.35503 543.2,402.45503 H 620.6 z"
                     id="path143"
                     inkscape:connector-curvature="0" />
                <path
                     style="fill:#1f1f1f;fill-rule:evenodd"
                     d="M 570.5,556.55503 C 571.16,562.55503 572.04,567.35503 573.1,570.95503 574.1,567.15503 575.3,564.35503 576.7,562.75503 576.9,563.55503 577.2,564.95503 577.6,566.75503 577.94,568.35503 578.04,569.75503 577.9,570.95503 579.04,569.35503 579.84,567.95503 580.3,566.95503 581.96,568.75503 583.08,570.95503 583.66,573.55503 583.48,573.35503 583.2,573.15503 582.8,572.95503 582.52,572.75503 582.28,572.55503 582.1,572.55503 582.58,573.75503 582.94,575.55503 583.2,577.75503 580.14,577.95503 576.9,577.55503 573.5,576.35503 569.56,574.95503 566.46,573.75503 564.2,572.95503 L 565.8,572.15503 C 565.46,557.35503 566.46,547.15503 568.8,541.55503 569.26,544.75503 569.84,549.75503 570.5,556.55503 z"
                     id="path145"
                     inkscape:connector-curvature="0" />
                <path
                     style="fill:#1f1f1f;fill-rule:evenodd"
                     d="M 622.2,402.95503 V 418.25503 L 615.9,407.15503 609.5,416.55503 611.1,407.15503 C 614.3,407.15503 609.26,406.89503 596,406.35503 590.8,406.09503 584.9,406.15503 578.3,406.55503 570.3,406.95503 563.2,407.71503 557,408.85503 551.4,409.91503 547.6,412.95503 545.6,417.95503 544.7,420.23503 544.26,422.41503 544.3,424.51503 L 543.2,402.45503 622.2,402.95503 z"
                     id="path147"
                     inkscape:connector-curvature="0" />
                <path
                     style="fill:#232323;fill-rule:evenodd"
                     d="M 611.1,408.75503 C 620.9,413.15503 623.1,419.65503 617.7,428.25503 617.5,427.71503 617.06,427.01503 616.4,426.15503 615.74,425.21503 615.34,424.61503 615.2,424.35503 615.2,425.09503 615.14,426.31503 615,428.05503 614.86,429.65503 614.84,430.85503 614.9,431.65503 613.64,426.25503 611,422.51503 607,420.45503 604.54,419.19503 600.26,418.25503 594.2,417.65503 590.6,416.79503 588.66,416.35503 588.4,416.35503 588,417.15503 586.56,418.69503 584.1,420.95503 583.84,420.55503 583.96,419.99503 584.5,419.25503 585.04,418.59503 585.14,418.01503 584.8,417.55503 583.74,419.01503 583.06,420.29503 582.8,421.35503 582.74,419.89503 582.1,419.49503 580.9,420.15503 580.5,422.15503 579.6,423.85503 578.2,425.25503 577.94,424.39503 577.44,423.99503 576.7,424.05503 575.56,426.59503 574.6,429.49503 573.8,432.75503 572.66,429.01503 571.94,425.01503 571.6,420.75503 570.54,423.75503 569.36,429.81503 568.1,438.95503 566.96,446.95503 565.4,452.69503 563.4,456.15503 563.06,455.21503 561.86,449.89503 559.8,440.15503 558.34,432.95503 556.54,428.59503 554.4,427.05503 554,427.65503 553.36,428.35503 552.5,429.15503 551.56,430.01503 550.94,430.65503 550.6,431.05503 550.2,426.71503 550.76,423.31503 552.3,420.85503 V 419.95503 C 552.1,418.75503 551.24,416.89503 549.7,414.35503 548.96,413.01503 549.3,411.49503 550.7,409.75503 552.16,408.01503 555.86,406.29503 561.8,404.55503 565.54,403.55503 569.6,403.09503 574,403.15503 574.4,403.15503 578.56,403.35503 586.5,403.75503 596.84,404.35503 605.04,406.01503 611.1,408.75503 z"
                     id="path149"
                     inkscape:connector-curvature="0" />
                <path
                     style="fill:#232323;fill-rule:evenodd"
                     d="M 606.4,472.35503 C 605.94,482.95503 606.96,492.55503 609.5,500.95503 609.84,499.95503 610.46,498.75503 611.4,497.35503 612.54,495.75503 613.24,494.55503 613.5,494.15503 620.24,501.15503 621,509.35503 615.8,518.95503 610.86,528.35503 604.26,532.95503 596,532.75503 593.6,532.75503 591.46,532.15503 589.6,530.95503 586.06,528.55503 584.24,527.35503 584.1,527.35503 582.5,526.55503 581.06,525.95503 579.8,525.75503 577.66,525.35503 576.16,525.15503 575.3,524.75503 569.36,523.75503 565.24,522.75503 562.9,521.75503 558.96,520.15503 558.06,516.95503 560.2,512.15503 H 559.4 C 559.26,508.75503 559.2,505.95503 559.2,504.15503 559.2,500.95503 559.56,498.55503 560.3,496.55503 561.64,497.95503 562.6,499.75503 563.2,501.95503 563.74,503.75503 563.9,505.75503 563.7,507.75503 565.64,505.95503 567.36,505.55503 568.9,506.55503 570.24,507.55503 571.1,509.55503 571.5,512.15503 573.3,510.75503 575.14,508.15503 577,504.55503 578.94,505.95503 580.44,509.15503 581.5,513.75503 582.5,518.15503 584.16,521.15503 586.5,522.55503 589.76,519.75503 592.46,517.95503 594.6,517.35503 594.76,517.95503 594.9,518.35503 595,518.75503 594.82,517.35503 594.9,515.95503 595.2,514.75503 595.74,512.75503 595.9,509.75503 595.7,505.55503 595.44,500.55503 595.34,497.35503 595.4,496.15503 595.54,496.75503 596.44,497.75503 598.1,498.95503 599.7,500.15503 600.6,501.15503 600.8,501.75503 600.94,501.15503 601.46,496.15503 602.4,486.75503 603,480.69503 604.34,475.89503 606.4,472.35503 z"
                     id="path151"
                     inkscape:connector-curvature="0" />
                <path
                     style="fill:#1f1f1f;fill-rule:evenodd"
                     d="M 595.2,572.95503 C 595.14,572.15503 595.8,569.95503 597.2,566.15503 598.6,562.15503 599.34,559.35503 599.4,557.95503 599.54,558.55503 599.96,559.75503 600.7,561.35503 601.5,562.95503 602,564.15503 602.2,564.55503 603,561.55503 603.54,557.55503 603.8,552.95503 603.94,550.55503 604.04,546.55503 604.1,540.95503 605.44,544.55503 606.74,549.55503 608,556.15503 609.54,564.35503 610.54,569.35503 611,571.15503 609.46,571.75503 607.54,571.95503 605.2,572.15503 602.6,572.15503 600.64,572.15503 599.3,572.15503 597.04,574.15503 595.94,574.75503 596,573.75503 L 595.2,572.95503 z"
                     id="path153"
                     inkscape:connector-curvature="0" />
                <path
                     style="fill:#1f1f1f;fill-rule:evenodd"
                     d="M 585.2,572.95503 C 585.5,572.15503 586.02,571.15503 586.8,569.55503 588,567.15503 588.74,565.35503 589,563.95503 591.74,568.55503 593.7,571.55503 594.9,572.95503 H 585.2 C 585.02,573.35503 584.92,573.55503 584.9,573.75503 L 584.1,572.95503 H 585.2 z"
                     id="path155"
                     inkscape:connector-curvature="0" />
                <path
                     style="fill:url(#linearGradient5575);fill-rule:evenodd"
                     d="M 523.9,430.65503 C 523.9,431.25503 523.1,431.61503 521.5,431.75503 519.9,431.89503 519.1,431.61503 519.1,430.95503 L 517.9,411.65503 C 517.76,411.05503 518.54,410.69503 520.2,410.55503 521.8,410.41503 522.6,410.65503 522.6,411.25503 L 523.9,430.65503 z"
                     id="path164"
                     inkscape:connector-curvature="0" />
                <path
                     style="fill:url(#linearGradient5577);fill-rule:evenodd"
                     d="M 534.6,572.95503 C 534.6,573.55503 533.84,573.75503 532.3,573.95503 530.76,574.15503 529.94,573.95503 529.8,573.15503 L 528.6,553.95503 C 528.6,553.15503 529.36,552.95503 530.9,552.75503 532.44,552.55503 533.26,552.95503 533.4,553.55503 L 534.6,572.95503 z"
                     id="path173"
                     inkscape:connector-curvature="0" />
            </g>
            <g
                 transform="translate(-560,0)"
                 id="g4425">
                <polygon
                     style="fill:#0a0a0a;fill-rule:evenodd"
                     points="83.7,162.8 83.8,49.8 147,49.8 138.6,162.8 "
                     id="polygon177"
                     transform="matrix(2,0,0,2,596.1,284.55504)" />
                <polygon
                     style="fill:#212121;fill-rule:evenodd"
                     points="85.35,159.1 85.35,51.7 145.8,51.7 137.7,159.7 "
                     id="polygon179"
                     transform="matrix(2,0,0,2,596.1,284.55504)" />
                <polygon
                     style="fill:#2e2e2e;fill-rule:evenodd"
                     points="86.75,157.6 86.75,53.4 143.2,53.4 136.3,158.2 "
                     id="polygon181"
                     transform="matrix(2,0,0,2,596.1,284.55504)" />
                <path
                     style="fill:#2b2b2b;fill-rule:evenodd"
                     d="M 779.90001,437.95503 H 782.00001 L 782.40001,492.95503 C 781.26001,491.15503 780.16001,488.95503 779.10001,486.35503 776.96001,481.29503 776.00001,477.11503 776.20001,473.85503 776.40001,470.51503 777.06001,463.55503 778.20001,452.95503 L 779.90001,437.95503 z"
                     id="path183"
                     inkscape:connector-curvature="0" />
                <polygon
                     style="fill:#3b3b3b;fill-rule:evenodd"
                     points="86.75,53.4 85.35,51.7 145.8,51.7 143.2,53.4 "
                     id="polygon185"
                     transform="matrix(2,0,0,2,596.1,284.55504)" />
                <polygon
                     style="fill:#141414;fill-rule:evenodd"
                     points="84.75,160.1 87.25,158 136.3,158 138.6,160.1 "
                     id="polygon187"
                     transform="matrix(2,0,0,2,596.1,284.55504)" />
                <rect
                     x="770.89996"
                     y="391.15503"
                     style="fill:#5e5a5b;fill-rule:evenodd"
                     width="112.1"
                     height="1.7"
                     id="rect189" />
                <polygon
                     id="polygon193"
                     points="137,56.55 131.2,152.1 93.2,152.1 93.2,56.55 "
                     style="fill:#1c1c1c;fill-rule:evenodd"
                     transform="matrix(2,0,0,2,596.1,284.55504)" />
                <polygon
                     id="polygon195"
                     points="96.55,149.6 93.2,152.1 93.2,56.55 136.3,56.55 131.2,152.1 129.5,149.6 "
                     style="fill:#121212;fill-rule:evenodd"
                     transform="matrix(2,0,0,2,596.1,284.55504)" />
                <polygon
                     id="polygon197"
                     points="134.5,58.95 129.4,149.6 95.35,149.6 95.35,58.95 "
                     style="fill:#262626;fill-rule:evenodd"
                     transform="matrix(2,0,0,2,596.1,284.55504)" />
                <polygon
                     id="polygon199"
                     points="136.3,56.95 134.5,58.95 95.75,58.95 93.2,56.55 "
                     style="fill-rule:evenodd"
                     transform="matrix(2,0,0,2,596.1,284.55504)" />
                <rect
                     id="rect201"
                     height="1.9"
                     width="77.5"
                     style="fill:#404040;fill-rule:evenodd"
                     y="588.15503"
                     x="781.99994" />
                <rect
                     id="rect205"
                     height="10.702"
                     width="12.398"
                     style="fill-rule:evenodd"
                     y="497.15506"
                     x="770.39996" />
                <rect
                     id="rect207"
                     height="11.6"
                     width="11.898"
                     style="fill:#5e5e5e;fill-rule:evenodd"
                     y="494.75504"
                     x="771.39996" />
                <rect
                     id="rect209"
                     height="9.3000002"
                     width="10.9"
                     style="fill:#2b2b2b;fill-rule:evenodd"
                     y="495.15506"
                     x="772.99994" />
                <rect
                     id="rect211"
                     height="11.5"
                     width="11.9"
                     style="fill:#ababab;fill-rule:evenodd"
                     y="491.15506"
                     x="773.79999" />
                <path
                     inkscape:connector-curvature="0"
                     id="path213"
                     d="M 773.30001,490.95503 785.70001,491.15503 785.60001,498.95503 C 784.80001,496.75503 783.60001,495.55503 782.00001,495.35503 781.00001,495.15503 779.26001,494.35503 776.80001,492.95503 L 773.30001,490.95503 z"
                     style="fill:#ccdbd8;fill-rule:evenodd" />
                <path
                     inkscape:connector-curvature="0"
                     id="path215"
                     d="M 773.80001,502.55503 V 495.15503 L 775.10001,496.95503 C 776.16001,498.15503 777.26001,498.75503 778.40001,498.75503 780.26001,498.75503 782.70001,499.95503 785.70001,502.75503 H 773.80001 z"
                     style="fill:#858585;fill-rule:evenodd" />
                <polygon
                     id="polygon217"
                     points="91.95,105.4 88.6,104.6 88.6,103.2 "
                     style="fill:#727272;fill-rule:evenodd"
                     transform="matrix(2,0,0,2,596.1,284.55504)" />
                <path
                     inkscape:connector-curvature="0"
                     id="path219"
                     d="M 773.80001,502.55503 774.30001,501.55503 C 774.90001,500.95503 775.94001,500.55503 777.40001,500.55503 779.66001,500.35503 782.00001,501.35503 784.40001,503.15503 L 773.80001,502.55503 z"
                     style="fill:#727272;fill-rule:evenodd" />
                <path
                     inkscape:connector-curvature="0"
                     id="path221"
                     d="M 785.60001,494.95503 C 784.80001,493.55503 783.74001,492.95503 782.40001,492.95503 781.60001,492.95503 780.36001,492.55503 778.70001,491.95503 L 776.50001,490.95503 785.70001,491.15503 785.60001,494.95503 z"
                     style="fill:#f0fcfa;fill-rule:evenodd" />
                <path
                     style="fill:#262626;fill-rule:evenodd"
                     d="M 871.10001,550.75503 868.70001,600.55503 H 770.60001 L 770.40001,523.35503 771.60001,547.55503 C 772.60001,563.95503 773.76001,572.95503 775.10001,574.75503 776.44001,576.35503 778.00001,575.95503 779.80001,573.35503 780.66001,571.95503 781.40001,570.55503 782.00001,568.95503 L 781.40001,579.75503 C 781.20001,587.15503 781.76001,591.35503 783.10001,592.35503 784.36001,593.15503 789.84001,593.75503 799.50001,594.15503 812.50001,594.55503 820.10001,594.95503 822.30001,595.15503 828.30001,595.75503 833.30001,595.95503 837.10001,595.95503 841.10001,595.75503 844.90001,595.35503 848.70001,594.55503 854.10001,593.35503 857.70001,591.95503 859.50001,590.15503 L 860.50001,568.95503 862.90001,571.95503 C 864.70001,573.55503 865.90001,573.35503 866.90001,571.75503 867.70001,570.15503 869.10001,563.15503 871.10001,550.75503 z"
                     id="path223"
                     inkscape:connector-curvature="0" />
                <path
                     style="fill:#262626;fill-rule:evenodd"
                     d="M 883.10001,392.85503 878.50001,459.05503 C 876.30001,447.11503 875.10001,439.89503 874.70001,437.35503 874.10001,430.61503 873.70001,425.69503 874.10001,422.55503 874.90001,419.55503 875.30001,417.05503 875.30001,415.05503 875.70001,411.59503 875.30001,408.39503 874.10001,405.45503 873.10001,402.65503 870.70001,399.71503 866.90001,396.65503 L 861.50001,392.95503 883.10001,392.85503 z"
                     id="path225"
                     inkscape:connector-curvature="0" />
                <path
                     style="fill:#262626;fill-rule:evenodd"
                     d="M 777.30001,409.35503 C 777.24001,415.61503 777.04001,419.09503 776.70001,419.75503 776.24001,420.81503 775.24001,424.75503 773.70001,431.55503 772.16001,438.35503 771.40001,442.19503 771.40001,443.05503 771.40001,444.19503 770.70001,449.89503 769.30001,460.15503 L 770.90001,392.85503 797.90001,392.35503 C 794.90001,392.75503 791.84001,393.29503 788.70001,393.95503 782.44001,395.29503 778.96001,396.65503 778.30001,398.05503 777.70001,399.25503 777.36001,403.01503 777.30001,409.35503 z"
                     id="path227"
                     inkscape:connector-curvature="0" />
                <path
                     style="fill:#262626;fill-rule:evenodd"
                     d="M 867.30001,479.55503 C 868.50001,486.75503 868.70001,492.55503 867.90001,496.95503 866.50001,503.75503 864.10001,518.55503 861.10001,541.15503 L 865.30001,469.85503 867.30001,479.55503 z"
                     id="path229"
                     inkscape:connector-curvature="0" />
                <path
                     style="fill:#262626;fill-rule:evenodd"
                     d="M 782.80001,507.95503 782.50001,552.55503 C 782.36001,546.55503 782.04001,540.55503 781.50001,534.55503 780.56001,522.55503 779.34001,516.55503 777.80001,516.55503 774.46001,516.55503 772.24001,515.15503 771.10001,512.35503 L 770.40001,507.95503 H 782.80001 z"
                     id="path231"
                     inkscape:connector-curvature="0" />
                <path
                     style="fill:#232323;fill-rule:evenodd"
                     d="M 855.10001,583.75503 H 786.80001 V 492.15503 C 787.94001,492.55503 791.20001,495.95503 796.50001,502.95503 802.50001,510.15503 806.50001,514.75503 809.10001,516.55503 814.50001,520.35503 818.70001,522.15503 821.70001,522.15503 824.10001,522.15503 829.70001,520.55503 838.50001,517.35503 842.50001,515.95503 846.90001,512.15503 851.50001,505.55503 856.90001,498.55503 859.70001,494.75503 860.10001,494.55503 L 855.10001,583.75503 z"
                     id="path233"
                     inkscape:connector-curvature="0" />
                <path
                     style="fill:#1f1f1f;fill-rule:evenodd"
                     d="M 858.90001,524.55503 855.10001,583.75503 H 786.80001 L 786.30001,520.55503 790.30001,533.75503 C 793.10001,542.95503 794.94001,548.95503 795.80001,551.35503 797.10001,554.55503 799.30001,558.15503 802.30001,561.95503 805.90001,566.35503 809.50001,568.95503 812.70001,570.15503 815.50001,570.95503 818.50001,570.95503 822.10001,570.35503 826.10001,569.35503 829.10001,569.15503 831.30001,569.55503 834.30001,569.95503 837.50001,567.35503 841.10001,561.75503 845.90001,553.95503 848.50001,549.75503 848.70001,549.55503 850.70001,547.75503 853.10001,542.95503 855.70001,535.35503 L 858.90001,524.55503 z"
                     id="path235"
                     inkscape:connector-curvature="0" />
                <path
                     style="fill:#232323;fill-rule:evenodd"
                     d="M 862.70001,429.35503 C 861.50001,426.61503 859.70001,423.81503 857.30001,420.95503 852.30001,415.29503 846.50001,412.21503 839.90001,411.75503 832.50001,411.21503 826.90001,411.01503 822.90001,411.15503 820.30001,411.21503 816.30001,411.61503 810.70001,412.35503 806.70001,412.81503 801.50001,415.51503 795.10001,420.45503 L 786.80001,427.65503 787.60001,402.45503 H 865.10001 L 862.70001,429.35503 z"
                     id="path237"
                     inkscape:connector-curvature="0" />
                <path
                     style="fill:#1f1f1f;fill-rule:evenodd"
                     d="M 837.70001,556.55503 C 838.30001,549.75503 838.90001,544.75503 839.50001,541.55503 841.90001,547.55503 842.90001,557.75503 842.50001,572.15503 L 844.10001,572.95503 C 833.70001,576.35503 825.70001,578.15503 820.30001,577.75503 820.50001,575.55503 821.10001,573.35503 821.70001,571.55503 822.30001,572.15503 823.10001,573.15503 824.50001,574.35503 824.90001,571.35503 826.10001,568.95503 827.90001,566.95503 828.10001,567.35503 828.50001,568.15503 829.30001,568.95503 829.90001,569.75503 830.30001,570.55503 830.50001,570.95503 830.30001,569.75503 830.30001,568.35503 830.70001,566.75503 831.10001,564.95503 831.30001,563.55503 831.50001,562.75503 832.90001,564.35503 834.10001,567.15503 835.10001,570.95503 836.10001,567.35503 837.10001,562.55503 837.70001,556.55503 z"
                     id="path239"
                     inkscape:connector-curvature="0" />
                <path
                     style="fill:#1f1f1f;fill-rule:evenodd"
                     d="M 863.90001,424.69503 C 863.90001,422.57503 863.50001,420.33503 862.70001,417.95503 860.70001,412.95503 856.90001,409.91503 851.10001,408.85503 839.90001,406.79503 829.50001,405.95503 820.10001,406.35503 L 797.10001,407.15503 798.70001,416.55503 792.40001,407.15503 786.00001,418.25503 V 402.95503 L 865.10001,402.45503 863.90001,424.69503 z"
                     id="path241"
                     inkscape:connector-curvature="0" />
                <path
                     style="fill:#232323;fill-rule:evenodd"
                     d="M 848.50001,440.15503 C 846.30001,450.01503 845.10001,455.35503 844.90001,456.15503 842.90001,452.61503 841.30001,446.89503 840.10001,438.95503 838.90001,429.75503 837.70001,423.69503 836.70001,420.75503 836.30001,425.15503 835.50001,429.15503 834.50001,432.75503 833.70001,429.55503 832.70001,426.65503 831.50001,424.05503 830.90001,423.99503 830.30001,424.39503 830.10001,425.25503 828.50001,423.85503 827.70001,422.15503 827.30001,420.15503 826.10001,419.49503 825.50001,419.89503 825.50001,421.35503 825.10001,420.21503 824.50001,418.95503 823.50001,417.55503 823.10001,418.01503 822.50001,418.59503 821.50001,419.25503 820.50001,419.99503 819.70001,420.55503 819.50001,420.95503 817.70001,419.31503 816.70001,418.11503 816.50001,417.35503 815.90001,417.47503 815.10001,417.57503 813.90001,417.65503 807.90001,418.25503 803.70001,419.19503 801.10001,420.45503 797.30001,422.51503 794.64001,426.25503 793.30001,431.65503 793.36001,430.85503 793.34001,429.65503 793.20001,428.05503 793.06001,426.31503 793.00001,425.09503 793.00001,424.35503 792.86001,424.55503 792.46001,425.15503 791.80001,426.15503 791.20001,427.01503 790.80001,427.71503 790.60001,428.25503 785.14001,419.59503 786.50001,413.09503 794.70001,408.75503 799.90001,406.01503 807.30001,404.35503 816.90001,403.75503 824.70001,403.35503 829.70001,403.15503 831.90001,403.15503 837.90001,403.09503 842.70001,403.55503 846.50001,404.55503 852.50001,406.29503 856.10001,408.01503 857.50001,409.75503 858.90001,411.49503 859.30001,413.01503 858.50001,414.35503 856.90001,416.95503 856.10001,418.81503 855.90001,419.95503 V 420.85503 C 857.50001,423.31503 857.90001,426.71503 857.50001,431.05503 857.30001,430.65503 856.70001,430.01503 855.70001,429.15503 854.90001,428.35503 854.10001,427.65503 853.70001,427.05503 851.70001,428.59503 849.90001,432.95503 848.50001,440.15503 z"
                     id="path243"
                     inkscape:connector-curvature="0" />
                <path
                     style="fill:#232323;fill-rule:evenodd"
                     d="M 818.10001,521.75503 C 819.30001,521.75503 820.30001,520.75503 821.10001,518.55503 821.30001,518.35503 821.50001,517.95503 821.50001,517.55503 821.70001,517.55503 821.90001,517.55503 821.90001,517.55503 822.70001,516.55503 823.50001,515.15503 824.50001,513.75503 827.10001,508.95503 829.30001,505.95503 831.10001,504.55503 833.10001,508.15503 834.90001,510.75503 836.70001,512.15503 837.10001,509.55503 838.10001,507.55503 839.50001,506.55503 840.90001,505.55503 842.70001,505.95503 844.50001,507.75503 844.30001,505.75503 844.50001,503.75503 845.10001,501.95503 845.70001,499.75503 846.50001,497.95503 847.90001,496.75503 848.70001,498.55503 849.10001,501.15503 849.10001,504.35503 849.10001,506.15503 848.90001,508.75503 848.70001,512.35503 H 848.10001 C 850.10001,516.95503 849.30001,520.15503 845.30001,521.95503 839.70001,523.15503 835.50001,524.15503 832.90001,524.95503 831.70001,525.15503 829.50001,525.55503 826.10001,525.95503 823.10001,526.15503 820.90001,526.55503 819.50001,527.35503 817.70001,528.15503 817.90001,529.35503 820.10001,530.95503 822.10001,532.15503 822.10001,532.95503 820.10001,532.95503 811.50001,532.95503 803.70001,528.35503 796.50001,519.15503 788.74001,509.35503 788.20001,500.95503 794.80001,494.15503 795.06001,494.75503 795.74001,495.75503 796.70001,497.35503 797.70001,498.75503 798.50001,499.95503 798.70001,500.95503 800.70001,494.95503 802.10001,490.15503 802.90001,486.95503 804.50001,481.09503 805.10001,476.23503 805.10001,472.35503 807.10001,475.89503 808.50001,480.69503 809.10001,486.75503 809.90001,496.15503 810.50001,501.15503 810.70001,501.75503 810.90001,501.15503 811.30001,500.15503 811.90001,498.95503 812.50001,497.75503 812.70001,496.95503 812.90001,496.35503 812.90001,497.35503 812.90001,500.55503 812.50001,505.75503 812.30001,509.75503 812.50001,512.75503 813.10001,514.95503 813.90001,517.75503 815.10001,519.95503 816.70001,521.15503 816.70001,521.15503 816.90001,521.35503 816.90001,521.35503 817.30001,520.75503 818.30001,520.15503 819.70001,519.55503 820.30001,519.15503 820.70001,518.95503 821.10001,518.75503 820.10001,519.95503 819.10001,520.95503 818.10001,521.75503 817.70001,521.75503 817.30001,521.55503 816.90001,521.35503 816.50001,521.75503 816.50001,522.15503 817.10001,522.55503 817.30001,522.35503 817.70001,522.15503 818.10001,521.75503 z"
                     id="path245"
                     inkscape:connector-curvature="0" />
                <path
                     style="fill:#1f1f1f;fill-rule:evenodd"
                     d="M 813.10001,572.95503 812.10001,573.75503 812.10001,572.15503 C 808.90001,572.15503 806.50001,572.15503 804.50001,571.95503 801.10001,571.95503 798.70001,571.55503 797.10001,570.95503 799.10001,563.95503 802.50001,553.95503 807.30001,540.95503 807.50001,552.35503 808.10001,560.15503 809.10001,564.55503 809.50001,563.95503 809.90001,562.95503 810.70001,561.15503 811.50001,559.75503 811.90001,558.55503 812.10001,557.75503 812.10001,558.75503 812.30001,561.55503 812.70001,566.15503 812.90001,569.75503 813.10001,571.95503 813.10001,572.95503 z"
                     id="path247"
                     inkscape:connector-curvature="0" />
                <path
                     style="fill:#1f1f1f;fill-rule:evenodd"
                     d="M 824.70001,568.15503 C 825.50001,566.95503 826.30001,565.55503 827.10001,563.95503 827.50001,564.95503 826.50001,566.35503 824.70001,568.15503 z"
                     id="path249"
                     inkscape:connector-curvature="0" />
                <path
                     style="fill:url(#linearGradient5579);fill-rule:evenodd"
                     d="M 884.30001,430.65503 885.70001,411.25503 C 885.70001,410.65503 886.50001,410.41503 888.10001,410.55503 889.50001,410.69503 890.30001,411.05503 890.30001,411.65503 L 889.10001,430.95503 C 889.10001,431.21503 888.90001,431.41503 888.30001,431.55503 887.90001,431.75503 887.30001,431.81503 886.70001,431.75503 885.10001,431.61503 884.30001,431.25503 884.30001,430.65503 z"
                     id="path258"
                     inkscape:connector-curvature="0" />
                <path
                     style="fill:url(#linearGradient5581);fill-rule:evenodd"
                     d="M 873.70001,572.95503 874.90001,553.55503 C 874.90001,552.95503 875.70001,552.55503 877.30001,552.75503 878.90001,552.95503 879.70001,553.35503 879.70001,553.95503 L 878.50001,573.35503 C 878.50001,573.95503 877.50001,574.15503 875.90001,573.95503 874.30001,573.75503 873.70001,573.55503 873.70001,572.95503 z"
                     id="path267"
                     inkscape:connector-curvature="0" />
            </g>
            <path
                 style="fill:#1e1e1e;fill-rule:evenodd"
                 d="M 309.7,671.15503 H 97.7 L 95.6,641.35503 117.6,644.55503 C 139.06,646.55503 166.7,647.55503 200.5,647.55503 234.3,647.55503 263.1,645.95503 287.1,642.95503 298.9,641.35503 307.5,639.75503 312.7,638.15503 L 309.7,671.15503 z"
                 id="path31"
                 inkscape:connector-curvature="0" />
            <path
                 style="fill:#121212;fill-rule:evenodd"
                 d="M 301.7,666.75503 C 304.3,666.35503 306.7,664.15503 308.9,659.95503 309.9,657.95503 310.7,655.95503 311.3,653.95503 L 310.9,672.15503 H 98.8 L 95.8,653.55503 98.6,659.15503 C 101.26,663.15503 104.6,665.55503 108.6,666.55503 112.86,667.75503 120.8,668.15503 132.4,667.75503 141.46,667.55503 151,666.95503 161,665.95503 167.34,665.15503 179.44,665.15503 197.3,665.55503 221.16,666.35503 233.46,666.55503 234.2,666.55503 239.9,666.55503 252.3,666.75503 271.9,666.95503 289.3,667.15503 299.1,666.95503 301.7,666.75503 z"
                 id="path59"
                 inkscape:connector-curvature="0" />
            <g
                 transform="translate(0,4)"
                 id="g4615">
                <rect
                     id="rect293"
                     height="1.3"
                     width="196.8"
                     style="fill:#5e5a5b;fill-rule:evenodd"
                     y="635.75507"
                     x="105.89999" />
                <polygon
                     style="fill-rule:evenodd"
                     points="136.1,172.8 134.2,191.1 31.85,191.1 30.95,172.8 "
                     id="polygon297"
                     transform="matrix(2,0,0,2,36.09999,282.55504)" />
                <polygon
                     style="fill:#212121;fill-rule:evenodd"
                     points="135,173.9 133.2,190.1 32.9,190.1 32,173.9 "
                     id="polygon299"
                     transform="matrix(2,0,0,2,36.09999,282.55504)" />
                <polygon
                     style="fill:#2e2e2e;fill-rule:evenodd"
                     points="133.3,175.1 131.6,188.7 34.25,188.7 33.35,175.1 "
                     id="polygon301"
                     transform="matrix(2,0,0,2,36.09999,282.55504)" />
                <polygon
                     style="fill:#1a1a1a;fill-rule:evenodd"
                     points="129.8,178.3 128.8,186.3 36.7,186.3 35.85,178.3 "
                     id="polygon303"
                     transform="matrix(2,0,0,2,36.09999,282.55504)" />
                <polygon
                     style="fill:#121212;fill-rule:evenodd"
                     points="36.7,186.3 35.85,178.3 129.8,178.3 128.8,186.3 127.7,185.2 38.3,185.2 "
                     id="polygon305"
                     transform="matrix(2,0,0,2,36.09999,282.55504)" />
                <polygon
                     style="fill:#262626;fill-rule:evenodd"
                     points="128,179.4 127,185.2 38.3,185.2 37.5,179.4 "
                     id="polygon307"
                     transform="matrix(2,0,0,2,36.09999,282.55504)" />
                <path
                     style="fill:#232323;fill-rule:evenodd"
                     d="M 291.30001,646.15503 289.90001,652.95503 H 112.70001 L 112.00001,645.75503 119.40001,649.55503 125.30001,644.55503 129.80001,647.15503 C 133.34001,648.75503 136.40001,649.55503 139.00001,649.55503 H 163.40001 L 163.90001,645.75503 167.40001,647.95503 C 170.74001,649.55503 174.70001,650.15503 179.30001,650.15503 186.44001,650.15503 194.34001,650.15503 203.00001,649.75503 213.80001,649.35503 221.80001,648.75503 227.00001,647.95503 231.00001,647.35503 237.10001,647.55503 245.30001,648.35503 253.30001,648.95503 258.90001,649.15503 262.10001,648.55503 265.90001,647.95503 268.90001,647.95503 270.90001,648.75503 271.90001,649.15503 272.50001,649.75503 272.50001,650.15503 L 271.10001,645.15503 279.50001,650.75503 280.50001,648.75503 C 281.70001,647.75503 283.70001,647.95503 286.50001,649.55503 288.10001,650.75503 289.70001,649.55503 291.30001,646.15503 z"
                     id="path309"
                     inkscape:connector-curvature="0" />
                <path
                     style="fill:#1f1f1f;fill-rule:evenodd"
                     d="M 291.70001,649.15503 291.50001,652.95503 H 112.70001 L 112.50001,649.15503 142.10001,650.55503 C 164.90001,651.35503 184.04001,651.55503 199.50001,651.35503 224.16001,650.95503 254.90001,650.15503 291.70001,649.15503 z"
                     id="path311"
                     inkscape:connector-curvature="0" />
                <polygon
                     style="fill:#141414;fill-rule:evenodd"
                     points="131.6,188.7 133.2,190.1 32.9,190.1 34.25,188.7 "
                     id="polygon313"
                     transform="matrix(2,0,0,2,36.09999,282.55504)" />
                <polygon
                     style="fill:#3b3b3b;fill-rule:evenodd"
                     points="135,173.9 133.3,175.1 33.35,175.1 32,173.9 "
                     id="polygon315"
                     transform="matrix(2,0,0,2,36.09999,282.55504)" />
                <polygon
                     style="fill-rule:evenodd"
                     points="129.8,178.3 128,179.4 37.5,179.4 35.85,178.3 "
                     id="polygon317"
                     transform="matrix(2,0,0,2,36.09999,282.55504)" />
                <path
                     style="fill:#262626;fill-rule:evenodd"
                     d="M 284.30001,657.35503 C 285.70001,656.95503 287.90001,656.55503 290.90001,656.15503 293.30001,655.95503 295.10001,655.55503 296.50001,655.15503 298.90001,654.35503 300.50001,652.75503 301.30001,650.15503 L 299.30001,659.95503 H 104.60001 L 103.00001,651.95503 103.90001,653.15503 C 104.84001,654.35503 105.94001,655.35503 107.20001,656.15503 108.80001,657.35503 111.90001,657.95503 116.50001,658.35503 121.04001,658.55503 126.60001,658.55503 133.20001,657.95503 137.66001,657.55503 163.86001,657.55503 211.80001,657.75503 258.50001,657.75503 282.50001,657.75503 284.30001,657.35503 z"
                     id="path319"
                     inkscape:connector-curvature="0" />
                <path
                     style="fill:#262626;fill-rule:evenodd"
                     d="M 302.70001,632.75503 302.90001,639.75503 C 297.10001,637.15503 292.90001,635.75503 290.10001,635.35503 287.90001,635.15503 281.10001,634.95503 269.30001,634.95503 257.30001,634.95503 246.70001,635.15503 237.10001,635.35503 225.36001,635.75503 216.54001,635.35503 210.60001,634.15503 208.74001,633.95503 198.94001,633.75503 181.20001,633.95503 162.86001,633.95503 151.64001,634.15503 147.50001,634.75503 145.30001,634.95503 140.56001,635.15503 133.30001,635.15503 126.64001,635.15503 120.60001,635.55503 115.20001,636.55503 109.26001,637.35503 105.64001,638.55503 104.30001,640.15503 L 104.10001,641.95503 102.80001,632.55503 H 302.70001 z"
                     id="path321"
                     inkscape:connector-curvature="0" />
                <rect
                     x="100.90002"
                     y="633.75507"
                     style="fill:#5e5a5b;fill-rule:evenodd"
                     width="202.39999"
                     height="1.1"
                     id="rect323" />
                <rect
                     x="108.60004"
                     y="655.35504"
                     style="fill:#404040;fill-rule:evenodd"
                     width="185.2"
                     height="1.602"
                     id="rect325" />
                <path
                     style="fill:#232323;fill-rule:evenodd"
                     d="M 112.30001,641.95503 H 292.10001 C 284.30001,642.95503 278.50001,643.35503 275.10001,643.55503 232.66001,644.35503 208.56001,644.75503 202.90001,644.95503 L 184.60001,645.55503 C 184.46001,645.35503 184.04001,644.95503 183.30001,644.75503 181.90001,644.15503 179.76001,643.95503 176.90001,643.95503 155.16001,644.55503 142.90001,644.95503 140.10001,644.95503 138.36001,644.95503 134.84001,644.75503 129.50001,644.35503 L 122.10001,643.55503 114.70001,644.15503 112.30001,641.95503 z"
                     id="path327"
                     inkscape:connector-curvature="0" />
                <g
                     id="g4510"
                     transform="translate(0,-182)">
                    <rect
                         id="rect331"
                         height="9"
                         width="29.9"
                         style="fill-rule:evenodd"
                         y="825.35504"
                         x="189.39999" />
                    <rect
                         id="rect333"
                         height="7.5999999"
                         width="29.9"
                         style="fill:#5e5e5e;fill-rule:evenodd"
                         y="825.35504"
                         x="189.39999" />
                    <rect
                         id="rect335"
                         height="6.5"
                         width="28.1"
                         style="fill:#2b2b2b;fill-rule:evenodd"
                         y="825.55505"
                         x="190.10001" />
                    <rect
                         id="rect337"
                         height="5.9000001"
                         width="26"
                         style="fill:#ababab;fill-rule:evenodd"
                         y="824.75507"
                         x="191.20001" />
                    <path
                         inkscape:connector-curvature="0"
                         id="path339"
                         d="M 191.2,824.75503 216.8,824.55503 C 208.6,825.95503 202.76,826.75503 199.3,826.95503 197.16,826.95503 195.24,827.35503 193.5,827.95503 L 191.5,828.75503 191.2,824.75503 z"
                         style="fill:#ccdbd8;fill-rule:evenodd" />
                    <path
                         inkscape:connector-curvature="0"
                         id="path341"
                         d="M 191.2,830.75503 196.9,829.75503 C 201.24,828.95503 204.64,828.75503 207.1,828.75503 211.16,828.75503 214.54,828.15503 217.2,826.95503 V 830.75503 H 191.2 z"
                         style="fill:#858585;fill-rule:evenodd" />
                    <polygon
                         transform="matrix(2,0,0,2,36.10001,464.55504)"
                         id="polygon343"
                         points="90.35,180 90.45,180.8 83.1,181.3 "
                         style="fill:#727272;fill-rule:evenodd" />
                    <path
                         inkscape:connector-curvature="0"
                         id="path345"
                         d="M 194.1,830.95503 198.9,830.15503 C 202.76,829.75503 206.26,829.55503 209.4,829.55503 214.46,829.55503 217.06,829.95503 217.2,830.55503 L 194.1,830.95503 z"
                         style="fill:#727272;fill-rule:evenodd" />
                    <path
                         inkscape:connector-curvature="0"
                         id="path347"
                         d="M 191.5,826.75503 191.2,824.75503 211.5,824.55503 C 205.7,825.35503 201.36,825.75503 198.5,825.75503 196.7,825.75503 195,825.75503 193.4,826.15503 L 191.5,826.75503 z"
                         style="fill:#f0fcfa;fill-rule:evenodd" />
                </g>
            </g>
            <polygon
                 transform="matrix(2,0,0,2,36.1,284.55504)"
                 id="polygon349"
                 points="23.4,23.65 143.1,23.65 167.7,32.2 0.2,32.2 "
                 style="fill:#454545;fill-rule:evenodd" />
        </g>
    </g>
</svg>
