<?xml version="1.0" encoding="UTF-8" standalone="no"?>
<!-- Created with Inkscape (http://www.inkscape.org/) -->

<svg
     xmlns:dc="http://purl.org/dc/elements/1.1/"
     xmlns:cc="http://creativecommons.org/ns#"
     xmlns:rdf="http://www.w3.org/1999/02/22-rdf-syntax-ns#"
     xmlns:svg="http://www.w3.org/2000/svg"
     xmlns="http://www.w3.org/2000/svg"
     xmlns:xlink="http://www.w3.org/1999/xlink"
     xmlns:sodipodi="http://sodipodi.sourceforge.net/DTD/sodipodi-0.dtd"
     xmlns:inkscape="http://www.inkscape.org/namespaces/inkscape"
     width="61.286892"
     height="46.099998"
     id="svg3139"
     version="1.1"
     inkscape:version="0.48.5 r10040"
     sodipodi:docname="New document 1">
    <defs
         id="defs3141">
        <linearGradient
             inkscape:collect="always"
             xlink:href="#SVGID_1_"
             id="linearGradient3071"
             gradientUnits="userSpaceOnUse"
             gradientTransform="matrix(0,1,-1,-0.001,0,0)"
             x1="17.889999"
             y1="-31.65"
             x2="43.240002"
             y2="-31.65" />
        <linearGradient
             gradientTransform="matrix(0,1,-1,-0.001,0,0)"
             y2="-31.65"
             x2="43.240002"
             y1="-31.65"
             x1="17.889999"
             gradientUnits="userSpaceOnUse"
             id="SVGID_1_">
            <stop
                 id="stop41"
                 style="stop-color:#231F20"
                 offset="0" />
            <stop
                 id="stop43"
                 style="stop-color:#231F20;stop-opacity:0.7961"
                 offset="0.0902" />
            <stop
                 id="stop45"
                 style="stop-color:#231F20;stop-opacity:0"
                 offset="1" />
        </linearGradient>
        <linearGradient
             inkscape:collect="always"
             xlink:href="#SVGID_1_"
             id="linearGradient3321"
             gradientUnits="userSpaceOnUse"
             gradientTransform="matrix(0,1,-1,-0.001,0,0)"
             x1="17.889999"
             y1="-31.65"
             x2="43.240002"
             y2="-31.65" />
        <linearGradient
             inkscape:collect="always"
             xlink:href="#SVGID_1_"
             id="linearGradient4129"
             gradientUnits="userSpaceOnUse"
             gradientTransform="matrix(0,1,-1,-0.001,0,0)"
             x1="17.889999"
             y1="-31.65"
             x2="43.240002"
             y2="-31.65" />
    </defs>
    <sodipodi:namedview
         id="base"
         pagecolor="#ffffff"
         bordercolor="#666666"
         borderopacity="1.0"
         inkscape:pageopacity="0.0"
         inkscape:pageshadow="2"
         inkscape:zoom="5.55"
         inkscape:cx="5.2247248"
         inkscape:cy="8.7642874"
         inkscape:document-units="px"
         inkscape:current-layer="layer1"
         showgrid="false"
         fit-margin-top="0"
         fit-margin-left="0"
         fit-margin-right="0"
         fit-margin-bottom="0" />
    <metadata
         id="metadata3144">
        <rdf:RDF>
            <cc:Work
                 rdf:about="">
                <dc:format>image/svg+xml</dc:format>
                <dc:type
                     rdf:resource="http://purl.org/dc/dcmitype/StillImage" />
                <dc:title></dc:title>
            </cc:Work>
        </rdf:RDF>
    </metadata>
    <g
         inkscape:label="Layer 1"
         inkscape:groupmode="layer"
         id="layer1"
         transform="translate(-345.55159,-495.02647)">
        <g
             id="g4093">
            <g
                 transform="translate(-80,0)"
                 id="g3301">
                <path
                     inkscape:connector-curvature="0"
                     id="path51"
                     d="M 479.9799,538.62647 C 480.5099,538.82647 480.6599,539.30647 480.4299,540.07647 480.3299,540.44647 480.1799,540.79647 479.9799,541.12647 H 432.3799 C 432.1799,540.79647 432.0299,540.44647 431.9299,540.07647 431.6969,539.30647 431.8469,538.82647 432.3799,538.62647 432.7799,538.55647 440.7099,538.52647 456.1799,538.52647 471.7099,538.52647 479.6499,538.55647 479.9799,538.62647 z"
                     style="fill:#171717;fill-rule:evenodd" />
                <path
                     inkscape:connector-curvature="0"
                     id="path53"
                     d="M 479.9799,539.92647 480.3299,540.02647 479.9799,541.12647 H 432.3799 L 432.0299,540.02647 432.3799,539.92647 435.1299,539.72647 C 435.5299,539.69647 436.0799,539.74647 436.7799,539.87647 437.5499,539.97647 438.0999,540.02647 438.4299,540.02647 441.4599,540.09647 444.1799,540.07647 446.5799,539.97647 L 453.5799,540.07647 C 453.9799,540.07647 454.3799,540.02647 454.7799,539.92647 L 459.4299,540.07647 C 460.0999,540.07647 460.8799,540.00647 461.7799,539.87647 L 465.7799,539.97647 C 468.1799,540.07647 470.8999,540.09647 473.9299,540.02647 474.2599,540.02647 474.8099,539.97647 475.5799,539.87647 476.2799,539.77647 476.8299,539.72647 477.2299,539.72647 477.5599,539.75647 478.4799,539.82647 479.9799,539.92647 z"
                     style="fill-rule:evenodd" />
                <path
                     inkscape:connector-curvature="0"
                     id="path55"
                     d="M 478.0799,536.52647 C 478.3799,536.82647 478.4499,537.29647 478.2799,537.92647 478.1099,538.59647 477.7299,538.97647 477.1299,539.07647 476.4999,539.20647 469.5099,539.24647 456.1799,539.17647 442.9099,539.24647 435.9299,539.20647 435.2299,539.07647 434.6299,538.97647 434.2469,538.59647 434.0799,537.92647 433.9129,537.29647 433.9799,536.82647 434.2799,536.52647 434.4129,536.39647 436.6999,536.32647 441.1299,536.32647 443.8299,536.32647 448.8099,536.34647 456.0799,536.37647 H 456.2799 C 459.9799,536.37647 464.9599,536.35647 471.2299,536.32647 475.6999,536.32647 477.9799,536.39647 478.0799,536.52647 z"
                     style="fill:#2b2b2b;fill-rule:evenodd" />
                <path
                     inkscape:connector-curvature="0"
                     id="path57"
                     d="M 477.0799,536.42647 477.2799,535.47647 478.3299,536.72647 C 469.8299,536.75647 462.4499,536.75647 456.1799,536.72647 H 434.0299 L 435.1299,535.47647 435.2799,536.42647 H 477.0799 z"
                     style="fill:#3b3b3b;fill-rule:evenodd" />
                <path
                     inkscape:connector-curvature="0"
                     id="path59"
                     d="M 456.6799,537.07647 H 455.6799 C 448.6499,537.07647 442.9799,537.02647 438.6799,536.92647 L 434.3299,536.77647 H 478.0299 C 475.0599,536.97647 467.9499,537.07647 456.6799,537.07647 z"
                     style="fill:#5e5e5e;fill-rule:evenodd" />
                <path
                     inkscape:connector-curvature="0"
                     id="path61"
                     d="M 476.8299,538.52647 C 476.9999,538.49647 477.4499,538.39647 478.1799,538.22647 477.9799,538.59647 477.6299,538.84647 477.1299,538.97647 476.5299,539.17647 469.5499,539.24647 456.1799,539.17647 442.8499,539.24647 435.8599,539.17647 435.2299,538.97647 434.7299,538.84647 434.3799,538.59647 434.1799,538.22647 434.5129,538.22647 434.9799,538.32647 435.5799,538.52647 435.9099,538.55647 436.3799,538.49647 436.9799,538.32647 437.5799,538.15647 438.0299,538.07647 438.3299,538.07647 438.6599,538.07647 439.8799,538.02647 441.9799,537.92647 443.4799,537.85647 444.6999,537.90647 445.6299,538.07647 446.9299,538.34647 448.5499,538.44647 450.4799,538.37647 453.0099,538.27647 454.6299,538.24647 455.3299,538.27647 455.4999,538.30647 455.7799,538.32647 456.1799,538.32647 456.5799,538.32647 456.8799,538.30647 457.0799,538.27647 457.7799,538.24647 459.3999,538.27647 461.9299,538.37647 463.8599,538.44647 465.4599,538.34647 466.7299,538.07647 467.6699,537.90647 468.8999,537.85647 470.4299,537.92647 472.5299,538.02647 473.7299,538.07647 474.0299,538.07647 474.3299,538.07647 474.7999,538.15647 475.4299,538.32647 476.0299,538.49647 476.4999,538.55647 476.8299,538.52647 z"
                     style="fill:#1c1c1c;fill-rule:evenodd" />
                <path
                     inkscape:connector-curvature="0"
                     id="path63"
                     d="M 478.3299,537.82647 C 479.8599,538.49647 480.5599,538.89647 480.4299,539.02647 480.2999,539.09647 472.2499,539.12647 456.2799,539.12647 H 456.0799 C 440.1099,539.12647 432.0639,539.09647 431.9309,539.02647 431.8649,538.95647 432.1979,538.74647 432.9309,538.37647 L 434.0309,537.82647 434.3799,538.67647 H 477.9799 L 478.3299,537.82647 z"
                     style="fill:#3b3b3b;fill-rule:evenodd" />
                <path
                     inkscape:connector-curvature="0"
                     id="path65"
                     d="M 456.5799,539.32647 H 455.7799 C 446.8799,539.39647 440.2299,539.37647 435.8299,539.27647 L 431.9299,539.07647 H 480.4799 C 478.8099,539.34647 470.8499,539.42647 456.5799,539.32647 z"
                     style="fill:#5e5e5e;fill-rule:evenodd" />
            </g>
            <g
                 id="g3284">
                <g
                     id="g3267">
                    <path
                         inkscape:connector-curvature="0"
                         id="path14"
                         d="M 376.0799,510.92647 H 376.2799 C 391.3799,510.92647 399.0999,511.02647 399.4299,511.22647 399.7599,511.39647 399.5099,515.59647 398.6799,523.82647 397.8099,532.02647 397.2499,536.25647 396.9799,536.52647 396.8099,536.75647 389.9099,536.90647 376.2799,536.97647 H 376.0799 C 362.4799,536.90647 355.5799,536.75647 355.3799,536.52647 355.1099,536.25647 354.5499,532.02647 353.6799,523.82647 352.8469,515.59647 352.5969,511.39647 352.9299,511.22647 353.2969,511.02647 361.0099,510.92647 376.0799,510.92647 z"
                         style="fill:#262626;fill-rule:evenodd" />
                    <path
                         inkscape:connector-curvature="0"
                         id="path16"
                         d="M 397.5299,533.02647 C 397.2999,535.25647 397.1099,536.42647 396.9799,536.52647 396.8099,536.75647 389.9099,536.90647 376.2799,536.97647 H 376.0799 C 362.4799,536.90647 355.5799,536.75647 355.3799,536.52647 355.2799,536.42647 355.0999,535.25647 354.8299,533.02647 354.9999,531.19647 355.3599,529.67647 355.9299,528.47647 355.9599,529.34647 356.0999,530.00647 356.3299,530.47647 356.6599,531.10647 357.2099,531.55647 357.9799,531.82647 357.8799,531.09647 358.1499,530.50647 358.7799,530.07647 359.0799,530.54647 359.5799,530.87647 360.2799,531.07647 361.0499,531.27647 361.5799,531.55647 361.8799,531.92647 362.2799,531.59647 362.6999,530.86647 363.1299,529.72647 363.5299,528.65647 364.0499,527.94647 364.6799,527.57647 364.9099,527.87647 365.0799,528.57647 365.1799,529.67647 365.2799,530.61647 365.5799,531.24647 366.0799,531.57647 366.6499,531.94647 367.3599,531.99647 368.2299,531.72647 369.4599,531.32647 370.1799,531.12647 370.3799,531.12647 370.4099,531.12647 370.9099,531.32647 371.8799,531.72647 372.3499,531.79647 372.9499,531.82647 373.6799,531.82647 H 376.0799 V 531.77647 L 376.1799,531.82647 376.2799,531.77647 V 531.82647 H 378.6799 C 379.4099,531.82647 380.0099,531.79647 380.4799,531.72647 380.7499,531.69647 381.2599,531.49647 382.0299,531.12647 382.2599,531.12647 382.9599,531.32647 384.1299,531.72647 384.9999,531.99647 385.7099,531.94647 386.2799,531.57647 386.8099,531.24647 387.1099,530.60647 387.1799,529.67647 387.2799,528.57647 387.4499,527.87647 387.6799,527.57647 388.3099,527.94647 388.8499,528.65647 389.2799,529.72647 389.7099,530.85647 390.1299,531.59647 390.5299,531.92647 390.8599,531.55647 391.3799,531.27647 392.0799,531.07647 392.7799,530.87647 393.2799,530.54647 393.5799,530.07647 394.2099,530.47647 394.4799,531.05647 394.3799,531.82647 395.1499,531.55647 395.6999,531.10647 396.0299,530.47647 396.2599,530.00647 396.4099,529.33647 396.4799,528.47647 397.0099,529.60647 397.3599,531.12647 397.5299,533.02647 z"
                         style="fill:#232323;fill-rule:evenodd" />
                    <path
                         inkscape:connector-curvature="0"
                         id="path18"
                         d="M 397.3299,534.62647 C 397.1599,535.85647 397.0499,536.49647 396.9799,536.52647 396.8099,536.75647 389.9099,536.90647 376.2799,536.97647 H 376.0799 C 362.4799,536.90647 355.5799,536.75647 355.3799,536.52647 355.3099,536.49647 355.1999,535.85647 355.0299,534.62647 355.1999,534.42647 355.4599,534.40647 355.8299,534.57647 356.3999,534.80647 356.7799,534.92647 356.9799,534.92647 357.3799,534.95647 357.7299,534.94647 358.0299,534.87647 358.2299,534.80647 358.5599,534.72647 359.0299,534.62647 359.7599,534.52647 360.6599,534.57647 361.7299,534.77647 363.0999,535.00647 363.9499,535.14647 364.2799,535.17647 364.5099,535.17647 364.9299,535.05647 365.5299,534.82647 365.6999,534.85647 366.0299,535.09647 366.5299,535.52647 367.1599,535.62647 368.1099,535.57647 369.3799,535.37647 369.8099,535.34647 370.5799,535.37647 371.6799,535.47647 372.5099,535.57647 373.2999,535.54647 374.0299,535.37647 L 374.3299,535.87647 C 374.7599,535.74647 375.3499,535.62647 376.0799,535.52647 V 535.47647 L 376.1799,535.52647 376.2799,535.47647 V 535.52647 C 376.9499,535.59647 377.5499,535.70647 378.0799,535.87647 L 378.3299,535.37647 C 379.0599,535.54647 379.8499,535.57647 380.6799,535.47647 381.7799,535.37647 382.5499,535.34647 382.9799,535.37647 383.1499,535.37647 383.6499,535.42647 384.4799,535.52647 385.0099,535.59647 385.4599,535.59647 385.8299,535.52647 L 386.8299,534.82647 C 386.9699,534.79647 387.3799,534.90647 388.0799,535.17647 388.4199,535.14647 389.2699,535.00647 390.6299,534.77647 391.6999,534.57647 392.5999,534.52647 393.3299,534.62647 393.6299,534.69647 393.9699,534.77647 394.3299,534.87647 394.6299,534.94647 394.9799,534.95647 395.3799,534.92647 395.5799,534.92647 395.9699,534.80647 396.5299,534.57647 396.9299,534.40647 397.1999,534.42647 397.3299,534.62647 z"
                         style="fill:#141414;fill-rule:evenodd" />
                    <path
                         inkscape:connector-curvature="0"
                         id="path20"
                         d="M 352.8799,516.07647 V 515.92647 C 352.7129,512.89647 352.7299,511.32647 352.9299,511.22647 353.2969,511.02647 361.0099,510.92647 376.0799,510.92647 H 376.2799 C 391.3799,510.92647 399.0999,511.02647 399.4299,511.22647 399.5999,511.32647 399.6299,512.89647 399.5299,515.92647 L 399.4799,515.97647 V 516.07647 C 399.4499,516.77647 399.2799,517.92647 398.9799,519.52647 398.6799,521.19647 398.4999,522.45647 398.4299,523.32647 398.2999,523.62647 398.0999,523.82647 397.8299,523.92647 397.9999,521.79647 397.2099,520.55647 395.4799,520.22647 393.8499,519.92647 392.8099,520.30647 392.3799,521.37647 392.3799,521.27647 392.4299,520.95647 392.5299,520.42647 392.5899,520.02647 392.5499,519.74647 392.3799,519.57647 391.5499,521.80647 391.0499,523.07647 390.8799,523.37647 390.6099,523.07647 390.3299,522.37647 390.0299,521.27647 389.8299,520.40647 389.3899,519.84647 388.7299,519.57647 387.7299,519.14647 386.8899,519.32647 386.2299,520.12647 385.1999,521.39647 384.5299,522.10647 384.2299,522.27647 383.6599,521.54647 383.2599,521.05647 383.0299,520.82647 382.3899,520.22647 381.8299,519.97647 381.3299,520.07647 380.2299,520.27647 379.6799,520.57647 379.6799,520.97647 379.6099,521.60647 379.4999,521.99647 379.3299,522.12647 378.5999,521.35647 377.5499,520.67647 376.1799,520.07647 375.4799,520.37647 374.6299,521.05647 373.6299,522.12647 373.1599,521.65647 372.7599,521.27647 372.4299,520.97647 371.7999,520.44647 371.3299,520.14647 371.0299,520.07647 370.3299,519.94647 369.3599,520.67647 368.1299,522.27647 367.8599,522.14647 367.1899,521.42647 366.1299,520.12647 365.4999,519.32647 364.6599,519.14647 363.6299,519.57647 362.9599,519.84647 362.5299,520.40647 362.3299,521.27647 362.0299,522.37647 361.7499,523.07647 361.4799,523.37647 361.3099,523.07647 360.8099,521.80647 359.9799,519.57647 359.6499,519.94647 359.4399,520.54647 359.3799,521.37647 358.9399,520.30647 358.0099,519.92647 356.5799,520.22647 355.0799,520.55647 354.3949,521.79647 354.5279,523.92647 354.3609,523.86647 354.1609,523.65647 353.9279,523.32647 353.8619,522.45647 353.6779,521.19647 353.3779,519.52647 353.0799,517.92647 352.9129,516.77647 352.8799,516.07647 z"
                         style="fill:#232323;fill-rule:evenodd" />
                    <path
                         inkscape:connector-curvature="0"
                         id="path22"
                         d="M 356.7799,516.27647 C 355.9799,516.14647 355.3299,516.39647 354.8299,517.02647 354.2299,517.75647 353.6629,518.14647 353.1299,518.17647 353.1299,516.50647 353.0129,515.30647 352.7799,514.57647 V 513.12647 C 359.0799,513.22647 366.6999,513.09647 375.6299,512.72647 H 376.7299 C 385.6599,513.09647 393.2799,513.22647 399.5799,513.12647 V 514.57647 C 399.3499,515.30647 399.2299,516.50647 399.2299,518.17647 398.6999,518.14647 398.1499,517.75647 397.5799,517.02647 397.0499,516.39647 396.3799,516.14647 395.5799,516.27647 395.4499,516.30647 395.1799,516.47647 394.7799,516.77647 394.3799,517.04647 394.0499,517.19647 393.7799,517.22647 393.3099,517.29647 392.9499,517.22647 392.6799,517.02647 392.2799,516.72647 391.9599,516.54647 391.7299,516.47647 391.0599,516.27647 390.3499,516.34647 389.5799,516.67647 388.7099,517.07647 387.9999,517.25647 387.4299,517.22647 387.1299,517.22647 386.5999,517.04647 385.8299,516.67647 385.1599,516.40647 384.5999,516.32647 384.1299,516.42647 383.9299,516.49647 383.6499,516.69647 383.2799,517.02647 382.9499,517.29647 382.5599,517.42647 382.1299,517.42647 381.7999,517.42647 381.2799,517.29647 380.5799,517.02647 379.9099,516.75647 379.3599,516.66647 378.9299,516.72647 378.5599,516.75647 378.0999,516.86647 377.5299,517.02647 377.0299,517.22647 376.6099,517.32647 376.2799,517.32647 H 376.0799 C 375.7499,517.32647 375.3299,517.22647 374.8299,517.02647 374.2999,516.86647 373.8299,516.75647 373.4299,516.72647 372.9999,516.66647 372.4499,516.75647 371.7799,517.02647 371.0799,517.29647 370.5599,517.42647 370.2299,517.42647 369.7999,517.42647 369.4299,517.29647 369.1299,517.02647 368.7599,516.69647 368.4599,516.49647 368.2299,516.42647 367.7599,516.32647 367.1999,516.40647 366.5299,516.67647 365.7599,517.04647 365.2299,517.22647 364.9299,517.22647 364.3699,517.25647 363.6499,517.07647 362.7799,516.67647 362.0099,516.34647 361.2999,516.27647 360.6299,516.47647 360.3999,516.54647 360.0799,516.72647 359.6799,517.02647 359.4099,517.22647 359.0499,517.29647 358.5799,517.22647 358.3099,517.19647 357.9999,517.04647 357.6299,516.77647 357.1999,516.47647 356.9099,516.30647 356.7799,516.27647 z"
                         style="fill:#1c1c1c;fill-rule:evenodd" />
                </g>
                <g
                     id="g3274"
                     transform="translate(120,0)">
                    <path
                         style="fill:#141414;fill-rule:evenodd"
                         d="M 239.02991,516.47647 C 239.32991,516.20647 244.99991,516.07647 256.02991,516.07647 267.09991,516.04647 272.80991,516.17647 273.17991,516.47647 273.57991,516.77647 273.40991,519.70647 272.67991,525.27647 271.90991,530.84647 271.25991,533.75647 270.72991,534.02647 270.19991,534.32647 265.29991,534.49647 256.02991,534.52647 246.75991,534.52647 241.89991,534.35647 241.42991,534.02647 240.99991,533.69647 240.39991,530.74647 239.62991,525.17647 238.89991,519.60647 238.69991,516.70647 239.02991,516.47647 z"
                         id="path69"
                         inkscape:connector-curvature="0" />
                    <path
                         style="fill-rule:evenodd"
                         d="M 269.22991,532.92647 270.87991,533.92647 270.72991,534.02647 C 270.22991,534.32647 265.52991,534.49647 256.62991,534.52647 247.69991,534.55647 242.67991,534.40647 241.57991,534.07647 L 242.67991,532.92647 H 269.22991 z"
                         id="path71"
                         inkscape:connector-curvature="0" />
                    <path
                         style="fill:#262626;fill-rule:evenodd"
                         d="M 240.22991,517.42647 C 240.45991,517.19647 245.62991,517.07647 255.72991,517.07647 265.79991,517.10647 271.10991,517.22647 271.67991,517.42647 272.17991,517.59647 272.00991,520.15647 271.17991,525.12647 270.34991,530.05647 269.69991,532.62647 269.22991,532.82647 268.75991,533.02647 264.34991,533.14647 255.97991,533.17647 247.54991,533.17647 243.10991,533.05647 242.67991,532.82647 242.24991,532.59647 241.65991,530.02647 240.92991,525.12647 240.22991,520.25647 239.99991,517.69647 240.22991,517.42647 z"
                         id="path73"
                         inkscape:connector-curvature="0" />
                    <path
                         style="fill:#232323;fill-rule:evenodd"
                         d="M 241.67991,519.92647 C 241.24991,520.65647 240.89991,521.12647 240.62991,521.32647 240.45991,521.09647 240.30991,520.74647 240.17991,520.27647 240.10991,518.64647 240.12991,517.75647 240.22991,517.62647 240.42991,517.39647 245.59991,517.29647 255.72991,517.32647 265.75991,517.32647 271.07991,517.42647 271.67991,517.62647 271.74991,517.65647 271.72991,517.94647 271.62991,518.47647 271.45991,519.20647 271.35991,519.82647 271.32991,520.32647 270.95991,520.69647 270.57991,520.89647 270.17991,520.92647 270.30991,520.15647 270.22991,519.64647 269.92991,519.37647 268.85991,519.90647 268.19991,520.37647 267.92991,520.77647 267.62991,519.94647 267.09991,519.55647 266.32991,519.62647 265.69991,519.69647 265.05991,520.02647 264.42991,520.62647 263.69991,519.95647 263.05991,519.65647 262.52991,519.72647 261.95991,519.79647 261.35991,520.20647 260.72991,520.97647 260.69991,520.54647 260.62991,520.19647 260.52991,519.92647 259.99991,520.12647 259.25991,520.77647 258.32991,521.87647 257.62991,521.10647 257.09991,520.54647 256.72991,520.17647 255.85991,520.34647 255.19991,520.94647 254.72991,521.97647 254.59991,521.70647 254.35991,520.74647 254.02991,519.07647 253.59991,519.04647 252.87991,519.05647 251.87991,519.12647 251.00991,519.16647 250.30991,519.14647 249.77991,519.07647 L 248.42991,519.17647 C 247.75991,518.87647 247.32991,518.70647 247.12991,518.67647 246.82991,518.64647 246.34991,518.75647 245.67991,519.02647 245.00991,519.29647 244.55991,519.52647 244.32991,519.72647 243.95991,520.12647 243.72991,520.42647 243.62991,520.62647 243.49991,520.88647 243.44991,521.21647 243.47991,521.62647 243.37991,520.57647 243.15991,519.54647 242.82991,518.52647 242.45991,518.75647 242.07991,519.22647 241.67991,519.92647 z"
                         id="path75"
                         inkscape:connector-curvature="0" />
                    <path
                         style="fill:#3b3b3b;fill-rule:evenodd"
                         d="M 239.02991,516.67647 243.77991,516.47647 C 247.77991,516.34647 251.87991,516.25647 256.07991,516.22647 262.80991,516.12647 268.50991,516.27647 273.17991,516.67647 L 271.67991,517.77647 C 269.34991,517.50647 264.30991,517.37647 256.57991,517.37647 251.74991,517.37647 247.57991,517.44647 244.07991,517.57647 L 240.22991,517.77647 239.02991,516.67647 z"
                         id="path77"
                         inkscape:connector-curvature="0" />
                    <path
                         style="fill:#5e5e5e;fill-rule:evenodd"
                         d="M 240.22991,517.77647 244.62991,517.57647 C 248.32991,517.40647 252.04991,517.32647 255.77991,517.32647 261.77991,517.32647 267.17991,517.52647 271.97991,517.92647 268.70991,517.85647 264.32991,517.82647 258.82991,517.82647 L 240.22991,517.77647 z"
                         id="path79"
                         inkscape:connector-curvature="0" />
                    <path
                         style="fill:#232323;fill-rule:evenodd"
                         d="M 263.87991,523.47647 C 264.84991,523.60647 265.35991,524.42647 265.42991,525.92647 265.45991,527.59647 265.74991,528.57647 266.27991,528.87647 267.00991,528.00647 267.47991,527.49647 267.67991,527.32647 268.44991,527.82647 268.95991,528.10647 269.22991,528.17647 269.35991,528.17647 269.77991,528.10647 270.47991,527.97647 269.94991,531.07647 269.52991,532.69647 269.22991,532.82647 268.75991,533.02647 264.34991,533.14647 255.97991,533.17647 247.54991,533.17647 243.10991,533.05647 242.67991,532.82647 242.57991,532.79647 242.47991,532.60647 242.37991,532.27647 L 242.47991,532.22647 242.17991,531.52647 241.72991,528.87647 241.62991,526.57647 C 242.15991,527.30647 242.59991,528.24647 242.92991,529.37647 243.12991,529.17647 243.34991,528.87647 243.57991,528.47647 243.77991,528.04647 243.92991,527.72647 244.02991,527.52647 244.25991,528.19647 244.54991,528.74647 244.87991,529.17647 L 245.12991,528.57647 C 245.22991,529.07647 245.44991,529.60647 245.77991,530.17647 246.30991,529.57647 246.62991,529.15647 246.72991,528.92647 L 247.17991,529.67647 C 247.84991,529.24647 248.15991,528.39647 248.12991,527.12647 248.05991,525.49647 248.07991,524.50647 248.17991,524.17647 248.50991,524.74647 248.74991,525.39647 248.87991,526.12647 249.04991,526.85647 249.27991,527.49647 249.57991,528.02647 250.07991,527.59647 250.60991,527.32647 251.17991,527.22647 251.44991,527.85647 251.92991,528.07647 252.62991,527.87647 252.85991,528.24647 253.24991,528.44647 253.77991,528.47647 254.30991,528.50647 254.69991,528.74647 254.92991,529.17647 255.49991,529.20647 256.12991,529.04647 256.82991,528.67647 256.92991,528.60647 257.49991,528.24647 258.52991,527.57647 258.72991,528.40647 259.00991,528.95647 259.37991,529.22647 260.17991,528.39647 260.72991,527.89647 261.02991,527.72647 261.52991,527.39647 261.79991,527.82647 261.82991,529.02647 262.65991,528.02647 263.34991,526.17647 263.87991,523.47647 z"
                         id="path81"
                         inkscape:connector-curvature="0" />
                    <path
                         style="fill:#1f1f1f;fill-rule:evenodd"
                         d="M 264.42991,531.07647 C 264.95991,530.50647 265.37991,529.84647 265.67991,529.07647 265.80991,530.30647 266.02991,531.17647 266.32991,531.67647 266.72991,531.37647 267.20991,531.19647 267.77991,531.12647 268.07991,531.09647 268.47991,531.05647 268.97991,531.02647 269.00991,531.02647 269.12991,531.05647 269.32991,531.12647 269.52991,531.22647 269.69991,531.25647 269.82991,531.22647 269.62991,532.22647 269.42991,532.75647 269.22991,532.82647 268.75991,533.02647 264.34991,533.14647 255.97991,533.17647 247.54991,533.17647 243.10991,533.05647 242.67991,532.82647 242.44991,532.72647 242.22991,532.05647 242.02991,530.82647 L 242.07991,530.07647 C 242.47991,530.10647 242.90991,530.27647 243.37991,530.57647 243.60991,530.77647 243.97991,531.04647 244.47991,531.37647 L 245.07991,530.92647 C 245.14991,531.25647 245.42991,531.64647 245.92991,532.07647 246.32991,531.74647 246.62991,531.47647 246.82991,531.27647 247.25991,530.94647 247.64991,530.75647 247.97991,530.72647 248.34991,530.69647 248.75991,530.84647 249.22991,531.17647 249.69991,531.54647 250.07991,531.72647 250.37991,531.72647 251.00991,531.79647 251.44991,531.69647 251.67991,531.42647 252.00991,530.95647 252.27991,530.67647 252.47991,530.57647 252.97991,530.34647 253.27991,530.20647 253.37991,530.17647 253.60991,530.10647 253.95991,530.07647 254.42991,530.07647 254.35991,530.80647 254.55991,531.35647 255.02991,531.72647 255.15991,531.52647 255.35991,531.37647 255.62991,531.27647 256.02991,531.07647 256.24991,530.95647 256.27991,530.92647 256.37991,531.55647 257.27991,531.89647 258.97991,531.92647 260.54991,531.92647 261.67991,531.70647 262.37991,531.27647 263.00991,531.87647 263.69991,531.80647 264.42991,531.07647 z"
                         id="path83"
                         inkscape:connector-curvature="0" />
                </g>
            </g>
            <g
                 transform="translate(-80,0)"
                 id="g3311">
                <path
                     inkscape:connector-curvature="0"
                     id="path28"
                     d="M 456.1799,514.62647 C 451.9799,514.65647 446.8299,514.65647 440.7299,514.62647 L 432.7799,514.57647 432.6799,513.57647 H 479.6799 L 479.5799,514.57647 C 470.7099,514.67647 462.9099,514.69647 456.1799,514.62647 z"
                     style="fill-rule:evenodd" />
                <path
                     inkscape:connector-curvature="0"
                     id="path30"
                     d="M 430.0799,513.82647 C 429.8469,513.79647 429.6469,513.39647 429.4799,512.62647 L 429.3299,511.47647 H 483.0299 C 482.8999,512.97647 482.6599,513.75647 482.3299,513.82647 481.7299,513.92647 473.0099,513.94647 456.1799,513.87647 439.2799,513.94647 430.5799,513.92647 430.0799,513.82647 z"
                     style="fill:#1c1c1c;fill-rule:evenodd" />
                <path
                     inkscape:connector-curvature="0"
                     id="path32"
                     d="M 430.2299,513.72647 C 430.1299,513.72647 430.0129,513.57647 429.8799,513.27647 L 432.2799,513.17647 C 432.8129,513.20647 433.6629,513.19647 434.8299,513.12647 435.9299,513.05647 436.7799,513.05647 437.3799,513.12647 438.3799,513.19647 439.8499,513.15647 441.7799,513.02647 442.2499,513.02647 443.1299,513.07647 444.4299,513.17647 445.5599,513.24647 446.4599,513.27647 447.1299,513.27647 447.4999,513.27647 448.9599,513.32647 451.5299,513.42647 453.3299,513.52647 454.7999,513.50647 455.9299,513.37647 H 456.4299 C 458.3299,513.57647 461.2599,513.54647 465.2299,513.27647 466.4299,513.27647 468.2299,513.19647 470.6299,513.02647 471.0599,513.02647 471.7799,513.04647 472.7799,513.07647 473.7499,513.14647 474.4799,513.15647 474.9799,513.12647 475.5799,513.05647 476.4299,513.05647 477.5299,513.12647 478.6999,513.19647 479.5499,513.20647 480.0799,513.17647 L 482.5299,513.27647 C 482.3999,513.57647 482.2799,513.72647 482.1799,513.72647 481.9799,513.79647 473.3099,513.82647 456.1799,513.82647 439.0499,513.82647 430.3969,513.79647 430.2299,513.72647 z"
                     style="fill:#2b2b2b;fill-rule:evenodd" />
                <polygon
                     id="polygon34"
                     points="31.55,44.65 5.1,44.4 4.95,43.3 58.35,43.3 58.2,44.4 "
                     style="fill-rule:evenodd"
                     transform="translate(424.5299,467.97647)" />
                <path
                     inkscape:connector-curvature="0"
                     id="path36"
                     d="M 427.4299,511.52647 C 426.3969,511.12647 425.7969,510.47647 425.6299,509.57647 425.4299,508.74647 425.6129,507.97647 426.1799,507.27647 426.3799,507.04647 429.5969,506.90647 435.8299,506.87647 439.5299,506.87647 446.2799,506.87647 456.0799,506.87647 H 456.2799 C 461.1799,506.90647 467.9499,506.90647 476.5799,506.87647 482.7799,506.90647 485.9799,507.04647 486.1799,507.27647 486.7499,507.97647 486.9499,508.74647 486.7799,509.57647 486.5799,510.47647 485.9799,511.12647 484.9799,511.52647 484.0099,511.89647 474.4199,512.00647 456.1799,511.87647 437.9799,512.00647 428.3969,511.89647 427.4299,511.52647 z"
                     style="fill:#2b2b2b;fill-rule:evenodd" />
                <polygon
                     id="polygon38"
                     points="50.1,27.05 61.65,39.3 1.65,39.3 13.2,27.05 "
                     style="fill:#505050;fill-rule:evenodd"
                     transform="translate(424.5299,467.97647)" />
                <polygon
                     id="polygon47"
                     points="50.1,27.05 61.65,39.3 1.65,39.3 13.2,27.05 "
                     style="fill:url(#linearGradient4129);fill-rule:evenodd"
                     transform="translate(424.5299,467.97647)" />
                <polygon
                     id="polygon49"
                     points="61.35,38.75 61.65,39.3 1.65,39.3 1.95,38.75 "
                     style="fill:#757575;fill-rule:evenodd"
                     transform="translate(424.5299,467.97647)" />
            </g>
        </g>
    </g>
</svg>
