<?xml version="1.0" encoding="UTF-8" standalone="no"?>
<!-- Created with Inkscape (http://www.inkscape.org/) -->

<svg
     xmlns:dc="http://purl.org/dc/elements/1.1/"
     xmlns:cc="http://creativecommons.org/ns#"
     xmlns:rdf="http://www.w3.org/1999/02/22-rdf-syntax-ns#"
     xmlns:svg="http://www.w3.org/2000/svg"
     xmlns="http://www.w3.org/2000/svg"
     xmlns:xlink="http://www.w3.org/1999/xlink"
     xmlns:sodipodi="http://sodipodi.sourceforge.net/DTD/sodipodi-0.dtd"
     xmlns:inkscape="http://www.inkscape.org/namespaces/inkscape"
     width="223"
     height="101.24763"
     id="svg3947"
     version="1.1"
     inkscape:version="0.48.5 r10040"
     sodipodi:docname="GlitchSimplifiedTableBlackPenthouse.svg">
    <defs
         id="defs3949">
        <linearGradient
             inkscape:collect="always"
             id="linearGradient4696">
            <stop
                 style="stop-color:#000000;stop-opacity:1;"
                 offset="0"
                 id="stop4698" />
            <stop
                 style="stop-color:#000000;stop-opacity:0;"
                 offset="1"
                 id="stop4700" />
        </linearGradient>
        <linearGradient
             id="SVGID_1_"
             gradientUnits="userSpaceOnUse"
             x1="8667.8086"
             y1="-19502.43"
             x2="8762.8594"
             y2="-19502.43"
             gradientTransform="matrix(-0.7543,-0.6565,0.6565,-0.7543,19523.234,-8982.1865)">
            <stop
                 offset="0"
                 style="stop-color:#393939;stop-opacity:0"
                 id="stop7" />
            <stop
                 offset="0.5098"
                 style="stop-color:#858585;stop-opacity:0.349"
                 id="stop9" />
            <stop
                 offset="0.9882"
                 style="stop-color:#393939;stop-opacity:0"
                 id="stop11" />
        </linearGradient>
        <linearGradient
             id="SVGID_2_"
             gradientUnits="userSpaceOnUse"
             x1="-2562.0361"
             y1="-3887.6367"
             x2="-2482.9517"
             y2="-3887.6367"
             gradientTransform="matrix(0.9164,-0.4002,0.4002,0.9164,3934.6348,2553.4258)">
            <stop
                 offset="0"
                 style="stop-color:#393939;stop-opacity:0"
                 id="stop30" />
            <stop
                 offset="0.5098"
                 style="stop-color:#858585;stop-opacity:0.349"
                 id="stop32" />
            <stop
                 offset="0.9882"
                 style="stop-color:#393939;stop-opacity:0"
                 id="stop34" />
        </linearGradient>
        <linearGradient
             inkscape:collect="always"
             xlink:href="#SVGID_2_"
             id="linearGradient4070"
             gradientUnits="userSpaceOnUse"
             gradientTransform="matrix(0.9164,-0.4002,0.4002,0.9164,3934.6348,2553.4258)"
             x1="-2562.0361"
             y1="-3887.6367"
             x2="-2482.9517"
             y2="-3887.6367" />
        <linearGradient
             inkscape:collect="always"
             xlink:href="#SVGID_1_"
             id="linearGradient4072"
             gradientUnits="userSpaceOnUse"
             gradientTransform="matrix(-0.7543,-0.6565,0.6565,-0.7543,19523.234,-8982.1865)"
             x1="8667.8086"
             y1="-19502.43"
             x2="8762.8594"
             y2="-19502.43" />
        <radialGradient
             inkscape:collect="always"
             xlink:href="#linearGradient4696"
             id="radialGradient4702"
             cx="-7.7777777"
             cy="535.6955"
             fx="-7.7777777"
             fy="535.6955"
             r="334.44446"
             gradientTransform="matrix(1,0,0,0.19269102,0,432.47179)"
             gradientUnits="userSpaceOnUse" />
        <radialGradient
             inkscape:collect="always"
             xlink:href="#linearGradient4696"
             id="radialGradient3084"
             gradientUnits="userSpaceOnUse"
             gradientTransform="matrix(1,0,0,0.19269102,0,432.47179)"
             cx="-7.7777777"
             cy="535.6955"
             fx="-7.7777777"
             fy="535.6955"
             r="334.44446" />
        <linearGradient
             inkscape:collect="always"
             xlink:href="#SVGID_2_"
             id="linearGradient3130"
             gradientUnits="userSpaceOnUse"
             gradientTransform="matrix(0.9164,-0.4002,0.4002,0.9164,3934.6348,2553.4258)"
             x1="-2562.0361"
             y1="-3887.6367"
             x2="-2482.9517"
             y2="-3887.6367" />
        <linearGradient
             inkscape:collect="always"
             xlink:href="#SVGID_1_"
             id="linearGradient3132"
             gradientUnits="userSpaceOnUse"
             gradientTransform="matrix(-0.7543,-0.6565,0.6565,-0.7543,19523.234,-8982.1865)"
             x1="8667.8086"
             y1="-19502.43"
             x2="8762.8594"
             y2="-19502.43" />
        <linearGradient
             inkscape:collect="always"
             xlink:href="#SVGID_2_"
             id="linearGradient3278"
             gradientUnits="userSpaceOnUse"
             gradientTransform="matrix(0.9164,-0.4002,0.4002,0.9164,3934.6348,2553.4258)"
             x1="-2562.0361"
             y1="-3887.6367"
             x2="-2482.9517"
             y2="-3887.6367" />
        <linearGradient
             inkscape:collect="always"
             xlink:href="#SVGID_1_"
             id="linearGradient3280"
             gradientUnits="userSpaceOnUse"
             gradientTransform="matrix(-0.7543,-0.6565,0.6565,-0.7543,19523.234,-8982.1865)"
             x1="8667.8086"
             y1="-19502.43"
             x2="8762.8594"
             y2="-19502.43" />
        <radialGradient
             inkscape:collect="always"
             xlink:href="#linearGradient4696"
             id="radialGradient3282"
             gradientUnits="userSpaceOnUse"
             gradientTransform="matrix(1,0,0,0.19269102,0,432.47179)"
             cx="-7.7777777"
             cy="535.6955"
             fx="-7.7777777"
             fy="535.6955"
             r="334.44446" />
    </defs>
    <sodipodi:namedview
         id="base"
         pagecolor="#ffffff"
         bordercolor="#666666"
         borderopacity="1.0"
         inkscape:pageopacity="0.0"
         inkscape:pageshadow="2"
         inkscape:zoom="6"
         inkscape:cx="118.33928"
         inkscape:cy="39.644442"
         inkscape:document-units="px"
         inkscape:current-layer="layer1"
         showgrid="false"
         fit-margin-top="0"
         fit-margin-left="0"
         fit-margin-right="0"
         fit-margin-bottom="0" />
    <metadata
         id="metadata3952">
        <rdf:RDF>
            <cc:Work
                 rdf:about="">
                <dc:format>image/svg+xml</dc:format>
                <dc:type
                     rdf:resource="http://purl.org/dc/dcmitype/StillImage" />
                <dc:title />
            </cc:Work>
        </rdf:RDF>
    </metadata>
    <g
         inkscape:label="Layer 1"
         inkscape:groupmode="layer"
         id="layer1"
         transform="translate(360.89484,-738.8923)">
        <g
             id="g3231">
            <g
                 id="g3216">
                <path
                     style="fill:#21191b;fill-rule:evenodd"
                     d="M -187.64317,769.46055 -191.64496,774.96302 C -195.64676,775.39321 -201.04918,775.79339 -207.75218,776.16355 -221.25824,776.89388 -234.86434,777.164 -248.67053,776.96391 -262.40669,776.76382 -275.95277,776.28361 -289.28875,775.51326 L -305.19589,774.46279 -311.19858,767.45965 -187.64317,769.46055 z"
                     id="path75"
                     inkscape:connector-curvature="0" />
                <path
                     style="fill-rule:evenodd"
                     d="M -169.13487,768.05992 -173.63688,774.31273 -188.64361,774.96302 C -188.34348,774.53282 -188.34348,774.06261 -188.54357,773.56239 -189.04379,772.56194 -190.44442,771.93166 -192.94554,771.66153 -195.44667,771.3614 -213.25465,771.28136 -246.16941,771.41142 -279.85452,771.5815 -297.92262,771.66153 -300.39373,771.66153 -303.42509,771.66153 -305.8962,771.88163 -307.79705,772.31183 L -309.6979,772.96212 -324.4045,774.31273 -329.65686,767.05947 -169.13487,768.05992 z"
                     id="path85"
                     inkscape:connector-curvature="0" />
            </g>
            <g
                 transform="matrix(0.1,0,0,0.1,-359.71484,739.08577)"
                 id="g4301">
                <path
                     id="path3120"
                     d="M 470.7,771.5403 764.2,778.5403 C 754.2,785.2103 742.03,792.3703 727.7,800.0403 698.7,815.7003 673.03,826.2103 650.7,831.5403 608.7,842.2103 542.03,842.2103 450.7,831.5403 425.7,828.8703 421.5299,818.0403 438.2,799.0403 446.5299,789.7103 457.3699,780.5403 470.7,771.5403 z"
                     style="opacity:0.25;fill:#141414;fill-rule:evenodd"
                     inkscape:connector-curvature="0" />
                <path
                     id="path3114"
                     d="M 1735.7,771.5403 1768.2,799.0403 C 1784.8699,818.0403 1780.7,828.8703 1755.7,831.5403 1664.37,842.2103 1597.7,842.2103 1555.7,831.5403 1533.37,826.2103 1507.7,815.7103 1478.7,800.0403 1464.37,792.3703 1452.2,785.2103 1442.2,778.5403 L 1735.7,771.5403 z"
                     style="opacity:0.25;fill:#141414;fill-rule:evenodd"
                     inkscape:connector-curvature="0" />
            </g>
            <g
                 id="g3195">
                <path
                     style="fill:#33282a;fill-rule:evenodd"
                     d="M -169.03482,767.05947 C -171.03572,769.83071 -173.13666,773.01214 -175.2376,776.61376 -179.63958,783.88702 -182.34079,789.69962 -183.44128,794.07159 -184.54178,798.44355 -185.44218,804.34619 -186.14249,811.77953 -186.54267,815.48119 -186.74276,818.78267 -186.94285,821.58392 L -199.94869,821.58392 C -203.15012,820.28334 -207.45205,818.88271 -212.65438,817.48208 -223.25914,814.68083 -233.76385,813.18016 -244.16852,812.98007 -254.57318,812.77998 -266.79867,814.1806 -280.83496,817.08191 L -298.74299,821.58392 -311.79885,821.58392 C -311.9289,818.78267 -312.17902,815.48119 -312.54918,811.77953 -313.27951,804.34619 -314.19992,798.44355 -315.30042,794.07159 -316.3709,789.69962 -319.08211,783.88702 -323.45407,776.61376 L -329.65686,767.05947 -307.44689,753.55342 -302.74479,762.20729 C -299.47332,768.71021 -297.57247,773.83251 -297.04223,777.56418 -296.14182,783.56687 -295.26143,788.06889 -294.39104,791.07024 L -289.98907,789.8697 C -286.28741,788.9693 -282.53572,788.19895 -278.73402,787.56867 -258.50856,784.75941 -242.48547,783.99476 -219.95766,787.56867 -213.81234,788.71876 -208.93318,790.06772 -203.45026,792.17073 -203.15012,791.44041 -202.74994,790.3199 -202.34976,788.81923 -201.44936,785.81789 -200.74904,782.43637 -200.24882,778.66468 -199.7486,774.933 -198.04783,769.63062 -195.34662,762.75754 L -191.34483,753.55342 z"
                     id="path51"
                     inkscape:connector-curvature="0"
                     sodipodi:nodetypes="ccsccccscccccccccccccccccccc" />
                <path
                     style="fill:#3d3032;fill-rule:evenodd"
                     d="M 162.65625,509.09375 161.65625,526.09375 164.84375,526.3125 C 167.14479,526.41255 168.86196,526.46875 170.0625,526.46875 171.27835,526.46875 173.09855,525.85539 175.375,524.71875 175.96005,519.98145 176.67608,515.99279 177.46875,512.84375 177.6598,512.08476 177.89944,511.28343 178.1875,510.4375 178.20629,510.35833 178.23112,510.26575 178.25,510.1875 177.64973,510.68772 176.8442,511.12983 175.84375,511.5 173.84285,512.23033 171.96335,512.32026 170.0625,511.75 168.0616,511.21976 166.26326,510.60781 164.5625,509.9375 L 162.65625,509.09375 z"
                     transform="translate(-360.89484,281.21933)"
                     id="path53"
                     inkscape:connector-curvature="0" />
                <path
                     style="fill:#21191b;fill-rule:evenodd"
                     d="M -183.94151,767.70976 C -185.44218,769.51057 -187.0429,771.76158 -188.74366,774.46279 -192.14519,779.89523 -194.24613,784.89747 -195.14653,789.46952 -196.44711,796.80281 -197.44756,803.4758 -198.14788,809.4785 L -202.44981,791.17028 C -201.74949,786.39815 -200.94913,782.0662 -199.94869,778.16445 -199.24837,775.43323 -198.14788,772.4819 -196.6472,769.31048 L -194.64631,765.40873 -183.94151,767.70976 z"
                     id="path55"
                     inkscape:connector-curvature="0" />
                <polygon
                     style="fill-rule:evenodd"
                     points="161,68.6 162,66.1 171,65.35 166.9,72.4 "
                     id="polygon57"
                     transform="matrix(1.0004486,0,0,1.0004486,-360.72079,708.033)" />
                <path
                     style="fill:#171113;fill-rule:evenodd"
                     d="M 159.53125,504.1875 159.25,510.4375 C 159.01342,510.30659 158.67198,509.61668 158.25,508.59375 157.95614,509.56932 157.6615,510.39244 157.4375,510.9375 152.87901,509.18906 148.70469,507.99381 143.90625,506.96875 L 139.84375,506.6875 146.25,508.84375 C 150.45189,510.64456 152.53125,512.41671 152.53125,514.1875 152.53125,515.9583 151.63826,517.78541 149.9375,519.65625 L 147.25,521.96875 150.4375,522.84375 C 152.83857,523.54407 154.64951,524.18852 155.75,524.71875 157.55081,525.54912 159.94245,526.71931 162.84375,528.25 L 164.25,509.4375 C 163.84982,509.86769 163.46268,510.2074 163.0625,510.4375 162.16209,510.93772 161.55013,510.76788 161.25,509.9375 160.94986,509.10713 160.45031,507.49483 159.75,505.09375 L 159.53125,504.1875 z"
                     transform="translate(-360.89484,281.21933)"
                     id="path59"
                     inkscape:connector-curvature="0" />
                <path
                     style="fill-rule:evenodd"
                     d="M 158.84375,508.59375 158.15625,508.90625 C 157.89687,509.73699 157.63759,510.45062 157.4375,510.9375 156.65249,510.63641 155.89074,510.39681 155.125,510.125 L 156.25,512 C 157.45053,514.27102 158.14996,516.09813 158.25,517.46875 158.35005,518.83936 157.95661,520.44166 157.15625,522.3125 156.65603,523.24291 156.25023,524.04845 155.75,524.71875 L 162.84375,528.25 163.25,517.46875 C 163.04991,517.63883 162.85634,517.71999 162.65625,517.75 162.05598,517.78002 161.53147,517.44908 161.03125,516.71875 160.43098,515.98843 159.93773,514.40108 159.4375,512 L 158.84375,508.59375 z"
                     transform="translate(-360.89484,281.21933)"
                     id="path61"
                     inkscape:connector-curvature="0" />
                <path
                     style="fill:#3d3032;fill-rule:evenodd"
                     d="M -299.69342,792.97109 -298.69297,809.97872 C -302.49467,810.17881 -305.27592,810.27885 -307.04672,810.27885 -308.44734,810.27885 -310.41823,809.67859 -312.94936,808.378 -313.64968,802.42533 -314.43003,797.64319 -315.30042,794.07159 L -312.89934,795.37217 C -310.92846,796.1025 -308.97758,796.20254 -307.04672,795.6723 -303.94532,794.7719 -301.49423,793.8715 -299.69342,792.97109 z"
                     id="path63"
                     inkscape:connector-curvature="0" />
                <path
                     style="fill:#21191b;fill-rule:evenodd"
                     d="M 59.34375,485.4375 48.6875,487.75 53.4375,494.5 C 56.80901,499.93244 58.94212,504.92795 59.8125,509.5 61.18312,516.83329 62.18222,523.50978 62.8125,529.5625 L 67.09375,511.1875 C 67.024315,510.69316 66.947882,510.2349 66.875,509.75 L 66.5,509.84375 C 65.62961,506.8424 64.74416,502.34644 63.84375,496.34375 63.77747,495.87729 63.702862,495.3849 63.59375,494.875 62.985437,493.10767 62.238934,491.27418 61.34375,489.34375 L 59.34375,485.4375 z"
                     transform="translate(-360.89484,281.21933)"
                     id="path65"
                     inkscape:connector-curvature="0" />
                <path
                     style="fill:#1f1719;fill-rule:evenodd"
                     d="M -215.35559,789.16939 C -210.55344,790.23987 -207.05187,791.34036 -204.65079,792.47087 L -197.14743,809.97872 C -201.34931,808.27796 -206.75174,806.55718 -213.15461,804.82641 -226.16044,801.39487 -238.26587,799.6741 -249.57094,799.6741 -260.75595,799.6741 -272.25111,801.72502 -283.98637,805.82686 -287.65802,807.09743 -291.11957,808.47805 -294.39104,810.07876 L -298.19274,811.97962 -294.0909,791.07024 -281.68534,789.06934 C -271.05057,787.69873 -259.67547,786.83834 -247.67008,786.46818 -235.6647,786.09801 -224.85986,786.99841 -215.35559,789.16939 z"
                     id="path67"
                     inkscape:connector-curvature="0" />
                <path
                     style="fill:#261d1f;fill-rule:evenodd"
                     d="M -244.16852,799.47401 C -246.86973,799.47401 -250.17121,799.64409 -254.173,799.97423 L -259.17524,800.47446 C -261.44626,797.70321 -262.77686,795.37217 -263.17704,793.47132 -263.57722,791.60048 -262.60678,789.94974 -260.27574,788.5191 -259.0752,787.81878 -257.87466,787.29855 -256.67412,786.9684 L -253.17255,786.41815 C -250.3713,785.98796 -247.67008,785.66782 -245.16896,785.46773 -242.66784,785.26764 -240.06668,785.44772 -237.46551,786.01798 -236.06488,786.31811 -234.96439,786.63825 -234.16403,786.9684 L -231.16268,789.21941 C -229.16179,791.05023 -228.16134,792.80102 -228.16134,794.47177 -228.16134,795.47222 -228.86165,796.94287 -230.16223,798.87374 L -232.16313,801.47491 C -232.66336,801.14476 -233.56376,800.8046 -234.7643,800.47446 -237.26542,799.80416 -240.36681,799.47401 -244.16852,799.47401 z"
                     id="path69"
                     inkscape:connector-curvature="0" />
                <path
                     style="fill:#524044;fill-rule:evenodd"
                     d="M -209.3529,806.72726 C -220.25779,804.22614 -232.66336,802.97558 -246.66964,802.97558 -260.67592,802.97558 -273.41163,804.47625 -284.98682,807.4776 -288.61845,808.378 -291.90993,809.4785 -294.84124,810.57899 L -298.19274,811.97962 -295.39149,810.07876 C -292.86035,808.57809 -289.86901,807.2475 -286.43747,805.97692 -275.43254,801.97513 -262.00652,799.97423 -246.16941,799.97423 -232.86345,799.97423 -220.65797,801.72502 -209.65304,805.22659 -204.15057,806.99738 -199.94869,808.77818 -197.14743,810.47894 -199.84864,809.27841 -203.85043,807.99783 -209.3529,806.72726 z"
                     id="path71"
                     inkscape:connector-curvature="0" />
                <path
                     style="fill:#524044;fill-rule:evenodd"
                     d="M -298.69297,809.97872 C -299.69342,800.64453 -300.86394,793.80146 -302.19454,789.46952 -303.02491,786.76831 -304.1154,783.44682 -305.446,779.51506 L -307.19678,774.46279 -303.79526,780.36544 C -301.46421,785.03753 -300.0936,789.23942 -299.69342,792.97109 -299.02312,798.97378 -298.69297,804.64633 -298.69297,809.97872 z"
                     id="path73"
                     inkscape:connector-curvature="0" />
                <path
                     style="fill:#261e1f;fill-rule:evenodd"
                     d="M -310.69835,783.96706 C -314.50006,784.66737 -318.30176,782.98661 -322.10347,778.91479 -323.67417,776.18356 -325.40495,773.38231 -327.3058,770.51102 L -329.65686,767.05947 -312.19903,768.96032 -310.39822,771.01124 C -309.06762,772.68199 -308.02715,774.24269 -307.29683,775.71335 -304.96578,780.38545 -306.09629,783.13668 -310.69835,783.96706 z"
                     id="path77"
                     inkscape:connector-curvature="0" />
                <path
                     style="fill:#261e1f;fill-rule:evenodd"
                     d="M 191.125,486.90625 174.34375,488.75 C 173.84352,489.28024 173.26281,489.95088 172.5625,490.78125 171.26191,492.452 170.26282,494.02934 169.5625,495.5 167.16143,500.1721 168.24169,502.91963 172.84375,503.75 176.24335,504.37625 179.6629,503.09518 183.0625,499.90625 183.85876,498.46494 184.70075,496.985 185.65625,495.40625 187.4989,492.24742 189.34984,489.42538 191.125,486.90625 z"
                     transform="translate(-360.89484,281.21933)"
                     id="path79"
                     inkscape:connector-curvature="0" />
                <path
                     style="fill:#524044;fill-rule:evenodd"
                     d="M -188.64361,774.96302 -190.34438,780.01528 C -191.74501,783.94704 -192.8455,787.26853 -193.64586,789.96975 -194.94644,794.30169 -196.14698,801.14476 -197.14743,810.47894 -197.14743,805.14655 -196.84729,799.47401 -196.14698,793.47132 -195.7468,789.73964 -194.34617,785.53776 -191.9451,780.86566 L -188.64361,774.96302 z"
                     id="path81"
                     inkscape:connector-curvature="0" />
                <path
                     style="fill:#261e1f;fill-rule:evenodd"
                     d="M -209.15281,813.58033 C -204.4507,814.58078 -200.94913,814.98096 -198.6481,814.98096 -198.24792,814.98096 -196.14698,815.38114 -192.54536,816.08146 -189.44397,816.68173 -187.44308,816.78177 -186.64272,816.48164 L -186.94285,821.58392 H -200.04873 C -203.15012,820.28334 -207.45205,818.88271 -212.65438,817.48208 -223.25914,814.68083 -233.76385,813.18016 -244.16852,812.98007 -254.57318,812.77998 -266.79867,814.1806 -280.83496,817.08191 L -298.74299,821.58392 H -311.79885 C -311.9289,819.38294 -312.12899,816.68173 -312.39912,813.68038 -311.76883,814.58078 -310.06807,815.38114 -307.29683,816.1815 -303.72523,817.08191 -300.19364,817.08191 -296.69207,815.98141 -291.28965,814.28065 -285.33698,813.08011 -278.83406,812.17971 -274.73222,811.57944 -266.79867,810.47894 -255.0734,808.97827 -246.76968,807.80775 -236.16493,808.47805 -223.05905,810.87912 -219.75757,811.47939 -215.05546,812.3798 -209.15281,813.58033 z"
                     id="path83"
                     inkscape:connector-curvature="0" />
                <path
                     style="fill-rule:evenodd"
                     d="M 54.34375,493.4375 58.4375,500.5 63.9375,496.9375 C 63.905893,496.73017 63.875406,496.55479 63.84375,496.34375 63.769837,495.82357 63.689678,495.26169 63.5625,494.6875 L 63.34375,494.1875 54.34375,493.4375 z"
                     transform="translate(-360.89484,281.21933)"
                     id="polygon99"
                     inkscape:connector-curvature="0" />
                <path
                     style="fill:#171113;fill-rule:evenodd"
                     d="M 65.71875,506.75 C 65.201057,508.54772 64.741626,510.04937 64.34375,511.1875 64.04361,512.01787 63.4629,512.18772 62.5625,511.6875 L 61.34375,510.6875 62.8125,529.5625 69.84375,525.96875 C 71.67457,525.13838 74.51203,524.2192 78.34375,523.21875 77.47336,522.64849 76.62039,521.87668 75.75,520.90625 73.97921,519.03541 73.09375,517.23955 73.09375,515.46875 73.09375,513.69796 73.81936,511.87084 75.25,510 75.95031,509.06958 76.64343,508.28777 77.34375,507.6875 75.17277,508.18773 73.17457,508.7672 71.34375,509.4375 70.21324,509.86769 69.04306,510.36725 67.8125,510.9375 L 66.34375,511.6875 66.21875,508.78125 C 66.052545,508.14951 65.885826,507.49062 65.71875,506.75 z"
                     transform="translate(-360.89484,281.21933)"
                     id="path101"
                     inkscape:connector-curvature="0" />
                <path
                     style="fill-rule:evenodd"
                     d="M -294.0909,791.07024 -292.79032,791.67051 -290.78942,790.16984 -292.09001,793.82147 C -292.9604,796.52268 -293.44061,798.5536 -293.54066,799.92421 -293.6407,801.29483 -293.26053,802.90555 -292.39014,804.77639 -291.95995,805.7068 -291.50975,806.50716 -291.03954,807.17746 L -298.0927,810.77908 -298.5429,799.92421 -297.89261,800.22435 C -297.36237,800.25436 -296.82213,799.9042 -296.29189,799.17387 -295.46152,798.00335 -294.72119,795.30214 -294.0909,791.07024 z"
                     id="path103"
                     inkscape:connector-curvature="0" />
            </g>
            <g
                 transform="matrix(0.30870987,0,0,0.30870987,-346.41794,608.85774)"
                 id="g4014">
                <polygon
                     id="polygon89"
                     points="0,50.5 35.3,28 186.7,28 222.9,50.05 "
                     style="fill:#363636;fill-rule:evenodd"
                     transform="matrix(3.2407407,0,0,3.2407407,-46.894837,331.56192)" />
                <g
                     id="use91"
                     style="opacity:0.75"
                     transform="matrix(3.2407407,0,0,-3.2407407,-46.894837,421.21933)">
                    <g
                         id="g3896">
                        <linearGradient
                             gradientTransform="matrix(0.9164,-0.4002,0.4002,0.9164,3934.6348,2553.4258)"
                             y2="-3887.6367"
                             x2="-2482.9517"
                             y1="-3887.6367"
                             x1="-2562.0361"
                             gradientUnits="userSpaceOnUse"
                             id="linearGradient3898">
                            <stop
                                 id="stop3900"
                                 style="stop-color:#393939;stop-opacity:0"
                                 offset="0" />
                            <stop
                                 id="stop3902"
                                 style="stop-color:#858585;stop-opacity:0.349"
                                 offset="0.5098" />
                            <stop
                                 id="stop3904"
                                 style="stop-color:#393939;stop-opacity:0"
                                 offset="0.9882" />
                        </linearGradient>
                        <polygon
                             id="polygon3906"
                             points="222.9,-22.05 0,-22.5 35.3,0 186.7,0 "
                             style="fill:url(#linearGradient3278);fill-rule:evenodd" />
                    </g>
                </g>
                <g
                     id="use93"
                     style="opacity:0.75"
                     transform="matrix(3.2407407,0,0,-3.2407407,-46.894837,421.21933)">
                    <g
                         id="g3880">
                        <linearGradient
                             gradientTransform="matrix(-0.7543,-0.6565,0.6565,-0.7543,19523.234,-8982.1865)"
                             y2="-19502.43"
                             x2="8762.8594"
                             y1="-19502.43"
                             x1="8667.8086"
                             gradientUnits="userSpaceOnUse"
                             id="linearGradient3882">
                            <stop
                                 id="stop3884"
                                 style="stop-color:#393939;stop-opacity:0"
                                 offset="0" />
                            <stop
                                 id="stop3886"
                                 style="stop-color:#858585;stop-opacity:0.349"
                                 offset="0.5098" />
                            <stop
                                 id="stop3888"
                                 style="stop-color:#393939;stop-opacity:0"
                                 offset="0.9882" />
                        </linearGradient>
                        <polygon
                             id="polygon3890"
                             points="222.9,-22.05 0,-22.5 35.3,0 186.7,0 "
                             style="fill:url(#linearGradient3280);fill-rule:evenodd" />
                    </g>
                </g>
                <polygon
                     id="polygon95"
                     points="1.4,49.5 222.9,50.05 216.4,60.75 8.4,60.75 "
                     style="fill:#141414;fill-rule:evenodd"
                     transform="matrix(3.2407407,0,0,3.2407407,-46.894837,331.56192)" />
                <rect
                     id="rect97"
                     height="6.4814816"
                     width="716.20374"
                     style="fill:#545051;fill-rule:evenodd"
                     y="491.65451"
                     x="-41.978168" />
            </g>
            <path
                 transform="matrix(0.30870987,0,0,0.30870987,-247.01336,654.87082)"
                 d="M 326.66668,535.6955 C 326.66668,571.28718 176.9308,600.13994 -7.7777777,600.13994 -192.48635,600.13994 -342.22224,571.28718 -342.22224,535.6955 -342.22224,500.10381 -192.48635,471.25105 -7.7777777,471.25105 176.9308,471.25105 326.66668,500.10381 326.66668,535.6955 z"
                 sodipodi:ry="64.444443"
                 sodipodi:rx="334.44446"
                 sodipodi:cy="535.6955"
                 sodipodi:cx="-7.7777777"
                 id="path4186"
                 style="opacity:0.35069448;fill:url(#radialGradient3282);fill-opacity:1;stroke:none"
                 sodipodi:type="arc" />
        </g>
    </g>
</svg>
