<?xml version="1.0" encoding="UTF-8" standalone="no"?>
<!-- Created with Inkscape (http://www.inkscape.org/) -->

<svg
     xmlns:dc="http://purl.org/dc/elements/1.1/"
     xmlns:cc="http://creativecommons.org/ns#"
     xmlns:rdf="http://www.w3.org/1999/02/22-rdf-syntax-ns#"
     xmlns:svg="http://www.w3.org/2000/svg"
     xmlns="http://www.w3.org/2000/svg"
     xmlns:xlink="http://www.w3.org/1999/xlink"
     xmlns:sodipodi="http://sodipodi.sourceforge.net/DTD/sodipodi-0.dtd"
     xmlns:inkscape="http://www.inkscape.org/namespaces/inkscape"
     width="311.74622"
     height="73.922203"
     id="svg3329"
     version="1.1"
     inkscape:version="0.48.5 r10040"
     sodipodi:docname="New document 1">
    <defs
         id="defs3331">
        <linearGradient
             inkscape:collect="always"
             xlink:href="#SVGID_1_"
             id="linearGradient3084"
             gradientUnits="userSpaceOnUse"
             gradientTransform="matrix(-3.974115e-4,1,-1,-3.974115e-4,158.43755,402.51918)"
             x1="-16.9126"
             y1="-157.5898"
             x2="108.8874"
             y2="-157.5898" />
        <linearGradient
             gradientTransform="matrix(-3.974115e-4,1,-1,-3.974115e-4,3.354544e-4,2.388003e-4)"
             y2="-157.5898"
             x2="108.8874"
             y1="-157.5898"
             x1="-16.9126"
             gradientUnits="userSpaceOnUse"
             id="SVGID_1_">
            <stop
                 id="stop112"
                 style="stop-color:#000000;stop-opacity:0.6235"
                 offset="0" />
            <stop
                 id="stop114"
                 style="stop-color:#000000;stop-opacity:0"
                 offset="0.9961" />
        </linearGradient>
        <linearGradient
             inkscape:collect="always"
             xlink:href="#SVGID_1_"
             id="linearGradient4318"
             gradientUnits="userSpaceOnUse"
             gradientTransform="matrix(-3.974115e-4,1,-1,-3.974115e-4,158.43755,402.51918)"
             x1="-16.9126"
             y1="-157.5898"
             x2="108.8874"
             y2="-157.5898" />
    </defs>
    <sodipodi:namedview
         id="base"
         pagecolor="#ffffff"
         bordercolor="#666666"
         borderopacity="1.0"
         inkscape:pageopacity="0.0"
         inkscape:pageshadow="2"
         inkscape:zoom="3.05"
         inkscape:cx="147.571"
         inkscape:cy="-46.100546"
         inkscape:document-units="px"
         inkscape:current-layer="layer1"
         showgrid="false"
         fit-margin-top="0"
         fit-margin-left="0"
         fit-margin-right="0"
         fit-margin-bottom="0" />
    <metadata
         id="metadata3334">
        <rdf:RDF>
            <cc:Work
                 rdf:about="">
                <dc:format>image/svg+xml</dc:format>
                <dc:type
                     rdf:resource="http://purl.org/dc/dcmitype/StillImage" />
                <dc:title></dc:title>
            </cc:Work>
        </rdf:RDF>
    </metadata>
    <g
         inkscape:label="Layer 1"
         inkscape:groupmode="layer"
         id="layer1"
         transform="translate(-158.41261,-438.56894)">
        <g
             id="g4310">
            <path
                 inkscape:connector-curvature="0"
                 style="opacity:0.25;fill:#020202;fill-rule:evenodd"
                 d="M 465.85001,506.43013 468.80001,507.78013 C 470.46701,508.88013 470.60001,509.99713 469.20001,511.13013 467.73301,512.29713 416.06701,512.71313 314.20001,512.38013 213.43302,512.04713 161.76702,511.63013 159.20002,511.13013 157.80002,510.83013 158.26702,509.84713 160.60002,508.18013 161.80002,507.34713 163.11702,506.53013 164.55002,505.73013 L 465.85001,506.43013 z"
                 id="path3112" />
            <g
                 id="g4304">
                <path
                     inkscape:connector-curvature="0"
                     style="fill:#292929;fill-rule:evenodd"
                     d="M 404.63721,438.91894 467.23721,505.56894 161.73722,505.56894 227.33722,438.91894 z"
                     id="polygon101"
                     sodipodi:nodetypes="ccccc" />
                <path
                     style="fill:#7b2929;fill-opacity:1;fill-rule:evenodd"
                     d="M 313,439.53125 234.84375,439.8125 232.625,443.09375 179.6875,501.40625 309.25,501.3125 309.25,502.375 313,502.375 313,501.4375 313.5,501.875 313.25,472.0625 313,472.0625 313,471.78125 309.25,471.78125 309.25,471.9375 270.53125,470.8125 271.5,466.34375 280.09375,466.625 279.6875,469.90625 355,470.21875 353.96875,466.75 359.75,466.8125 360.59375,470.8125 321.9375,471.9375 321.9375,471.78125 318.1875,471.78125 318.1875,472.0625 317.9375,472.0625 317.6875,501.875 318.1875,501.4375 318.1875,502.375 321.9375,502.375 321.9375,501.3125 451.5,501.40625 398.4375,443 396.28125,439.8125 318.1875,439.53125 317.9375,456.9375 313.25,456.96875 313,439.53125 z M 309.25,442.8125 309.25,456.96875 271.09375,456.71875 269.28125,463.4375 260.4375,463.34375 263.46875,454.8125 303.5,454.65625 303.75,452.0625 263.40625,452.0625 262.53125,451.46875 262.3125,452.0625 261.84375,452.0625 258.1875,462.90625 258.03125,463.3125 247.9375,463.21875 253.09375,452.8125 254.53125,450.125 304,450.5625 304,448.28125 253.15625,447.96875 252.875,447.5625 252.65625,447.96875 252.5,447.96875 250.375,452.3125 244.65625,463.15625 235.1875,463.0625 245.3125,446.21875 304.25,446.625 304.5,444.5625 242.75,444.46875 237.8125,452.9375 231,463.03125 224.96875,462.96875 234.5625,448.34375 238.9375,442.96875 309.25,442.8125 z M 321.9375,442.8125 392.25,442.96875 409.75,464.40625 401,464.34375 393.625,453.40625 388.4375,444.46875 326.6875,444.5625 326.9375,446.625 385.84375,446.21875 396.71875,464.28125 387.0625,464.1875 380.9375,452.5625 378.6875,447.96875 378.5,447.96875 378.28125,447.5625 378,447.96875 327.1875,448.28125 327.1875,450.5625 376.625,450.125 377.6875,452.125 383.65625,464.15625 373.375,464.0625 372.9375,462.90625 369.28125,452.0625 368.8125,452.0625 368.59375,451.46875 367.75,452.0625 327.4375,452.0625 327.6875,454.65625 367.71875,454.8125 370.96875,464.03125 362.0625,463.9375 360.09375,456.71875 351.53125,456.78125 351.53125,456.71875 321.9375,456.90625 321.9375,442.8125 z M 272.75,459.28125 309.25,459.28125 309.25,459.5625 349.84375,459.28125 350.34375,461.5 282.03125,460.65625 281.53125,463.5625 280.5,463.46875 280.5,463.5625 271.8125,463.46875 272.75,459.28125 z M 352.21875,459.28125 358.4375,459.28125 359.5,463.9375 354.125,463.875 353,462.28125 352.21875,459.28125 z M 285.59375,462.03125 350.25,463.03125 351.125,466.71875 351.5,466.71875 352,468.125 343.1875,468.03125 337,467.40625 C 334.20723,467.60187 331.52335,467.76142 328.90625,467.875 L 296.9375,467.5 287,467.0625 286.53125,467.40625 285,467.375 285.15625,465.21875 285.59375,462.03125 z M 291.75,463.875 291.84375,465.0625 345.5,466.625 344.625,464.28125 291.75,463.875 z M 221.21875,464.6875 229.6875,464.96875 211.125,492.46875 303.75,492.8125 304.28125,489.375 219.625,488.90625 233.96875,465.09375 243.46875,465.40625 232.75,485.71875 309.25,485.71875 309.25,496.71875 195.28125,496.46875 221.21875,464.6875 z M 246.78125,465.53125 257.0625,465.875 252,479.3125 304,479.625 304.25,475.96875 300.65625,475.96875 C 300.69688,475.937 300.74138,475.90751 300.78125,475.875 298.45785,475.898 297.06127,475.91416 295.53125,475.9375 L 256.03125,475.8125 259.53125,465.9375 268.71875,466.25 266.625,473.65625 309.25,474.0625 309.25,481.90625 238.75,481.71875 246.78125,465.53125 z M 362.625,466.8125 372,466.90625 375.125,475.8125 326.9375,475.96875 327.1875,479.625 379.1875,479.3125 374.46875,466.9375 385.09375,467.03125 392.375,481.71875 321.9375,481.90625 321.9375,474.0625 364.5,473.65625 362.625,466.8125 z M 388.59375,467.0625 398.4375,467.15625 411.5,488.90625 326.875,489.375 327.4375,492.8125 420.03125,492.46875 402.9375,467.1875 412.0625,467.28125 435.875,496.46875 321.9375,496.71875 321.9375,485.71875 398.4375,485.71875 388.59375,467.0625 z"
                     id="polygon3129"
                     inkscape:connector-curvature="0" />
                <path
                     inkscape:connector-curvature="0"
                     style="opacity:0.4;fill:url(#linearGradient4318);fill-rule:evenodd"
                     d="M 228.23722,438.56894 403.53721,439.36894 468.73721,503.81894 163.23722,503.81894 z"
                     id="polygon116" />
                <path
                     style="fill:#0b0b0b;fill-opacity:1;fill-rule:evenodd"
                     d="M 467.23721,510.01893 C 441.90421,510.01893 418.57021,509.68593 397.23721,509.01893 386.00421,508.65293 362.63721,508.60193 327.13721,508.86893 292.23721,509.13593 267.60321,509.51893 253.23722,510.01893 241.57022,510.45293 222.73722,510.41893 196.73722,509.91893 L 161.23722,509.01893 161.73722,505.56893 201.88722,504.91993 C 231.22022,504.55293 252.33722,504.56893 265.23721,504.96993 277.50421,505.36893 300.25421,505.33593 333.48721,504.86893 373.92121,504.26893 395.17121,503.96993 397.23721,503.96993 413.90421,503.96993 437.23721,504.50293 467.23721,505.56993 V 510.01893 z"
                     id="path118"
                     inkscape:connector-curvature="0" />
            </g>
        </g>
    </g>
</svg>
